<?xml version="1.0" encoding="UTF-8"?>
<svg id="_レイヤー_1" data-name="レイヤー 1" xmlns="http://www.w3.org/2000/svg" xmlns:xlink="http://www.w3.org/1999/xlink" viewBox="0 0 670.82 491.41">
  <defs>
    <style>
      .cls-1 {
        fill: none;
      }

      .cls-2 {
        clip-path: url(#clippath-1);
      }

      .cls-3 {
        clip-path: url(#clippath-3);
      }

      .cls-4 {
        clip-path: url(#clippath-2);
      }

      .cls-5 {
        fill: #ff0;
      }

      .cls-6 {
        fill: #bcf2f6;
      }

      .cls-7 {
        fill: #006bff;
      }

      .cls-8 {
        clip-path: url(#clippath);
      }
    </style>
    <clipPath id="clippath">
      <rect class="cls-1" x="207.93" width="462.88" height="344.21"/>
    </clipPath>
    <clipPath id="clippath-1">
      <rect class="cls-1" y="25.71" width="326.11" height="440"/>
    </clipPath>
    <clipPath id="clippath-2">
      <rect class="cls-1" x="107.77" y="99.56" width="394.59" height="391.44"/>
    </clipPath>
    <clipPath id="clippath-3">
      <rect class="cls-1" x="144.78" y="61.71" width="466.67" height="429.29"/>
    </clipPath>
  </defs>
  <path class="cls-6" d="M37.97,244.74c5.39,4.8,10.96,3.8,14.19-2.54,2.29-4.59,1.09-8.26-4.1-12.24-8.52-6.42-18.09,7.54-10.09,14.78ZM12.64,218.82c2.51,5.16,10.36,4.72,12.08-.67,1.48-4.56,1.37-5.2-1.89-8.07-6.79-5.92-14.26.56-10.19,8.74ZM145.25,156.32c2.78-6.23-.43-19.05-4.77-18.91-.91.03-2.19-.66-3.03-1.44-2.44-2.81-12.26-1.27-15.19,2.39-1.36,1.7-2.8,2.71-3.27,2.27-.38-.35-.35.19.04,1.27.48,1.07.26,2.69-.52,3.63-2.47,3.03-.33,11.94,3.65,15.16,7.34,6.18,19.29,3.89,23.08-4.36ZM122.64,188.86c.12-1.81.51-3.72.95-4.19,1.57-1.68-1.45-11.34-4.53-14.22-1.12-1.05-2.06-2.29-2.08-2.83-.03-.99-4.4-1.94-12.29-2.67-5.07-.47-14.82,2.65-14.75,4.82.02.54-1,2.74-2.38,4.78-1.29,2.03-2.58,3.88-2.75,4.24-.86,1.38-2.41-3.01-1.91-5.81.42-2.38.07-3.34-1.57-3.93-1.19-.32-3.68-2.05-5.63-3.7-3.82-3.31-3.72-3.31-9.95-3.11-21.84.8-27.2,30.61-6.66,37.08,10.95,3.44,14.89,2.14,21.98-7.67q3.54-4.91,4.28-1.86c.73,3.14,6.08,9.11,10.5,11.77,9.49,5.66,26.4-2.4,26.79-12.71ZM77.53,269.22c1.66-1.77,1.98-3.14,1.26-5.83-1.88-7.62-11.98-7.02-11.73.74.2,6.05,6.63,9.18,10.47,5.08ZM108.49,385.33c2.78-3.53,2.24-11.82-1.06-15.96-6.59-8.37-22.41,0-20.16,10.69,2.26,11.22,14.19,14.18,21.22,5.28ZM118.22,347.96c1.9-5.4-4.04-10.08-8.35-6.69-3.44,2.73-3.69,6.17-.59,9.69,2.63,3.08,7.46,1.47,8.94-3ZM170.41,352.23c-2.89-2.71-3.61-2.69-7.13.32-6.6,5.55.09,14.1,7.55,9.79,2.84-1.63,2.66-7.31-.42-10.1ZM213.13,354.37c3.57,1.24,8.92-.83,9.55-3.65,1.67-7.02-1.33-10.53-8.45-9.85-2.97.28-5.39.99-5.37,1.62.03.64-.13,1.63-.38,2.27-.81,3.1,1.91,8.61,4.65,9.61ZM99.76,285.94c.94-4.46.53-5.98-1.64-5.91-3.07.1-5.16,4.28-3.22,6.43,1.92,2.15,4.3,1.84,4.86-.52ZM171.01,306.85c-.75-6.48-4.55-12.14-8.34-12.02-.64.02-.87-4.49-.62-10.64.22-7.33-.08-10.75-.89-10.72-2.8.09-4.63-7.04-2.58-9.86,1.09-1.51,2.27-2.6,2.63-2.61s.46.17.38.35c-.52.65,3.1,3.6,5.2,4.35,2.46.83,7.46-1.15,9.36-3.73,3.89-5.64-.54-13.81-7.4-13.59-4.42.15-7.15,2.58-7.91,7.13-.68,4.09-2.21,4.41-2.33.53-.31-9.74-17.73-9.18-19.85.65-.56,2.28-1.18,2.75-3.27,2.36-1.82-.39-3.24.29-5.16,2.43-1.4,1.58-3.16,2.91-3.88,2.93-4.6.15-10.92,14.36-7.92,17.79.56.61,1.02,3.49,1.11,6.47.08,4.96.46,5.68,6.05,10.82,3.35,3.06,6.03,4.96,6.01,4.15s1.55.13,3.42,2.15c1.78,2.02,3.82,3.4,4.44,3.02.53-.38,1.71-.06,2.46.82.76.88,2.03,1.29,2.83.99,1.96-.88,4.9,3.27,5.97,8.57,2.76,12.47,21.63,1.01,20.29-12.32ZM161.82,388.39c-4.77-2.02-8.28,3.7-5.24,8.4,1.04,1.41,6.64,1.23,8.12-.35,1.84-1.96.15-6.78-2.88-8.04ZM85.29,313.52c1.64-5.2-1.08-8.19-7.13-7.99-3.43.11-4.73,4.67-2.69,9.12.98,2.32,2,2.92,4.33,2.66q4.51-.42,5.48-3.79ZM71.96,292.71c-2.44.08-3.2,1.73-1.68,3.94.57.89,1.84,1.21,2.92.72,2.4-1.07,1.56-4.75-1.24-4.66ZM206.51,387.11c2.15,2.19,3.2,4.15,2.8,5.6-.23,1.27.41,4.32,1.48,6.82,2.64,5.97,2.52,8.05-.45,11.04-5.08,5.14-14.23,1.46-14.47-5.77-.06-1.81-.76-3.77-1.41-4.47-1.68-1.57-3.68-10.36-2.32-10.41.54-.02.96-.76.93-1.74-.05-1.45-1.42-2.13-3.67-1.69-5.04.89-12.98-15.76-9.31-19.58.87-.93.58-1.55-1.17-2.4-5.15-2.54-6.43-11.54-2.13-15.47,5.18-4.78,11.63-3.63,14.73,2.6,1.64,3.2,2.84,4.28,4.74,4.27,10.2-.04,17.06,16.26,10.09,24.16q-3.22,3.63.14,7.04"/>
  <g class="cls-8">
    <path class="cls-5" d="M450.98,85.49c-2.36.85-4.98,1.35-5.67,1.13-.86-.28-1.51.56-1.68,2.31-.21,1.54-.96,3.3-1.72,3.91-9.46,7.97,7.05,21.59,19.11,15.86,12.27-5.76,2.7-27.77-10.04-23.21ZM480.24,141.19c16.41,3.24,26.07-9.51,16.54-21.84-4.21-5.52-19.07-8.27-20.5-3.79-.16.52-1.1.79-2.05.48-1.72-.55-1.75-.46-2.39,7.49-.1.91-.77,2.12-1.51,2.65-3.52,2.39,4.09,13.92,9.9,15.01ZM574.63,187.68c.93.96,1.78,2.18,2.01,2.63,1.8,4.46,11.58,5.31,16.36,1.33,1.92-1.57,4.17-2.08,7.35-1.64,12.77,1.9,17.28-15.24,5.04-19.06-4.47-1.43-5.98-1.15-8.75,1.57-1.66,1.65-2.83,1.75-6.48.4-4.82-1.82-10.98-.88-13.26,2.03-2.71,3.46-4.06,10.94-2.27,12.74ZM566.2,62.81c-.29-.57-.66-.31-.91.47-.25.78-.09,1.2.47.91.54-.2.76-.89.44-1.38ZM625.9,216.27c-1.25-3.53-9.16-5.77-12.42-3.58-6.57,4.26-1.96,16.25,5.61,14.78,5.02-.86,8.46-6.59,6.8-11.2ZM360.85,6.4c-3.69-7.15-16.34-8.82-18.4-2.36-.36,1.12-1.26,2.15-1.97,2.31-5.49,1.28-.08,11.26,7.49,13.67,9.72,3.1,17.33-4.99,12.88-13.61ZM447.1,45.76c1.45,1.71,2.26.72,1.99-2.35-.18-2.55-.66-4.94-1.34-5.16-2.26-.72-2.63,5.13-.65,7.51ZM216.09,163.56c.21.54.9.76,1.38.44.54-.21.3-.66-.47-.91-.78-.24-1.23-.02-.91.47ZM266.32,209.07c.11-.34-.09-.6-.35-.68-.34-.11-.57,0-.68.35-.08.26.01.57.35.68.26.08.59-.09.68-.35ZM383.81,242.24c.78-2.43-.75-4.82-3.18-5.6-2.43-.78-4.72.41-5.5,2.83s.3,5.07,2.73,5.84c2.43.78,5.17-.65,5.95-3.08ZM323.24,180.11c.23-.11,1.56,1.35,3.02,3.33,1.39,1.87,3.36,3.73,4.22,4,.86.28,1.93,1.38,2.41,2.57,1.18,2.84,8.23,4.81,14.73,4.04,3.05-.35,5.94-.19,6.44.35,1.36,1.67,1.63,9.61.32,11.48-.92,1.31-.4,2.43,1.89,4.48,4.19,3.81,6.68,8.2,6.02,10.84-.21,1.26.44,2.79,1.65,3.46,1.09.72,2.21,2.6,2.43,4.28.68,5.9,6.97,6.96,15.26,2.69,3.29-1.7,10-1.93,16.3-.58,3.09.7,8.44-3.28,8.23-6.19-.1-1.46.47-1.46,2.77-.07q5.81,3.47,8.34-1.79c2.98-6.07,4.54-7.08,6.97-4.6,2,2.06,3.34,1.73,4.19-.94.33-1.03,2.43-2.55,4.67-3.34,7.82-2.82,8.33-3.22,9.38-8.29.65-3.21,1.62-5.08,2.84-5.64,2.05-.77,3.29-3.5,1.83-3.97-1.72-.55-1.37-8.78.45-9.71,2.47-1.2,2.31-2.2-.64-5.14-2.23-2.23-2.38-3.06-.97-4.39.91-.86,1.48-1.99,1.19-2.56-.23-.45.45-.52,1.57-.16,1.29.41,2.73,3.33,3.96,7.8,3.96,15.2,27.24,13.24,29.81-2.53,1.19-7.58-1.24-12.15-7.86-14.27-4.65-1.48-5.26-1.96-4.65-3.85,1.34-4.22-2.93-11.93-7.93-14.38-15.15-7.48-27.99,6.33-19.55,21.16,1.4,2.44,2.11,4.66,1.55,4.95-1.82.94-2.8-.14-2.9-3.11-.11-2.31-.95-3.24-3.45-4.04-2.49-.8-3.44-1.84-3.68-4.21-.17-1.66-1.13-3.3-2.07-3.6-.95-.31-2.54-1.85-3.58-3.33-2.42-3.43-8.52-4.52-14.52-2.64-3.59,1.13-4.13,1.05-4.44-.66-.21-1.11-1.66-2.81-3.24-3.79-2.19-1.45-2.78-2.88-2.69-7.02.39-12.48-19.23-18.74-24.86-7.93-4.71,9.11-4.65,11.6.19,16.65,1.79,1.8,1.74,2.55-.07,6.14-1.25,2.44-1.93,5.45-1.79,7.68.37,4.19.11,4.4-4.35,3.83-3-.39-3.32-.87-3.86-5.41-.48-3.56-1.3-5.15-2.93-5.67-1.29-.42-3.4-2.13-4.7-3.68-1.83-2.29-3.7-3.27-7.36-3.96-4.61-.99-6.12-2.81-2.9-3.68.71-.15,1.61-1.19,1.94-2.22.35-1.12,1.4-2.3,2.36-2.66,2.5-1.01,4.43-6.6,3.1-9.15-1.43-2.78-.8-4.33,1.58-4.05,10.78,1.26,6.68-33.14-4.19-34.71-2.18-.32-4.85-1.45-5.77-2.41-1.36-1.39-2.42-1.63-4.32-1-1.4.5-3.34.64-4.4.4-5.79-1.75-10.89,1.46-16.55,10.27-4.65,7.15-5.03,8.63-3.7,13.7,1.99,8.32,4.61,12.57,8.87,14.69,2.73,1.24,4.7,3.39,6.17,6.52,1.2,2.47,4.22,6.37,6.71,8.68,2.81,2.51,3.8,4.15,2.77,4.1-2.17-.03-11.29,2.51-14.46,4.02-1.21.58-3.15,2.87-4.28,5.08-1.16,2.28-2.91,4.4-4,4.79-2.85,1.03-3.02,2.35-.73,7.06,1.56,3.44,1.64,4.98.3,7.97-1.47,3.13-.93,5.3,1,4.3ZM316.15,254.07c-2.6.12-3.99.91-4.91,2.89-3.36,7.27-.13,12.57,6.83,11.28,9.37-1.75,7.72-14.41-1.93-14.17ZM452.79,333.89c4.07-3.54,10.5-3.48,11.28,0,2.08,8.34,4.65,10.39,7.45,6.07,3.66-5.85,5.92-6.07,8.07-.93,2.23,5.45,3.1,5.73,6.8,2.45,1.61-1.48,3.63-2.44,4.4-2.2,4.13,1.32,8.02-.19,8.35-3.31.59-5.12,4.31-6.97,9.2-4.46q4.17,2.08,4.96-3.06c.74-4.41,1.16-5.13,2.96-5.13,3.49.07,11.78,2.62,13.71,4.28,1.65,1.38,1.61,1.18.21-1.54-.88-1.7-1.2-4.27-.73-5.73.47-1.46.21-3.92-.64-5.42-1.96-3.38-.47-5.36,4.16-5.59,4.14-.2,5.45-2.53,3.19-5.53-2.53-3.36-2.02-5.86,1.67-7.62,4.46-2.08,4.92-3.83,1.59-7.08-2.78-2.88-2.48-4.39,2.68-13.74,1.04-1.76.67-3.01-1.64-5.55-2.18-2.4-3.42-5.93-4.33-12.57-1.29-8.76-1.49-9.29-5.28-10.79-3.51-1.5-3.82-1.98-3.09-4.59,1.23-4.16.54-4.95-4.89-4.88-4.17,0-5-.22-6.17-2.35-.73-1.34-1.92-2.6-2.52-2.79-.6-.19-1.17-1.98-1.19-3.98-.14-4.31-1.06-4.7-6.29-2.57-4.92,2.03-4.94,1.96-7.56-1.84-2.5-3.61-5.67-4.69-9.59-3.54-2.69.8-3.05.64-4.11-1.97-1.3-3.07-5.69-5.04-6.64-2.97-.3.66-1.05,2.7-1.68,4.39-1.57,4.33-4.81,3.78-7.44-1.05-2.05-3.69-8.06-7.41-8.32-5.12-.02.66,0,2.94.18,5.08.29,5.02-1.94,6.68-4.69,3.43-1.02-1.27-1.69-2.72-1.51-3.32.58-1.8-2.23-7.25-4.04-7.83-2.06-.66-2.64,1.43-1.31,4.42,1.27,2.87-3.03,13.06-5.54,13.21-1.83.08-8.19-5.55-7.74-6.93.19-.6-.7-1.36-1.82-1.72-4.47-1.43-3.54,4.84,1.2,8.72,4.04,3.09,2.93,7.77-2.19,9.83-2.5,1-5.07,3.12-6.16,5.05-1.79,3.22-3.34,4.24-6.15,3.82-5.76-.98-7.43,2.18-2.79,5.18,2.45,1.54,3.24,2.93,3.28,6.07.06,4.85-2.58,7.8-5.29,5.9-2.25-1.57-6.33-1.55-6.46.03-.13.71-1.43,1.53-2.83,1.75-1.52.28-3.7.9-4.9,1.38-2.51,1-3.58,3.5-3.28,7.58.08,1.54.12,4.97.1,7.71-.15,7.91,14.09,22.41,16.04,16.3.63-1.98,4.35-1.17,5.82,1.38.79,1.39,2.63,2.73,4.07,3.01,2.95.56,3.51,1.78,2.42,6.08-1.28,4.9-.17,6.49,5.04,7.39,6.84,1.14,7.75,3.04,3.41,6.87-2.66,2.38-3.13,3.27-2.02,3.63,1.55.49,6.72-4.11,7.54-6.7,1.79-5.59,6.69,2.52,5.08,8.45-1.72,6.28-1.78,6.45.55,7.19,1.12.35,3.51-.59,5.45-2.24ZM269.51,199.09c.22-.69.95-1.21,1.47-1.05.6.2,1.79-.85,2.74-2.35.95-1.49,2.64-3.52,3.8-4.47,2.83-2.32,3.33-18.47.49-19.38-.43-.14-2.55-2.42-4.53-5.14-3.69-4.78-3.92-4.94-9.93-5.44-3.31-.3-7.55-.7-9.29-.88-3.04-.31-6.1,1.56-13.92,8.26-5.54,4.87-3.42,24.7,3.02,28.27,10.48,5.81,24.6,7,26.14,2.18ZM225.14,181.24c-2.21-.8-4.15-.95-4.34-.34-.39,1.2,1.16,1.7,5.42,1.73,2.57-.03,2.51-.15-1.08-1.39ZM213.81,162.08c.19-.6-.88-1.42-2.42-1.91-1.46-.47-2.81-.42-3,.18-.19.6.85,1.5,2.31,1.97,1.55.49,2.92.36,3.11-.24ZM670.61,155.73c-.41-.8-.54-2.17-.27-3.03,2.5-7.83-12.54-13.58-18.43-7.02-7.54,8.49-.24,21.26,10.58,18.54,4.72-1.15,9.35-6.12,8.11-8.5ZM559.81,264.26c-8.62.59-15.43,2.11-15.15,3.43.44,1.38,1.77,1.62,3.45.76,1.47-.76,3.85-1.06,5.29-.6,1.28.41,7.31.22,13.13-.39,16.87-1.65,10.74-4.48-6.72-3.2ZM220.66,291.58c-1.23-.02-2.78-.22-3.49-.35-.89-.19-.94-.02-.11.63.58.57,2.16.71,3.49.36,2.2-.59,2.19-.63.1-.63ZM262.6,299.46c-.41-.79-1.62-1.46-2.79-1.36-2.51.15-3.01,3.78-.65,5.01,2.1,1.15,4.55-1.48,3.44-3.65ZM216.34,269.16c.91-2.84-.78-4.99-3.86-4.83-3.2.21-3.03,4.72.19,6.22,2.42,1.06,2.95.85,3.67-1.39ZM580.6,278.86c.57,1.1,2.8,2.01,4.96,1.81,2.35-.21,1.93-1-1.15-2.21-2.71-.86-4.38-.7-3.81.4ZM569.73,250.93c2.68-2.32,0-3.04-6.83-1.73-3.38.65-5.84,1.48-6.04,2.09-.58,1.83,10.63,1.57,12.87-.36ZM467.11,199.41c-.71,2.21.15,4.3,2.08,4.92,1.93.61,3.85.31,4.11-.52.26-.83-.86-3.01-2.44-4.72-1.57-1.72-3.14-1.61-3.75.32ZM647.68,201.5c-.31.95-1.07,1.56-1.59,1.4-.6-.2-.95-.88-.79-1.39.19-.6.95-1.21,1.67-1.36.63-.18,1,.41.71,1.36"/>
  </g>
  <g class="cls-2">
    <path class="cls-7" d="M57.14,256.98c1.54,1.99,2.8,4.33,2.8,5.06,0,.9.99,1.27,2.71.9,1.53-.27,3.43-.08,4.24.45,10.47,6.6,18.43-13.28,9.3-23.03-9.21-9.93-27.28,5.87-19.06,16.62ZM101.31,212.18c-1.9-16.62-16.98-21.95-25.83-9.12-3.97,5.69-2.08,20.68,2.62,20.68.54,0,1.08.81,1.08,1.8,0,1.81.09,1.81,7.86,0,.9-.18,2.26.09,2.98.64,3.34,2.61,12.02-8.13,11.29-14ZM116.91,108.13c.64-1.17,1.54-2.35,1.9-2.71,3.71-3.07,1.54-12.65-3.7-15.99-2.08-1.35-3.25-3.34-3.79-6.5-2.08-12.73-19.78-11.83-19.69.99,0,4.7.72,6.05,4.16,7.86,2.07,1.08,2.53,2.16,2.34,6.05-.27,5.15,2.51,10.73,5.96,12.02,4.13,1.53,11.65.54,12.82-1.72ZM.51,154.11c-.45.45-.09.72.72.72s1.17-.28.72-.72c-.36-.45-1.09-.45-1.45,0ZM128.56,50.59c-2.98,2.26-2.71,10.48.36,12.92,6.05,4.97,16.07-3.07,12.38-9.84-2.35-4.52-8.85-6.05-12.74-3.08ZM9.18,366.9c-5.69,5.69-3.43,18.24,3.34,18.24,1.17,0,2.43.55,2.8,1.18,2.89,4.84,10.75-3.34,10.75-11.29,0-10.2-10.03-14.99-16.89-8.13ZM20.46,272.77c1.19-1.9,0-2.38-2.84-1.18-2.37.95-4.5,2.13-4.5,2.84,0,2.37,5.69.95,7.34-1.66ZM202.92,457.04c.45-.36.45-1.08,0-1.45-.36-.45-.72-.09-.72.72s.36,1.17.72.72ZM231.01,395.35c-.36,0-.54.27-.54.54,0,.36.18.54.54.54.27,0,.54-.18.54-.54,0-.27-.28-.54-.54-.54ZM226.89,273.34c-2.55,0-4.37,2.18-4.37,4.73s1.82,4.38,4.37,4.38,4.73-1.82,4.73-4.38-2.18-4.73-4.73-4.73ZM186.11,349.92c-.18-.18.81-1.9,2.26-3.88,1.35-1.9,2.53-4.34,2.53-5.24s.72-2.26,1.72-3.07c2.34-1.98,2.07-9.3-.64-15.27-1.27-2.8-1.98-5.6-1.63-6.23,1.18-1.81,8.66-4.48,10.84-3.8,1.53.48,2.44-.36,3.7-3.16,2.35-5.15,5.78-8.85,8.49-9.03,1.27-.18,2.53-1.27,2.8-2.62.36-1.27,1.8-2.89,3.34-3.61,5.42-2.44,4.52-8.76-2.08-15.35-2.62-2.61-4.88-8.94-5.51-15.35-.28-3.16-5.69-7.05-8.4-5.96-1.35.55-1.54,0-.9-2.61q1.53-6.59-4.24-7.41c-6.69-.99-8.13-2.17-6.51-5.24,1.35-2.53.63-3.7-2.17-3.7-1.08,0-3.16-1.54-4.61-3.43-5.06-6.59-5.6-6.95-10.74-6.41-3.26.36-5.33,0-6.23-.99-1.35-1.72-4.33-2.08-4.33-.54,0,1.8-7.95,3.97-9.4,2.53-1.9-1.99-2.8-1.54-4.69,2.16-1.45,2.81-2.19,3.2-3.89,2.26-1.1-.61-2.35-.81-2.8-.36-.36.36-.63-.27-.63-1.45,0-1.35,2.35-3.61,6.23-6.14,13.28-8.4,4.33-29.98-11.47-27.64-7.59,1.17-11.2,4.88-11.2,11.83,0,4.88-.27,5.6-2.26,5.6-4.43,0-10.48,6.41-11.29,11.92-2.53,16.71,14.54,24.74,26.1,12.19,1.9-2.08,3.8-3.44,4.24-2.98,1.45,1.45.72,2.71-2.08,3.71-2.17.81-2.8,1.9-2.8,4.52s-.7,3.83-2.89,4.79c-1.52.66-2.8,2.07-2.8,3.07s-.99,2.98-2.08,4.43c-2.53,3.34-1.72,9.48,1.9,14.63,2.17,3.07,2.26,3.61.72,4.43-.99.54-2.17,2.44-2.62,4.24-.72,2.53-1.9,3.52-5.88,4.7-12.01,3.43-12.01,24.02,0,26.1,10.12,1.72,12.46.9,15.81-5.24,1.17-2.26,1.9-2.44,5.87-1.8,2.71.45,5.78.18,7.86-.64,3.88-1.63,4.16-1.44,4.97,2.98.54,2.98.18,3.44-3.97,5.33-3.26,1.53-4.52,2.8-4.52,4.51,0,1.36-.99,3.89-2.08,5.6-1.63,2.44-1.99,4.52-1.54,8.22.45,4.69-.81,6.68-2.62,3.89-.36-.64-1.63-1.18-2.71-1.18-1.17,0-2.62-.64-3.26-1.44-1.71-2.08-7.63-2.22-9.66-.18-2.21,2.21-3.88,2.08-4.33-.27-2.08-10.66-33.6,3.7-31.79,14.54.36,2.17.09,5.06-.54,6.23-.91,1.72-.81,2.8.36,4.43.9,1.18,1.63,2.98,1.72,4.07.09,6.05,4.69,9.93,14.81,12.64,8.22,2.26,9.76,2.17,14.18-.64,7.32-4.42,10.57-8.21,11.29-12.91.36-2.98,1.81-5.51,4.33-7.86,1.99-1.9,4.79-5.96,6.23-9.03,1.53-3.43,2.8-4.88,3.07-3.88.63,2.07,5.82,9.98,8.22,12.55.92.98,3.7,2.13,6.14,2.53,2.52.42,5.08,1.44,5.78,2.35,1.85,2.4,3.16,2.16,6.95-1.45,2.8-2.53,4.24-3.07,7.5-2.71,3.43.45,5.33-.72,3.79-2.26ZM258.73,334.2c.91,2.44,2.08,3.52,4.24,3.79,7.95.99,12.02-3.7,8.67-9.94-4.52-8.4-16.08-2.97-12.92,6.15ZM293.23,179.76c-4.61-2.8-6.51-8.94-3.43-10.74,7.31-4.52,8.49-7.59,3.52-8.94-6.68-1.71-7.59-3.79-3.34-7.41,4.52-3.79,4.52-4.69.27-7.22-1.9-1.08-3.43-2.71-3.43-3.52,0-4.34-2.62-7.59-5.69-6.96-5.06.99-7.95-1.98-7.05-7.41q.72-4.6-4.43-3.79c-4.42.63-5.23.45-5.78-1.27-.99-3.34-1.08-12.01-.09-14.36.81-1.99.63-1.9-1.54.27-1.35,1.35-3.7,2.44-5.24,2.44s-3.8.99-4.97,2.26c-2.62,2.89-4.97,2.08-6.59-2.26-1.44-3.88-4.06-4.42-6.23-1.35-2.44,3.43-4.97,3.71-7.77.72-3.34-3.61-5.15-3.52-7.22.63-1.9,3.53-3.43,3.7-13.91,1.63-1.98-.45-3.07.27-4.78,3.25-1.63,2.8-4.61,5.06-10.66,7.95-7.95,3.88-8.4,4.24-8.67,8.31-.36,3.79-.72,4.24-3.43,4.34-4.34.09-4.88.99-3.16,6.14,1.26,3.98,1.31,4.83-.36,6.59-1.06,1.11-1.9,2.62-1.9,3.26s-1.54,1.72-3.43,2.35c-4.06,1.44-4.16,2.44-.54,6.77,3.43,4.06,3.37,4.1.54,7.77-2.68,3.47-2.74,6.82-.45,10.2,1.58,2.32,1.54,2.71-.63,4.52-2.53,2.17-3.07,6.95-.81,7.22.72.09,2.89.18,4.7.28,4.6.18,5.06,3.43,1.26,7.41-2.89,3.07-4.6,9.93-2.34,9.48.63-.18,2.8-.9,4.78-1.71,4.7-1.81,6.96-.18,4.7,3.43-.9,1.35-2.07,2.44-2.71,2.44-1.9,0-6.23,4.33-6.23,6.23,0,2.17,2.17,2.07,4.61-.09,2.35-2.08,13.37-1.08,14.27,1.27.63,1.72-2.8,9.48-4.24,9.48-.63,0-1.08,1.08-1.08,2.26,0,4.69,5.69,1.9,7.95-3.8,1.71-4.79,6.5-5.15,10.03-.9,1.71,2.08,4.52,3.88,6.68,4.33,3.61.72,5.06,1.9,5.51,4.69.82,5.78,4.34,6.42,5.78,1.09.72-2.8,1.81-3.97,4.79-4.97,4.6-1.54,8.21.09,7.22,3.25-.81,2.62.45,6.51,1.98,6.15.72-.09,1.9.9,2.53,2.17.72,1.35,1.98,3.25,2.8,4.24,1.71,2.08,4.42,2.34,8.21.81,1.45-.54,4.7-1.63,7.32-2.44,7.59-2.26,17.07-20.23,10.66-20.23-2.07,0-2.44-3.79-.45-5.96,1.09-1.18,1.81-3.34,1.63-4.79-.36-2.98.63-3.88,5.06-4.15,5.06-.27,6.23-1.81,5.51-7.05-.99-6.86.54-8.31,5.51-5.33,3.07,1.81,4.07,1.98,4.07.81,0-1.63-5.96-5.15-8.67-5.15-5.87,0,.36-7.14,6.51-7.41,6.5-.27,6.68-.27,6.68-2.71,0-1.18-1.63-3.16-3.79-4.52ZM220.53,395.35c-.72,0-1.45-.54-1.45-1.08,0-.64-1.35-1.45-3.07-1.9-1.72-.45-4.16-1.44-5.42-2.26-3.07-1.99-18.61,2.44-18.61,5.42,0,.45-1.54,3.17-3.52,5.88-3.43,4.96-3.52,5.23-2.17,11.11.72,3.25,1.63,7.41,1.98,9.12.64,2.98,3.34,5.33,12.1,10.75,6.32,3.79,24.57-4.25,26.01-11.47,2.35-11.74-.81-25.56-5.87-25.56ZM217.01,443.04c-.09,2.34.36,4.24.99,4.24,1.27,0,1.27-1.63,0-5.69-.81-2.44-.9-2.34-.99,1.45ZM202.19,459.66c-.63,0-1.08,1.27-1.08,2.89,0,1.54.45,2.8,1.08,2.8s1.17-1.26,1.17-2.8c0-1.63-.54-2.89-1.17-2.89ZM57.3,26.4c-.63.63-1.9,1.17-2.8,1.17-8.22,0-9.13,16.08-1.09,19.69,10.39,4.61,20.32-6.23,14.45-15.71-2.53-4.16-8.67-7.05-10.57-5.15ZM194.38,98.96c3.18,8.04,6.7,14.06,7.87,13.4,1.17-.83,1.01-2.18-.34-3.52-1.17-1.17-2.18-3.35-2.18-4.86,0-1.34-2.01-7.03-4.35-12.39-6.7-15.57-7.54-8.88-1.01,7.37ZM323.49,413.77c.36,1.18.63,2.71.72,3.43.09.91.27.91.63-.09.36-.72.02-2.27-.72-3.43-1.23-1.92-1.27-1.9-.63.09ZM318.25,371.41c-.63.64-.9,1.99-.45,3.07.91,2.35,4.52,1.71,4.97-.91.45-2.34-2.8-3.88-4.52-2.17ZM303.44,424.7c-2.98,0-4.52,2.26-3.43,5.15,1.18,2.98,5.42,1.44,5.87-2.08.27-2.62-.09-3.07-2.44-3.07ZM201.96,74.72c.88-.88,1.06-3.28.22-5.27-.92-2.18-1.54-1.54-1.76,1.76,0,2.86.66,4.4,1.54,3.52ZM178.66,93.57c-3.02-1.85-2.9.92.43,7.03,1.64,3.02,3.19,5.12,3.83,5.12,1.92,0-1.73-10.6-4.26-12.15ZM160.77,206.99c2.31,0,4.05-1.45,4.05-3.48s-.87-3.76-1.74-3.76-2.6,1.73-3.76,3.76c-1.16,2.03-.58,3.48,1.45,3.48ZM107.87,34.34c.99,0,1.81.55,1.81,1.09,0,.63-.54,1.17-1.08,1.17-.64,0-1.44-.54-1.81-1.17-.36-.54.09-1.09,1.08-1.09"/>
  </g>
  <g class="cls-4">
    <path class="cls-6" d="M335.53,330.29c.44,1.52,1.91,2.32,3.05,1.99,1.52-.44,1.95-1.8,1.5-3.32-.33-1.14-1.42-2.07-2.94-1.63-1.14.33-1.94,1.81-1.61,2.95ZM340.68,313.9c-1.65,2.74-1.43,4.46.92,5.76,4.26,2.34,8.16-2.36,5.6-6.61-1.71-2.98-4.33-2.6-6.52.85ZM342.73,296.22c-.68,1.65.43,2.49,2.84,1.79,2.67-.78,3.16-2.08,1.7-3.11-1.65-.68-3.52-.14-4.54,1.32ZM384.66,387.08c-.26-.88-2.58-2.49-5.38-3.21-3.04-.78-3.47.06-1.24,2.27,3.82,3.33,7.47,3.86,6.62.94ZM416.51,305.26c-2.95.85-2.85-3.69.02-6.12,4.55-3.77,1.21-11.07-3.92-8.65-3.56,1.69-4.23-5.17-.7-7.6,4.91-3.49,4.13-11.73-1.19-11.88-2.37-.07-6.18,3.02-5.72,4.57.78,2.69-3.21,3.19-7.44.94-3.78-2.01-4.46-2.74-3.9-4.7,2.15-7.49-6.43-9.52-13.43-3.16-2.37,2.2-6.11,4.22-9.49,5.2-3.03.88-5.76,2.15-5.94,2.85-.65,2.47-2.6.76-3.62-3.08-1.06-4.31-1.08-4.39-4.66-4.39-3.68-.06-4.48,4.31-1.52,8.06,3.95,4.87-.05,19.95-6.48,24.35-1.82,1.18-1.79,1.27.49.7,2.54-.65,2.84.4,1.86,6.42-.4,2.18.02,3.29,1.54,4.63,1.13.99,2.04,3.17,2.2,5.01.15,2.12.9,3.41,2.33,4.12,8.38,3.59,11.04,6.95,9.42,12.04-2.03,6.32-1.51,7.77,3.16,8.3,4.39.52,6.16-.47,8.55-4.55,1.71-2.84,14.18-7.87,15.86-6.29,1.52,1.34,4.45-.54,7.27-4.75,3.26-4.98,4.45-5.59,8.94-4.19,3.35,1.04,8.21-1.54,7.48-4.05-.18-.61,1.2-2.33,3.04-3.8,4.43-3.54,1.17-11.53-4.13-9.99ZM264.39,408.21c.89,3.05,2.64,4.02,3.5,1.92,1.21-2.18.52-4.56-1.67-5.77-1.75-.96-2.72.79-1.83,3.85ZM227.73,416.49c-.19-.66-1.04-1.13-1.69-.94-.88.26-1.12,1.04-.93,1.69.26.88.88,1.4,1.76,1.15.65-.19,1.11-1.03.86-1.91ZM226.69,422.7c-.19-.65-1.04-1.12-1.91-.87-.66.19-1.12,1.04-.93,1.69.25.88,1.09,1.34,1.75,1.15.87-.26,1.34-1.1,1.08-1.97ZM308.01,451.89c6.96,12.97,14.29,22.78,15.86,21.97,2.88-1.47-21.7-42.45-26.59-44.24-.92-.52,3.64,9.71,10.73,22.27ZM311.98,266.83c1.08,3.73,8.91,3.81,9.94.22.41-1.53-5.52-4.47-8.55-4.2-2.1.2-2.32.77-1.39,3.98ZM360.44,134.01c.08.26.41.44.67.36.35-.1.45-.41.37-.67-.07-.26-.32-.46-.67-.36-.26.07-.44.41-.37.67ZM364.45,131.62c.1.35.44.53.7.46.35-.1.53-.44.43-.79-.08-.26-.41-.45-.76-.35-.26.08-.44.42-.37.68ZM362.16,347.45c-.43.78-5.32-.53-18.7-4.83-3.95-1.3-5.29-1.38-4.4-.23.63.85,1.28,1.79,1.35,2.06.07.26,1.08.15,2.21-.18,2.43-.7,7.45,3.02,6.83,5.07-.7,2.46-3.31,2.19-6.86-.64-1.85-1.53-3.92-2.81-4.43-2.95-.57-.02-3.44-1.17-6.48-2.54-6.77-2.92-7.92-2.68-10.83,2.86-2.82,5.52-3.19,4.88,5.88,10.23,4.28,2.43,8,5.21,8.25,6.07.28.96-2.23.08-5.75-2-8.02-4.63-9.43-3.66-7.02,4.67q1.84,6.33-2.15,7.49c-4.63,1.24-5.58,4.44-3.46,10.78,1.58,4.81.39,6.85-3.65,6.23-1.77-.24-3.33-1.1-3.56-1.89-.22-.78-2.3-2.43-4.63-3.64-8.73-4.52-28.4,4.85-22.64,10.8,4.95,5.06,3.6,15.32-1.55,12.49-.45-.25-1.2-1.54-1.58-2.83-1.06-3.65-6.92-11.54-8.33-11.22-4.01.79-6.85,2.65-8.6,5.69-2.97,5-6.31,5.5-9.52,1.54-3.68-4.58-6.67-4.65-13.54-.96-1.3.69-3.82,1.1-5.64.97-4.24-.36-12.38,2.09-14.76,4.56-.51.53-1.96,1.64-3.41,2.5-1.36.8-3.22,3.47-4.09,5.98-1.57,4.31-4.01,6.61-4.66,4.36-.18-.6,2.44-6.16,5.72-12.38,5.34-10.11,6.63-15.74,2.85-12.86-.77.6-1.69.02-2.4-1.46-1.34-3-6.29-1.57-8.85,2.56-3.23,5.08-3.84,5.26-4.96,1.06-.52-2.1-.59-3.97-.07-4.12,4.42-1.28-3.67-14.26-9.41-14.95-3.22-.38-15.66,6.99-16.45,9.76-.56,1.95-2.32,1.71-2.98-.55-.35-1.21.07-2.37,1.02-2.65.86-.25,1.46-.8,1.31-1.32-.13-.43,2.07-3.23,4.7-6.16,6.07-6.65,3.79-20.66-3.07-19.33-7.11,1.41-12.97,3.57-16.54,6.21-7.06,5.15-13.08,7.74-13.64,5.83-.3-1.04,2.09-2.86,7.89-5.86,6.04-3.16,8.75-5.32,10.15-7.83,1.08-1.96,2.6-3.67,3.38-3.9,2.6-.76,4.14-7.79,2.85-12.86-1.52-5.86-2.75-7.2-5.87-6.29-7.66,2.13-9.38-5.74-1.99-8.83,6.19-2.64,6.16-2.44,3.1-8.42-1.72-3.35-2.3-5.64-1.8-6.53,1.63-2.82-.71-6.66-5.53-9.02-8.55-4.2-7.45-6.87,3.24-8.28,6.24-.87,6.73-1.1,7.7-3.93,2.06-5.86,3.51-12.86,2.98-14.69-1.13-3.91.96-6.77,4.78-6.56,6.7.41,9.3-4.58,7.47-14.11-.84-3.89,1.96-5.55,6.5-3.86,4.62,1.67,9.29-.72,11.05-5.65.48-1.27,1.61-2.54,2.4-2.77.86-.25,1.49-1,1.32-1.61-.55-1.91,3.58-2.26,6.22-.58,4.8,2.93,12.87-2.32,11.39-7.44-.78-2.69,3.76-3.2,5.94-.59,1.06,1.27,2.27,1.97,2.68,1.48.45-.42,1.35-.21,1.97.65.63.85,2.07,1.29,3.11.98,2.08-.6,2.45-1.28,4.99-7.74,1.73-4.73,4.68-3.33,6.59,3.26,1.56,5.38,2.67,5.62,17.44,5.01,9.76-.39,13.6-13.07,5.08-16.52-10.1-4.03-11.77-4.58-13.24-4.16-1.91.55-6.55-2.14-5.78-3.4.96-1.88,3.44-1.75,6.67.32,6.72,4.35,9.65,4.01,11.86-1.28,1.09-2.6,2.56-4.79,3.26-4.99.69-.2,1.81-2.5,2.55-5.16.73-2.66,1.52-5.14,1.88-5.53,1.88-2.61,1.47-6.26-1.08-9.56-2.79-3.42-3.35-6.68-1.25-7.54.68-.27,1.66-.76,2.22-1.11.58-.26,1.92-.83,2.93-1.22,2.27-.94,1.5-3.91-1.59-5.84-2.63-1.59-.84-7.75,2.45-8.7,2.26-.66,3.94-4.91,2.79-6.93-.75-1.29-.39-2.61,1.55-4.4,2.37-2.19,2.4-2.77.82-4.94-2.58-3.39-2.56-3.3.57-4.21,1.56-.45,2.81-1.66,2.9-2.63.14-2.11,4.23-3.58,6.38-2.32,1.09.53,1.92-.18,2.88-2.71.88-1.85,1.83-3.07,2.45-2.59.52.51,2.01-.21,3.59-1.89q2.68-2.75,7.7.3c4.63,2.98,6.59,3.26,14.08,1.84,1.53-.26,4.6-.68,6.81-.84,4.16-.27,9.6-2.88,15.27-7.35,2.83-2.23,3.41-2.38,5.15-1.02,1.07.83,3.33,1.1,5.24.55,1.73-.5,4.02-.42,4.96.26,1.03.64,3.09.93,4.81.68,2.52-.39,3.33.16,5.33,3.81,1.34,2.34,2.9,4.15,3.59,3.94,3.65-1.06,6.94,2.51,8.25,8.99.75,3.54,1.95,8.18,2.6,10.24.83,2.68.69,4.97-.58,7.41-1.02,1.99-1.72,4.93-1.66,6.59.06,1.69-.65,3.29-1.48,3.63-.84.34-2.01.86-2.59,1.13-.56.35-1.37.78-1.86,1.01-.58.27-1.11,2.02-1.36,4.06-.34,3.02-.85,3.54-3.41,3.81-8.55.69-12.48,2.68-11.13,5.4,2.6,5.07,5.3,7.58,8.08,7.43,4.47-.17,6.45,1.8,8.16,8.35,1.49,5.49,1.96,6.11,7.16,9.11,5.15,2.83,5.7,3.43,6.14,7.53q.54,4.45,4.96,3.17c3.56-1.04,5.12-.83,8.21,1.09,2.18,1.34,4.43,2.29,5.13,2.09,5.64-1.64,12.56,14.79,9.57,22.61-3.26,8.56-4.1,9.84-7.14,10.72-1.65.48-3.8,2.21-4.79,3.93-1.77,3.1-1.72,3.13-4.94,1.43-1.77-.9-4.32-1.29-5.63-.91-1.3.38-4.83-.63-8.02-2.38-4.88-2.66-6.2-2.9-10.17-1.66-2.5.78-6.32,1.55-8.59,1.83-3.84.36-4.14.64-4.54,4.14-.23,2.13-1.21,4.58-2.16,5.52-.95.93-1.36,2.74-1.07,4.07.5,1.73-.81.8-4.32-2.89-5.39-5.59-6.07-5.67-10.69.09-3.28,3.95-11.29,4.87-12.32,1.31-.7-2.43-4.94-.17-6.36,3.35-.77,1.92-2.14,3.35-3.08,3.34-2.22-.2-6.19,3.3-6.39,5.52-.3,3.19,1.55,3.41,9.7,1.04,4.43-1.28,8.19-1.91,8.37-1.3.15.52-2.96,1.8-7.37,2.79q-7.73,1.87-6.53,6.03c2.01,6.94,7.77,7.34,18.1,1.15,1.52-.91,3.14-1.19,3.68-.6,1.49,1.26-1.88,4.21-4.97,4.27-3.09.05-5.09,2.89-5.64,8.12-.49,3.81-.77,4.17-4.44,4.48-4.56.48-5.45,3.27-3.31,10.65.66,2.25.76,5.51.31,7.24-2.03,8.58,4.31,15.49,18.45,19.85,13.27,4.24,15.92,5.26,15.33,6.18ZM430.62,287.87c3.92-.39,8.43-1.92,9.68-3.84,5.16-5.91-1.48-6.82-9.11-1.24-6.09,4.45-6.25,5.66-.57,5.09ZM224.63,436.79c.83-2.84,1.25-6.28.81-7.8-.38-1.32-1.56-.49-2.39,2.35-.68,2.56-1.1,5.99-.66,7.52.44,1.52,1.56.49,2.24-2.07ZM228.99,458.3c-.55,2.98-.73,6.23-.46,7.19.6,2.08.17,10.22-.51,11.53-.65,1.24.79,6.66,2.03,7.31,1.64.86,2.18-.92,1.97-6.5-.05-3.09-.1-9.09-.04-13.43.06-10.18-1.63-13.73-2.99-6.09ZM257.84,147.89c-.78-.05-3.81-.93-6.72-1.95-2.98-1.07-5.94-1.78-6.56-1.58-2,.65.9,2.16,7.27,3.7,3.41.84,6.51,1.78,7,2.18.48.41,2.18.77,3.79.81,2.96.12-1.41-2.82-4.78-3.16ZM403.9,184.07c.92-1.67.4-3.49-1.29-4.42-1.34-.74-2.08.6-1.4,2.95.68,2.34,2.03,3.08,2.69,1.47ZM419.09,179.98c-2.12-.51-3.97.88-4.75,3.07-.59,1.86,1.17,3.04,4.03,2.21,5.73-1.66,5.98-3.71.72-5.29ZM198.96,480.55c.23.8-.42,2.59-1.54,4.23-1.03,1.46-1.48,3.92-1.01,5.53.72,1.97,1.27,1.38,2.56-2.2,2.6-7.58,6.99-28.05,6.12-28.52-1.04-.57-6.67,19.09-6.13,20.96ZM206.07,454.93c.35,1.21,1.04,1.59,1.42.9.48-.87.17-1.94-.66-2.28-.73-.52-1.11.18-.77,1.38ZM184.43,429.92c-3.34,5.44-6.12,10.48-5.99,10.9.54,1.85,3.47-.34,5.46-4.27,5.58-10.78,5.83-15.32.53-6.64ZM223.86,448.83c.43-1.78-.39-2.96-2.14-2.46-1.52.44-2.45,2.14-2.01,3.66.44,1.53,1.2,2.49,2.07,2.23.65-.19,1.43-1.59,2.08-3.44ZM158.31,399.28c1.02-4.22-8.7,3.36-12.81,9.89-1.69,2.69-4.44,5.23-6.08,5.49-3.73.58-12.39,11.03-11.88,14.29.8,5.14,29.26-22.51,30.77-29.68ZM148.56,198.33c.74,2.54,2.19,3.34,3.28,1.81.71-1.74.06-4-1.39-4.79-1.82-1.01-2.62.45-1.89,2.98ZM110.85,289.87c2.45-.71,3.85-2.77,3.23-4.92-.63-2.15-2.08-3.72-2.99-3.45-.92.27-2.23,2.65-2.83,5.15-.6,2.5.45,3.85,2.59,3.22ZM178.3,236.82c-1.21,2.17.55,3.49,4.78,2.27,3.81-1.1,4.58-3.16,2.41-4.35-2.73-1.51-5.69-.65-7.19,2.09ZM261.87,204.63c3.66-.09,4.42-.34,5.98-2.39,3.08-4-.35-8.36-5.39-6.9-4.94,1.43-5.52,9.42-.59,9.29ZM432.6,208.71c-1.14-.42-7.13,4.88-6.66,5.76.63,1.2,1.63.57,4.79-2.73,1.42-1.57,2.24-2.92,1.88-3.03ZM317.72,102.9c.34,1.19,1.47,2.14,3.06,1.68,1.19-.34,2.03-1.88,1.69-3.06-.34-1.19-1.88-2.03-3.06-1.68-1.58.46-2.03,1.88-1.68,3.06ZM502.03,274.9c.47.34.31.76-.56,1.01-.78.23-1.14-.05-.92-.58.33-.47.94-.65,1.47-.43"/>
  </g>
  <g class="cls-3">
    <path class="cls-7" d="M378.22,205.05c-1.12-1.12-3.27.65-2.52,1.96.56.84,1.21.84,2.05,0,.66-.74.93-1.58.47-1.96ZM329.51,207.2c0-2.61-2.24-4.29-2.24-1.77,0,1.4.46,2.61,1.12,2.61s1.12-.38,1.12-.84ZM312.05,168.93c0-.93-.56-1.77-1.12-1.77-.65,0-1.21,1.11-1.21,2.42s.56,2.05,1.21,1.68c.56-.37,1.12-1.49,1.12-2.33ZM428.52,382.08c-.24,1.59-1.77,3.36-3.92,4.29-3.17,1.49-5.42,3.92-5.88,6.25-.09.47-.28,1.13-.38,1.41-.09.28-1.86,0-3.92-.56-3.08-.93-4.39-.65-7.09,1.31-2.15,1.59-4.29,2.24-5.97,1.77-1.49-.37-4.76.09-7.19.93-2.52.93-4.01,1.78-3.45,1.78,1.13.09-3.92,4.1-5.13,4.2-.37,0-1.4.56-2.33,1.12-1.03.65-4.95,1.21-8.78,1.31s-9.52.56-12.6,1.03c-4.76.74-5.41.66-4.85-.84.47-1.31-.28-2.05-2.89-2.61-4.01-.84-10.55.19-10.55,1.77,0,1.68-7.37,3.36-11.29,2.62-2.61-.47-5.51-5.6-4.85-8.59.28-1.12-.66-1.68-2.8-1.68-6.34,0-9.43-4.85-6.16-9.52,1.59-2.33,1.59-2.61-.56-3.27-1.3-.38-2.24-1.13-2.24-1.59.38-2.15-.28-3.73-1.12-3.17-.56.28-2.02-1.23-3.17-3.45-1.72-3.3-3.17-4.3-6.63-4.85-7-1.12-11.95-10.82-5.6-10.82,2.24,0,2.33-4.57.19-9.43-1.31-2.8-1.96-5.6-1.59-6.25.38-.56.01-.64-.74-.19-.65.39-1.31.19-1.31-.56,0-.84-.92-1.09-2.33-.75-1.3.31-2.06.09-1.77-.38.35-.57-.28-1.68-1.4-2.52-1.12-.84-2.15-2.52-2.24-3.83-.56-6.53-1.61-12.49-2.24-13.53-.39-.64.65-2.61,2.43-4.39,2.7-2.61,2.98-3.73,2.42-7.65q-.74-4.57,3.92-3.92c2.61.38,4.48.19,4.1-.28-1.03-1.77,2.33-6.53,4.3-6.16,3.08.65,3.82-2.05,1.12-3.92-2.9-2.05-3.27-3.92-.75-3.92,1.12,0,1.68-1.03,1.49-2.98-.19-2.7-2.05-4.29-2.05-1.77,0,.66-.75.84-1.59.46-1.4-.46-1.68-2.52-.66-5.04.1-.38.1-1.12,0-1.77-.18-.66.38-.56,1.22.28,2.7,2.61,4.94,1.49,12.32-6.34,7.84-8.21,8.84-10.66,5.04-11.67-1.31-.35-2.24-1.21-2.15-1.96.09-.74-.19-2.8-.74-4.67-.56-1.96-.48-3.74.28-4.48,1.65-1.61,8.4,0,8.4,2.05,0,.84.47,1.86,1.03,2.15.56.37.74-.66.47-2.24-.66-3.27,2.74-4.18,3.92-1.12,1.16,3.01,3.45,1.96,6.16-2.89q2.61-4.57.19-7c-1.4-1.4-2.33-3.92-2.33-5.97,0-3.08-.38-3.54-2.43-3.08-1.21.37-2.33.19-2.33-.46,0-.56.56-1.03,1.21-1.03,2.15,0,1.21-4.48-1.21-6.16s-2.43-1.68,0-2.33c3.73-.93,2.99-4.29-.94-4.29-3.64,0-7.18,3.08-7.18,6.34,0,1.12-.93,2.8-2.05,3.55-1.86,1.4-1.86,1.68.19,3.92,2.71,2.98,1.21,3.27-1.96.46-2.15-1.96-2.34-1.96-3.83.09-.84,1.21-2.05,1.86-2.71,1.4-.65-.38-1.48-.18-1.86.46-.45.76-1.49.66-2.98-.28-1.59-1.02-2.61-1.02-3.55-.09-.93.93-1.96.56-4.01-1.49-1.58-1.58-3.55-2.43-4.57-2.06-1.03.38-1.86.1-1.86-.56,0-.74-.74-1.3-1.78-1.3-1.3,0-1.58-.66-1.03-2.43.56-1.77.09-2.52-1.68-3.07-1.96-.47-2.52-1.5-2.52-5.04s-.46-4.67-2.52-5.23c-2.15-.74-2.23-.93-.56-1.96,2.24-1.21,2.7-4.48.65-4.48-.84,0-.93-.47-.18-1.4,1.3-1.87,1.21-3.64-.66-10.08-1.68-5.79-1.03-8.86,1.68-7.84,1.02.38,2.52,0,3.27-.84,1.68-1.58,3.08-10.17,1.77-10.17-.38,0-1.03-2.15-1.4-4.76-.37-2.7-1.77-6.34-3.08-8.12-2.7-3.73-2.98-4.57-1.21-4.57.66,0,1.49.93,1.96,2.06.38,1.12,2.43,4.48,4.57,7.56,2.15,3.08,3.92,6.25,3.92,7,0,.84-.56.56-1.31-.56-.65-1.12-1.68-2.05-2.43-2.05-.84,0-.85.48,0,1.49.64.76,1.49,3.54,1.78,6.06.37,2.61.74,4.76.74,4.85.09,0,2.43-.47,5.41-1.12,4.3-1.03,5.47-.91,6.34.47.72,1.14,2.9,1.58,6.81,1.49,4.02-.09,5.97.28,6.44,1.49.38.84,1.59,1.59,2.71,1.49,1.77-.09,1.77-.18-.28-1.03q-2.24-.83.19-1.68c1.49-.46,2.7-2.05,3.08-3.92.38-1.77,1.03-4.1,1.49-5.22.56-1.58.18-2.05-1.78-2.05-1.4,0-2.24-.47-1.86-1.12.38-.66,1.49-.84,2.52-.47.93.38,2.42-.28,3.35-1.49,2.43-3.17,2.15-4.2-.74-2.71-1.86,1.03-3.55,1.03-6.91-.09-5.22-1.68-8.03-.93-8.03,2.33,0,2.89-2.33,3.17-2.52.38,0-1.12-.18-3.17-.37-4.39-.09-1.31-.28-3.83-.47-5.51-.09-2.33-.66-3.01-1.96-2.52-.94.35-1.68.09-1.68-.56s-1.11-1-2.33-.74c-5.48,1.14-7.84-7.09-2.71-9.33,1.49-.65,2.71-2.05,2.71-3.17,0-1.21.46-2.15,1.21-2.15.66,0,.84-.56.38-1.3-.56-.94-.18-1.15,1.12-.66,2.82,1.07,4.02-2.61,1.49-4.39-2.43-1.78-2.43-2.99-.19-2.99,1.03,0,1.77.56,1.77,1.21s.75,1.12,1.78,1.12c.93,0,1.68-.74,1.68-1.68,0-1.03-.46-1.78-1.12-1.78-9.42,0-9.89-20.53-.56-22.86,9.43-2.33,15.49,4.57,13.99,15.86-.84,6.26-.56,6.53,6.07,5.97,1.96-.19,2.46.29,1.96,1.58-.44,1.14-.09,1.78,1.13,1.78.93,0,2.05,1.03,2.52,2.33.38,1.31,1.49,2.33,2.52,2.33,1.21,0,1.59.75,1.21,2.33-.38,1.21.09,2.8.93,3.45,1.4,1.31,1.59,7.56.19,9.05-.47.38-.74,1.59-.74,2.71s-.84,2.71-1.87,3.45c-1.4,1.21-1.49,1.78-.28,2.52,2.8,1.77,5.6,1.12,5.6-1.4,0-1.22.74-2.33,1.77-2.33.93,0,1.77.83,1.77,1.77,0,2.43.94,2.24,3.27-.56,1.4-1.68,2.42-2.05,3.73-1.12,1.49,1.03,1.52,1.33-.09,2.61-3.59,2.86-3.45,5.13.56,8.31,2.8,2.24,3.7,3.72,3.27,5.51-.41,1.67.09,2.52,1.86,2.98,2.99.74,2.99.28.56,5.79-3.64,8.59-1.59,18.76,2.52,12.13.93-1.49,10.92-5.88,13.34-5.88s4.76,2.23,4.76,4.85.66,2.71,4.39-.19c3.73-2.98,10.08-2.98,14.28,0,1.77,1.21,3.55,1.96,3.92,1.49.38-.37.75-.09.75.66s.56,1.31,1.21,1.31c.56,0,1.12-.84,1.12-1.96,0-1.68.19-1.78,1.12-.37,1.4,2.23,5.13,2.71,4.29.56-.93-2.33,4.34-2.21,6.25.09,1.1,1.32,1.87,1.4,3.08.46,1.49-1.21,2.06-.65,1.78,1.59-.09.46.66.83,1.59.83,1.12,0,1.68.84,1.49,2.06-.28,1.58.56,2.14,3.73,2.43q4.01.37,1.21,2.52c-2.33,1.78-2.61,2.43-1.4,3.83,1.12,1.31,1.12,2.05.09,2.61-.65.47-1.03,2.06-.74,3.64.28,1.49.09,2.71-.47,2.71s-1.03.84-1.03,1.77c0,1.03-1.03,1.78-2.24,1.78-1.68,0-2.01.64-1.58,2.61.42,1.95.3,2.22-.56,1.03-1.45-1.99-4.2-.56-3.27,1.78.56,1.49-1.59,1.49-7.18-.19-.75-.28-1.59.19-1.78.93-.38,1.03-1.01,1.01-2.43-.19-1.47-1.23-2.33-1.3-3.55-.28-1.31,1.12-1.72.73-2.33-1.49-.43-1.6-1.86-3.27-3.17-3.64-1.77-.56-2.24-1.49-1.86-3.08.46-1.78.19-2.15-1.12-1.68-1.03.37-2.52.65-3.36.65s-1.78.93-2.05,2.05c-.56,1.96-.6,1.96-.75,0-.12-1.58-1.12-2.05-4.94-2.05-4.39,0-4.67.18-3.18,2.05,3.08,3.92,4.39,4.95,6.07,4.95.93,0,2.05.84,2.43,1.86,1.03,2.71.84,4.01-.56,4.01-.65,0-2.42,1.31-4.01,2.99-3.45,3.73-2.71,6.63,1.49,5.59,2.43-.65,2.9-.46,2.24,1.13-.38,1.12-.28,1.96.28,1.96s1.31-.84,1.77-1.96c.66-1.68.84-1.68,2.33.28.94,1.21,1.41,2.8,1.03,3.46-.28.65.56-.09,1.86-1.59,1.31-1.59,2.43-2.24,2.43-1.49s.65,1.21,1.4,1.03c.84-.19,1.68.84,1.86,2.33s.93,2.33,1.49,1.96c.56-.38,1.12-.1,1.12.46,0,.66,2.15,1.03,4.85.84,2.8-.28,6.54.38,8.78,1.49,4.57,2.15,6.06.93,6.16-4.67,0-1.87,1.49-4.66,3.73-6.99,2.05-2.15,3.55-4.85,3.36-6.07-.19-1.31.19-1.87.93-1.4.75.47,1.31.38,1.31-.19,0-.46,1.21-1.03,2.61-1.21,1.49-.19,5.42-.56,8.78-.93,3.45-.47,6.8-.27,7.56.38,1.47,1.24,5.22,1.11,12.6-.38,5.97-1.12,7.74,1.31,5.79,8.12-1.4,5.13-.74,9.89,1.59,11.47.93.66.85,1.24-.28,1.96-.92.58-1.31,1.77-1.03,2.8.38.94.09,2.71-.66,3.83-.84,1.21-1.55,3.73-1.77,5.6-.24,1.97-1.68,4.48-3.17,5.69-1.59,1.21-2.8,2.99-2.8,3.92s-.74,1.59-1.49,1.49c-2.8-.38-4.39.09-4.39,1.31,0,.75.47.94,1.03.65.56-.37,1.03,0,.93.75-.18,2.98,1.87,12.59,2.8,13.25,5.04,3.08-3.92,6.34-9.61,3.45-5.23-2.61-5.23-2.52-6.16,5.04-.56,5.32-.28,7.84,1.31,11.2,2.15,4.48,1.21,6.35-3.17,6.44-2.61,0-5.32,4.67-3.27,5.97,1.03.56,1.96.1,2.89-1.49,1.49-2.89,9.42-7.09,10.36-5.6.38.56,1.4.74,2.43.38,4.29-1.68,12.41,10.08,11.1,16.05-2.8,12.23-10.17,16.24-20.25,11.11-3.64-1.78-5.97-2.33-7.19-1.68-1.03.56-1.86.75-1.86.28s-1.77,1.21-4.02,3.73c-3.08,3.45-3.7,4.92-2.8,6.53.78,1.38.65,2.05-.19,2.05-.74,0-1.04.47-.74.93.36.57-.93,1.87-2.8,2.98-3.82,2.24-4.39,3.92-1.68,4.95.93.38,1.74,2.15,1.77,3.83.05,2.89.19,2.89,1.12.56,2.61-6.53,11.57-8.4,11.67-2.42,0,.56.46.65,1.12.28.56-.38,1.4,0,1.86.74.56.84.38,1.03-.46.47-.84-.47-1.4.19-1.4,1.86,0,1.49-.47,3.45-1.03,4.39-.56.93-.56,2.15.1,2.9,4.01,4.76,6.72,9.43,5.79,10.36-1.03,1.03-10.17-4.57-12.97-7.84-2.15-2.61-4.4-2.23-4.85.74ZM211.82,130.91c.65-4.76-.1-5.79-3.64-5.79-5.79,0-9.15,5.41-5.51,9.05,2.7,2.71,8.68.65,9.15-3.27ZM607.59,380.68c-1.11,0-1.58-.65-1.11-1.77.28-.93.28-1.59-.19-1.4-.47.09-2.52-.46-4.57-1.31-4.1-1.77-10.82.65-10.82,3.83,0,3.92,2.52,7.84,6.06,9.43,2.05.93,3.92,1.68,4.01,1.68,1.59.28,6.26-3.18,7.28-5.42,1.78-3.83,1.58-5.04-.66-5.04ZM592.85,144.95c2.43.47,4.57.37,4.76-.19.28-.47,2.05-.93,4.1-.93,14.47,0,10.82-24.08-4.02-26.22-16.98-2.42-21.74,24.55-4.85,27.34ZM550.3,402.89c-1.4,0-1.49.29-.28,1.68.84,1.03,2.24,1.77,3.17,1.77,1.49,0,1.49-.28.37-1.77-.84-.93-2.23-1.68-3.27-1.68ZM573.26,362.57c.09-.65-.46-.38-1.21.56-1.03,1.49-1.12,1.31-.65-.84.37-1.78,0-2.61-1.12-2.61-.93,0-1.96-.84-2.33-1.86-.38-.94-2.71-2.61-5.22-3.55-2.52-1.03-4.48-2.33-4.48-2.89s-.93-1.03-2.05-1.03c-1.4,0-1.58.38-.65,1.21.84.93.47,2.15-1.49,4.2-4.48,4.85-4.85,9.33-1.03,13.35,2.8,2.89,4.01,3.27,9.43,3.17,3.73-.09,5.69-.56,4.85-1.11-1.12-.66-1.02-.94.47-.94,1.03,0,2.26.65,2.61,1.4.39.83.37.38.09-.93-.38-1.31.19-3.45,1.11-4.67.94-1.21,1.68-2.8,1.68-3.45ZM558.51,389.73c.93-2.52-1.49-5.6-4.29-5.6-3.45,0-4.85,4.2-2.05,5.88,2.7,1.58,5.69,1.4,6.34-.28ZM550.86,313.3c1.49-.09,2.7.38,2.7.93,0,.65.28,1.12.66,1.12s.45-.74.09-1.58c-.39-.93.93-2.33,3.36-3.46,3.73-1.77,3.98-1.77,4.1.1.07,1.12.38,1.4.66.74.37-.93,2.05-1.03,5.97-.19,7.19,1.49,9.8,1.31,10.92-.46,1.03-1.68-3.08-6.82-5.42-6.82-.74,0-2.89-1.21-4.76-2.61-1.78-1.4-2.88-1.97-2.33-1.12.77,1.2-.56,1.4-5.88,1.21-5.04-.28-6.91-.84-6.91-2.15-.28-4.11-.66-4.67-2.98-4.67-1.96,0-2.33.56-1.96,2.7.46,2.43-.09,2.9-4.57,4.11-11.57,3.08-6.35,12.97,6.34,12.13ZM608.62,298.46c-3.26-1.21-6.71,4.2-4.2,6.81,1.21,1.12,4.48.93,5.88-.56,1.68-1.58.66-5.32-1.68-6.25ZM240.31,300.87c-2.01,2.19-4.66,7.02-3.45,6.26.57-.37,1.89.35,2.98,1.58,3.04,3.4,10.17.46,10.17-4.29,0-4.11-6.93-6.57-9.7-3.55ZM321.39,240.6c0-.56-.74-1.03-1.77-1.03-1.78,0-2.31,1.29-.94,2.61.95.92,2.71-.09,2.71-1.59ZM333.89,252.36c.96-1.38,1.49-2.71,1.21-3.08-1.03-.93-4.48,3.18-3.73,4.39.47.65,1.53.11,2.52-1.31ZM444.19,356.14c.75,0,0-.84-1.68-1.77-4.95-2.61-11.2,2.52-6.63,5.41,3.82,2.42,7.64.92,7-2.71-.08-.47.46-.93,1.3-.93ZM328.39,241.26c0-.93-.74-1.68-1.78-1.68-.93,0-1.68.75-1.68,1.68,0,1.03.74,1.77,1.68,1.77,1.03,0,1.78-.74,1.78-1.77ZM455.11,315.82c.65,1.86.93,1.86,2.61.19,1.4-1.4,1.49-2.15.38-3.18-1.86-1.96-4.1.28-2.98,2.99ZM464.17,373.68c-2.33,0-2.8,3.36-.75,4.57,2.71,1.59,3.45,1.49,4.11-.38.74-1.77-1.21-4.19-3.36-4.19ZM450.35,401.77c.37.56,1.12,1.03,1.77,1.03,1.22,0,1.43-1.52.38-2.61-1.09-1.14-2.98.28-2.15,1.59ZM453.53,379.93c-.47.46-.08,1.29.84,1.86,2.17,1.36,3.17.38,1.4-1.4-.74-.74-1.77-.93-2.24-.46ZM365.71,443.77c1.58-3.08.28-5.89-2.9-5.89-3.82,0-5.73,2.68-4.1,5.7,1.65,3.05,5.41,3.17,7,.19ZM357.59,437.79c0-1.49-.84-2.24-2.33-2.24-2.61,0-3.36,4.11-.93,4.95,2.15.74,3.27-.19,3.27-2.71ZM355.07,458.22c-1.8-1.08-3.82,1.22-2.98,3.46.38,1.02,1.49,1.86,2.52,1.86,2.05,0,2.4-4.16.46-5.32ZM401.27,419.5c-3.17,0-4.66,1.31-3.45,3.27.47.65,1.59.93,2.52.56.93-.37,2.24-.65,2.8-.65s1.12-.74,1.12-1.58c0-.93-1.31-1.59-2.99-1.59ZM512.41,314.61c4.85-1.31,2.43-5.04-3.27-5.04-2.61,0-3.92,1.78-2.98,4.11.65,1.77,2.15,2.05,6.25.93ZM495.05,387.3c-2.52-.65-4.01,1.59-2.89,4.48.65,1.86,4.85,2.33,5.88.65,1.11-1.78-.56-4.48-2.99-5.14ZM497.29,361.18c-.18-1.12-1.12-2.06-2.05-2.06-1.03,0-1.96.94-2.15,2.06-.28,1.4.38,2.05,2.15,2.05s2.33-.66,2.05-2.05ZM513.34,154.84c14.19-6.25,10.08-27.16-5.41-27.25-15.68-.09-20.72,20.81-6.72,27.81,4.76,2.33,5.79,2.33,12.13-.56ZM431.22,387.77c-.28.74.19,1.12.93.93.74-.28,1.31-.84,1.31-1.31-.19-1.4-1.77-1.12-2.24.38ZM517.92,396.17c-1.21-.38-2.69-1.22-3.08-1.87-.45-.76-1.21-.93-1.78-.38-.46.47-.09,1.4.84,1.96.93.56,2.8,1,4.01.93,2.33-.14,2.33-.09,0-.65ZM478.07,326.28c-.37.37.56,1.21,2.05,1.77,3.73,1.49,6.91,1.58,6.91.19,0-1.31-7.93-2.99-8.96-1.96ZM483.58,359.68c-2.61,0-3.27,2.98-.94,3.83,1.96.74,3.27-.09,3.27-2.15,0-.93-1.12-1.68-2.33-1.68ZM484.42,352.87c-1.39-.32-2.05.37-2.05,2.15s.66,2.46,2.05,2.15c1.13-.25,2.05-1.21,2.05-2.15s-.93-1.89-2.05-2.15ZM479.66,391.14c.28-.85-6.72-.47-9.8.56-5.79,1.77-4.29,10.27,2.52,14.65,3.92,2.52,5.32,2.9,5.32,1.31,0-.56,1.57-1.34,3.64-1.77,4-.83,4.02-5.13.1-11.2-1.03-1.58-1.87-3.17-1.78-3.54ZM466.03,406.34c-2.05,0-2.71,3.46-1.31,6.54,1.49,3.35,6.26,3.55,6.91.28.38-2.05-3.55-6.82-5.6-6.82ZM221.07,375.72c-.65-.46-1.86-2.61-2.7-4.67-2.98-7.28-12.32-8.3-18.1-2.15-2.71,2.89-.38,12.22,3.92,15.49,3.83,2.99,8.68,1.78,13.53-3.17,2.8-2.89,4.11-5.04,3.36-5.51ZM237.4,219.8c0-.56-1.03-1.31-2.33-1.59-2.33-.66-3.08.38-1.58,1.86,1.12,1.13,3.92.94,3.92-.28ZM234.04,202.72c.84-.56.84-1.21,0-2.05-1.49-1.49-2.98-.28-1.96,1.49.47.65,1.31.93,1.96.56ZM210.15,400.45c0-.93-.84-1.68-1.77-1.68-1.78,0-2.43,2.43-1.03,3.82,1.12,1.12,2.8-.19,2.8-2.15ZM164.52,390.01c-1.59-.84-2.9-2.24-2.9-3.08,0-.94-.46-1.59-.93-1.68-.46-.09-2.05-.21-3.45-.38-2.79-.33-3.73,2.24-1.21,3.18,1.21.38,1.21.93,0,2.71-4.1,6.25-3.17,14.37,1.68,14.37.84,0,1.58.46,1.58,1.03,0,2.05,5.32-.19,7.75-3.27,3.27-4.01,1.96-10.45-2.52-12.88ZM239.49,471.41c-9.23-2.42-15.11,12.04-7.18,17.82,2.05,1.49,7.46,1.87,7.46.47,0-.56.65-1.03,1.49-1.03,7.19,0,5.6-15.3-1.78-17.27ZM248.27,451.34c-1.49,0-2.61-.47-2.61-1.12s-.84-1.21-1.77-1.21c-1.03,0-1.78-.47-1.78-1.12,0-.56.85-.77,1.96-.38,1.51.54,1.78.28,1.21-1.21-.46-1.03-.28-1.96.28-1.96,1.59,0,3.17-3.36,3.92-7.94.74-4.48,1.44-5.53,2.52-3.73.39.65.19,1.21-.46,1.21s-.93.74-.56,1.68c.66,1.68,5.14,2.05,5.14.47,0-.38.28-1.59.74-2.61.46-1.4-.09-1.86-2.05-1.86s-2.33-.28-1.12-1.13c1.4-.84,1.4-1.31-.19-2.89-2.43-2.33-3.22-2.33-3.27.19-.03,1.31-.74.56-1.87-1.77-1.02-2.15-2.89-4.39-4.1-4.95-1.21-.65-2.15-2.15-2.24-3.17-.09-1.12-.38-1.4-.65-.66-.38.93-1.49,1.12-3.08.47-1.4-.47-4.01-.74-5.78-.47-2.52.38-2.99.09-2.52-1.3.37-1.03.09-1.87-.56-1.87-.74,0-1.3.66-1.3,1.31,0,.74-.75,1.03-1.78.65-.93-.37-1.68-.19-1.68.47s-1.12,1.12-2.33,1.12c-1.4,0-2.06.56-1.68,1.49.28.84-.44,2.54-1.77,3.73-1.29,1.15-2.06,2.61-1.59,3.27.38.74,0,.93-1.03.56s-2.43-.28-3.27.28c-1.12.66-.84,1.13.93,1.68,1.4.47,2.52,1.31,2.52,1.86s.76.77,1.77.38c1.13-.44,1.78,0,1.78,1.21,0,1.03-.84,1.87-1.78,1.87-2.24,0-2.24,2.15-.09,4.57.93,1.03,2.83,3.06,4.2,4.58,1.33,1.47,2.52,3.64,2.61,4.85.19,1.96,7.84,4.29,7.84,2.43,0-.38,1.3-.74,2.89-.84,1.59-.09,2.98.28,2.98.84s.75,1.03,1.77,1.03,1.49.56,1.21,1.12c-.37.56.09,1.31,1.03,1.68,1.03.38,1.77,2.15,1.77,4.2,0,4.02,3.45,4.85,7.28,1.96,4.01-3.08,1.77-8.96-3.45-8.96ZM293.95,450.57c-.38-.65-1.31-.74-1.96-.28-.84.47-1.03.09-.56-1.21.46-1.21.09-1.87-1.03-1.87-2.15,0-2.19,1.07.19,3.64,1.93,2.09,4.67,1.87,3.36-.28ZM315.04,467.09c2.52-1.31,3.92-2.43,3.08-2.43-1.12,0-1.21-.56-.09-2.61,1.87-3.45,1.59-8.3-.74-11.85-1.03-1.59-1.59-3.45-1.21-4.1.38-.56.09-1.49-.66-1.96-.93-.56-1.03-.28-.46.66.65,1.12.28,1.21-1.59.65-9.05-2.9-15.3-.19-17.17,7.28-.37,1.4-1.21,2.61-1.77,2.61-1.86,0-1.12,4.2,1.31,7,1.21,1.4,2.61,3.55,2.98,4.76.28,1.12,1.49,2.33,2.61,2.61,3.64.93,9.05-.1,13.72-2.61ZM295.72,395.89c1.77,0,2.46-.66,2.15-2.05-.26-1.13-1.21-2.05-2.15-2.05s-1.9.93-2.15,2.05c-.32,1.39.38,2.05,2.15,2.05ZM321.29,416.89c-3.55,0-5.22,3.17-2.89,5.69,2.52,2.8,4.94,2.06,5.6-1.68.65-3.26.09-4.01-2.71-4.01ZM266.14,352.96c-.84,1.12-2.15,2.05-2.89,2.05s-1.31.74-1.31,1.78c0,.93.46,1.68,1.12,1.68s1.21-.46,1.21-1.12.94-1.21,2.24-1.21c2.8,0,3.73-1.31,2.24-3.55-.93-1.4-1.31-1.4-2.61.38ZM289.75,358.01c-1.31.84-1.31,1.96.09,5.69,1.59,4.2,3.17,3.73,3.73-1.03.46-4.01-1.31-6.25-3.83-4.66ZM265.86,317.87c5.23-7.56-.5-15.64-6.34-8.86-.82.95-2.15,1.49-2.99,1.21-5.22-1.96-5.6,2.8-.56,7.46,6.26,5.69,6.07,5.69,9.89.18ZM271.36,274.76c-3.45-1.21-6.25,4.67-4.01,8.31.47.65,1.21.46,2.05-.56.65-.94,2.16-2.03,3.27-2.43,3.2-1.15,2.43-4.01-1.31-5.32ZM286.39,439.01c-2.15,0-3.96,3.01-2.89,4.76.98,1.61,4.94,1.3,5.51-.38.84-2.33-.38-4.39-2.61-4.39ZM277.81,351.93c.93.84,3.92-1.4,3.92-2.89,0-.56-1.03-1.03-2.33-1.03-2.24,0-3.17,2.24-1.58,3.92ZM286.02,296.22c-1.03-2.61-5.97-4.67-9.34-3.73-3.08.74-3.35,4.02-.84,8.68,2.9,5.51,12.41.84,10.18-4.95ZM280.6,309.57c0-2.61-2.8-3.82-4.57-2.05-1.77,1.77-1.68,4.01.19,4.67,2.33.84,4.39-.37,4.39-2.61ZM213.6,360.79c1.71,2.03,1.59,2.05,4.01,1.13,2.33-.94,2.33-5.04,0-5.89-2.89-1.11-5.93,2.49-4.01,4.76ZM210.53,347.17c2.52-1.86,1.4-5.6-1.68-5.6-2.7,0-3.73,1.77-2.8,4.76.84,2.71,1.68,2.8,4.48.84ZM223.96,256.19c.75-2.71-5.51-8.03-7.74-6.63-.56.38-.93-.09-1.03-.93,0-1.58-3.45,5.6-3.45,7.38,0,.56.93,1.96,2.06,3.08,4.1,4.01,8.4,2.8,10.17-2.89ZM199.05,361.45c.93,0,1.77-.75,1.77-1.78,0-.93-.84-1.68-1.77-1.68-1.03,0-1.78.74-1.78,1.68,0,1.03.75,1.78,1.78,1.78ZM200.07,237.34c0-.56-.75-1.4-1.78-1.78-1.03-.37-1.68,0-1.68,1.13,0,.93.74,1.68,1.68,1.68,1.03,0,1.78-.47,1.78-1.03ZM160.13,280.18c1.13-.26,2.05-1.22,2.05-2.15s-.93-1.89-2.05-2.15c-1.39-.32-2.05.37-2.05,2.15s.66,2.46,2.05,2.15ZM146.88,341.3c1.68,1.12,2.33,1.12,5.88-.28,5.41-2.05,3.45-10.45-2.42-10.45-4.67,0-7.28,8.21-3.45,10.73ZM187.66,237.81c1.03,2.52,6.16,2.24,6.9-.47.66-2.71-1.12-4.76-4.1-4.76-2.43,0-3.83,2.61-2.8,5.23ZM177.77,263.28c1.03.28,2.15.56,2.52.66.38,0,1.7-.63,2.98-1.59,1.23-.91,3.73-1.4,5.69-1.12,3.27.47,3.36.47.93-.84-1.4-.75-2.89-2.8-3.27-4.57-1.03-4.57-3.27-6.16-7.56-5.23-6.53,1.49-7.46,11.02-1.31,12.69ZM175.81,314.61c-1.68,1.03-2.35,7.59-.93,8.21,5.45,2.38,10.82-2.06,8.68-6.81-1.12-2.52-4.85-3.18-7.74-1.4ZM214.53,245.36c3.36,1.4,4.48,1.31,6.63-.38,5.88-4.47,2.05-13.34-5.14-11.94-6.16,1.12-7.28,9.98-1.49,12.32ZM538.86,233.24c0-4.2-6.81-6.67-8.96-3.27-1.07,1.7-.65,5.5.93,7.46,2.15,2.61,8.03-.47,8.03-4.2ZM507.32,228.3c3.27,1.21,2.9,1.31,7.46-1.03,6.35-3.17,6.26-13.72-.19-16.05-13.62-4.67-20.71,11.94-7.28,17.08ZM472.29,131.14c6.63,4.02,20.62,1.21,20.62-4.2,0-.93.47-1.68,1.03-1.68,1.68,0,2.61-5.78,1.78-10.92-1.21-7.84-12.13-14.28-19.69-11.67-13.53,4.57-15.68,21.19-3.73,28.46ZM515.21,108.56c7.19,3.45,13.72-3.45,8.4-8.77-4.01-4.02-8.68-2.05-10.36,4.48-.56,2.43-.19,3.27,1.96,4.29ZM530.61,321.8c.74,1.96,1.77,2.15,4.1.65,1.96-1.21.84-4.76-1.49-4.76s-3.45,1.96-2.61,4.11ZM434.51,417.77c-4.13-4.18-10.51.68-7.74,5.88.78,1.47,1.3,3.55,1.11,4.67-.18,1.4.47,2.05,2.06,2.05,1.31,0,2.43-.75,2.43-1.59,0-.93.74-2.24,1.77-3.08,2.05-1.78,2.27-6.01.38-7.93ZM555.62,112.94c-3.36-1.12-7.56,3.55-5.51,5.97,2.7,3.27,8.11,1.12,8.11-3.17,0-1.12-1.21-2.43-2.61-2.8ZM533.13,190.31c2.61-.47,2.71-2.68.28-3.08-1.3-.21-2.05.38-2.05,1.59,0,1.12.75,1.77,1.78,1.49ZM532.57,100.25c0,2.71,7.74,1.31,16.98-3.08,4.01-1.86,7.74-3.45,8.49-3.45,2.98,0,7.18-2.89,7.18-5.04s-.56-2.15-5.97-1.49c-10.73,1.4-26.69,9.24-26.69,13.06ZM521.86,439.54c4.67,4.76,11.85-1.31,8.12-6.91-2.06-3.08-4.2-3.55-7.75-1.68-2.7,1.49-2.89,6.07-.37,8.59ZM585.15,266.93c6.07,3.54,14.65-4.76,9.33-9.05-1.96-1.59-9.05-.84-10.27,1.11-1.68,2.61-1.21,6.63.93,7.94ZM263.06,278.03c.65,0,1.21-.74,1.21-1.78,0-.93-.56-1.68-1.21-1.68s-1.12.75-1.12,1.68c0,1.03.46,1.78,1.12,1.78ZM269.88,243.59c.56-2.52-2.8-5.32-5.14-4.48-2.24.84-2.15,3.36.19,5.6,2.33,2.33,4.39,1.86,4.95-1.12ZM296,259.73c-10.45-1.4-15.77,12.32-7.46,19.13,3.17,2.71,9.98,3.55,11.29,1.49.47-.74,1.49-.74,3.08.09,1.86,1.03,2.23.93,1.58,0-2.05-3.45.47-7.56,2.98-4.67,1.21,1.4,2.61,2.33,2.99,1.96.37-.46-.38-1.86-1.68-3.27-1.31-1.4-2.7-4.2-3.08-6.34-.93-4.94-4.01-7.65-9.71-8.4ZM311.31,273.08c1.03,1.58,3.08.93,3.08-1.13,0-.65-.74-.83-1.77-.46s-1.68-.09-1.68-1.12.38-1.58.84-1.31c.46.38,1.86-.19,3.17-1.03,1.21-.93,1.58-1.68.84-1.68s-1.4-.74-1.4-1.77c0-2.24-.84-2.15-3.92.28-2.61,2.05-2.52,3.08.84,8.21ZM277.06,284.74c0,3.73,7.66,3.36,10.08-.47,2.24-3.35-.37-7.56-4.2-6.62-1.12.28-2.44,0-2.89-.66-1.06-1.56-2.99-1.68-2.99-.09,0,.56.84,1.12,1.96,1.12,1.78,0,1.83.23,0,2.15-1.09,1.14-1.96,3.17-1.96,4.57ZM295.63,301.45c-2.52,1.3-2.9,2.98-.84,3.73,1.96.56,4.29-1.68,3.54-3.55-.37-1.03-1.12-1.11-2.7-.18ZM258.4,205.8c0,2.89,2.71,2.43,3.27-.47.28-1.12-.38-1.96-1.4-1.96-1.12,0-1.86,1.03-1.86,2.43ZM315.6,246.49c0-2.99-3.92-2.71-4.48.37-.28,1.4.38,2.05,2.05,2.05s2.43-.84,2.43-2.42ZM237.4,259.92c0,1.12.75,1.78,1.78,1.59,2.61-.56,2.71-2.61.28-3.08-1.31-.28-2.06.28-2.06,1.49ZM481.61,313.86c8.59-5.69,3.73-20.25-5.97-17.73-8.31,2.06-11.29,9.43-6.81,16.61.46.93.19,1.49-.94,1.49-2.43,0-3.82,5.69-1.77,7,1.49.93,8.58.47,12.6-.74.93-.29,1.31-1.4,1.03-2.8-.47-1.4.28-2.8,1.86-3.83ZM247.39,339.62c2.52-.47,2.7-2.61.18-3.08-1.21-.18-1.96.38-1.96,1.59,0,1.12.75,1.77,1.78,1.49ZM246.17,385.16c2.61-.56,2.7-2.62.28-3.08-1.3-.28-2.05.28-2.05,1.49,0,1.12.75,1.77,1.78,1.59ZM257.28,188.72c0-3.08-4.1-6.53-6.72-5.51-2.43.94-3.73,5.23-2.24,7.56,2.33,3.82,8.96,2.23,8.96-2.06ZM281.72,254.6c0-.56-.74-1.03-1.77-1.03-1.78,0-2.31,1.29-.94,2.62.95.92,2.71-.09,2.71-1.59ZM251.58,334.11c-.28.75.19,1.12.93.94.74-.28,1.31-.84,1.31-1.31-.19-1.4-1.78-1.12-2.24.37ZM251.96,322.35c-.94,0-1.68.56-1.68,1.21,0,.56.74,1.12,1.68,1.12,1.03,0,1.77-.56,1.77-1.12,0-.66-.74-1.21-1.77-1.21ZM268.29,216.25c-.38-.66-2.15-1.12-3.83-1.12q-3.17.09-.19,1.12c4.11,1.3,4.85,1.3,4.02,0ZM454.55,122.93c.38-1.03.38-1.4.09-.84-.84,1.59-4.94-2.89-4.94-5.32,0-1.77-.56-2.15-2.34-1.68-1.49.38-2.89-.19-3.92-1.68-1.77-2.52-10.36-1.49-15.68,1.96-1.4,1.03-3.27,1.4-3.92.93-.84-.46-1.03-.28-.46.56.46.74,0,1.68-.94,2.05-2.7,1.03-5.34,14.89-3.08,16.24.65.39,1.22,1.96,1.22,3.45,0,3.92,1.11,6.44,2.98,6.44.93,0,1.68.56,1.68,1.21s2.15.99,5.23.74c2.9-.23,5.6,0,5.88.56.93,1.4,1.68,1.22,1.4-.28-.19-.74,1.58-1.96,3.92-2.7,5.69-1.77,10.27-7.46,11.38-14.37.56-3.08,1.22-6.34,1.49-7.28ZM407.15,103.61c0-2.89-.46-3.45-2.8-3.45-3.73,0-5.79,3.17-3.64,5.78,2.61,3.18,6.44,1.78,6.44-2.33ZM470.04,294.45c.75-1.12-2.33-4.76-4.01-4.76-1.59,0-2.22,3.15-.84,4.48,1.61,1.56,3.92,1.77,4.85.28ZM381.67,156.62c2.05,2.98,2.89,2.98,6.06.37,4.3-3.55.75-9.52-4.57-7.84-2.8.84-3.54,4.57-1.49,7.47ZM435.05,205.23c.56,1.49,1.78,1.78,5.51,1.31,6.72-.93,7.74-2.42,4.39-5.97-5.42-5.7-12.6-2.24-9.9,4.66ZM448.58,194.6c0-.93-.84-1.68-1.77-1.68-1.03,0-1.77.75-1.77,1.68,0,1.03.74,1.78,1.77,1.78.93,0,1.77-.75,1.77-1.78ZM284.9,110.8c4.2,3.17,8.31-.28,6.91-5.79-.56-2.24-1.58-3.17-3.45-3.17-5.23,0-7.47,5.88-3.46,8.95ZM409.39,73.94c-5.6,5.88-4.39,19.78,1.86,19.78,1.12,0,2.71.84,3.55,1.86,1.86,2.15,9.89,5.89,21.46,9.8,4.48,1.49,8.68,3.17,9.33,3.73,1.59,1.31,4.11,1.11,4.11-.28,0-.65,1.96-2.05,4.39-2.98,7.65-3.08,9.15-4.01,10.54-7.28.84-1.68,2.24-4.57,3.27-6.35,3.73-6.63.38-16.52-8.86-26.41-3.92-4.29-12.32-4.67-21.09-1.12-7.46,2.89-13.44,3.92-14.46,2.24-1.12-1.77-2.24-1.49-5.22,1.12-1.49,1.31-3.36,2.33-4.11,2.33s-2.9,1.58-4.76,3.55ZM302.16,102.31c-1.96,1.4-2.05,1.96-.74,3.55,2.15,2.52,4.48,2.33,5.41-.47,1.31-4.29-.93-5.79-4.67-3.08ZM290.96,164.92c-.56,0,.43,2.3,2.15,5.14,1.73,2.86,3.27,5.04,3.55,4.85.65-.74-4.67-9.98-5.69-9.98ZM372.62,161.75c2.7-2.05,9.05-1.87,10.82.38.84,1.03,3.02,3.23,4.76,4.85,3.81,3.56,4.11,7.84.93,11.57-2.71,3.27-8.36,3.59-11.01.56-1.05-1.2-1.86-2.9-1.86-3.83s-1.03-2.33-2.24-3.08c-2.99-1.87-3.92-8.59-1.4-10.45"/>
  </g>
</svg>