<?xml version="1.0" encoding="UTF-8"?>
<svg id="_レイヤー_1" data-name="レイヤー 1" xmlns="http://www.w3.org/2000/svg" xmlns:xlink="http://www.w3.org/1999/xlink" viewBox="0 0 504.14 487.7">
  <defs>
    <style>
      .cls-1 {
        fill: none;
      }

      .cls-2 {
        clip-path: url(#clippath-1);
      }

      .cls-3 {
        clip-path: url(#clippath-3);
      }

      .cls-4 {
        clip-path: url(#clippath-4);
      }

      .cls-5 {
        clip-path: url(#clippath-2);
      }

      .cls-6 {
        fill: #ff0;
        fill-rule: evenodd;
      }

      .cls-7 {
        fill: #006bff;
      }

      .cls-8 {
        clip-path: url(#clippath);
      }
    </style>
    <clipPath id="clippath">
      <rect class="cls-1" x="10.38" y="2.29" width="467.02" height="430.68"/>
    </clipPath>
    <clipPath id="clippath-1">
      <rect class="cls-1" x="499.21" y="261.98" width="4.79" height="4.91"/>
    </clipPath>
    <clipPath id="clippath-2">
      <rect class="cls-1" x="289.43" width="5.33" height="3.86"/>
    </clipPath>
    <clipPath id="clippath-3">
      <rect class="cls-1" y="233.19" width="4.1" height="2.67"/>
    </clipPath>
    <clipPath id="clippath-4">
      <rect class="cls-1" x="92.1" y="178.83" width="286.19" height="308.87"/>
    </clipPath>
  </defs>
  <path class="cls-7" d="M65.68,119.81c4.11,6.18,9.49,10.4,17.18,11,6.11.47,11.93-1.76,14.35-8.39.97-2.65,1.95-5.35,2.41-8.11,1.7-10.29-3.71-18.95-13.65-22.23-9.44-3.12-17.72.98-20.85,10.51-.77,2.32-1.04,4.82-1.33,7.27-.2,1.74-.06,3.52-.07,5.28.66,1.56,1.31,3.11,1.97,4.67"/>
  <path class="cls-7" d="M136.86,50.4c2.87.02,5.69,1.16,8.58.41,6.63-1.71,11.83-7.79,12.66-14.94.84-7.22-1.3-13.06-8.04-16.66-2.18-1.16-4.27-1.66-6.27.45-.83.87-2.21,1.35-3.09.4-3.15-3.39-6.2-1.94-9.32-.11-.61.97-1.13,2.03-1.86,2.89-4.11,4.81-4.83,10.43-3.48,16.27,1.33,5.76,5.15,9.5,10.82,11.3"/>
  <path class="cls-7" d="M40.77,184.49c1.82,1.83,3.68,2.31,4.41,1.24,1.14-1.66.67-3.33-.34-4.81-.62-.91-1.47-1.72-2.36-2.39-.92-.68-3.22.38-3.6,1.52-.03.56-.27,1.24-.05,1.67.52.99,1.16,1.97,1.94,2.77"/>
  <path class="cls-7" d="M72.64,194.69c.68-.17,1.24-.85,1.7-1.19.08-1.21-.27-1.95-1.19-2.16-.88-.19-1.64.16-2.01,1.06-.46,1.09.44,2.55,1.51,2.29"/>
  <path class="cls-7" d="M46.12,215.41c.07-.03,0-.36,0-.56-.22.02-.44.03-.66.04-.21.6.02.8.66.53"/>
  <path class="cls-7" d="M155.28,57.36l-.05.02s.02,0,.03,0c0,0,.01-.02.02-.02"/>
  <path class="cls-7" d="M115.73,109.35c.09.07.19.08.29.12-.18.99-.35,1.99-.53,2.98.7.85,1.31,1.79,2.11,2.53.66.61,1.39,1.09,1.27,2.13.43.02.83.13,1.2.34.86.15,1.71.3,2.57.45.02-1.74.14-3.48.02-5.22-.09-1.47-1.07-2.32-2.53-2.55-.71.55-1.15.08-1.7-.34-.3-.23-.66-.4-.99-.58.17-.13.33-.28.46-.47.04-.94.57-1.9,1.38-1.7.82.2.84,1.3.44,2.15,2.77.93,4.24-.44,5.42-2.16.52.31,1.03.6,1.55.91-.31-.64-.51-1.47-1.44-1.07.35-.54.69-1.09,1.02-1.63,1.51-2.4.87-7.22-.79-8.78-2.58-2.41-6.36-2.8-9.42-.97-4.53,2.71-4.76,10.61-.34,13.84"/>
  <path class="cls-7" d="M134.31,61.51c-.93-.52-1.99-.77-3.01-1.14l-.03.03c-.06,1.36-.21,2.83,1.37,3.41.63.23,1.71.1,2.15-.32.6-.58.25-1.58-.48-1.98"/>
  <path class="cls-7" d="M233.48,28.17c.02.06.05.08.08.14,0,0,.01,0,.02.01l-.09-.15"/>
  <path class="cls-7" d="M229.49,51.36c1.23-.29,2.06.35,2.65,1.33.1.17,0,.59-.16.78-1.06,1.32-2.39.73-3.6.34-.34-.11-.48-.8-.71-1.2.14-1.11,1.07-1.07,1.82-1.24ZM226.43,56.26c4.76,1.02,9.65.91,13.41-3.2.74-.81,1.8-1.31,2.71-1.96,3.33-6.9,3.38-13.82.15-20.77-1.28-2.75-2.84-3.21-6.06-1.33-1.56.91-2.43.92-3.08-.7-1.57-.78-3.07-.56-4.72-.05-2.71.83-4.56,2.92-6.92,4.23-3.39,4.53-4.76,9.49-3.8,15.18.83,4.9,3.95,7.66,8.31,8.59"/>
  <path class="cls-7" d="M233.48,28.16s.09.15.09.15c.1-.22.2-.44.29-.66-.13.17-.26.34-.39.51"/>
  <g class="cls-8">
    <path class="cls-7" d="M407.21,215.32c-.35.9-.7,1.79-1.05,2.69-.13-.58-.27-1.05-.42-1.53,0-.12-.01-.24,0-.36.04-.92.42-1.82,1.39-1.79.17.01.33.02.49.02-.14.32-.27.65-.42.97ZM392.72,206.26c.02,1.49-.03,2.98.08,4.46.03.4.11.71.18,1.04-2.49-.39-4.74-1.46-7-2.23.06-.18.1-.35.04-.45-.38-.58-1.09-.78-1.73-.43-.16.09-.16.23-.26.34-1.03-.22-2.08-.34-3.18-.21-5.29.63-4.46,8.99-10.55,9.15-1.06-2.22-1.85-4.64-2.92-6.86.35-.53.46-1.15.03-1.91,3.55-.91,7.06-2.28,10.57-3.47,1.71-.58,2.63-1.81,3.01-3.28.6.95,1.8,1.7,3.69,2.38,1.05.22,1.98.02,2.77-.74,1.76.74,3.52,1.47,5.28,2.21.73.53,1.45,1.04,2.21,1.48-.76-.45-1.48-.96-2.21-1.48ZM365.65,191.58c.32-.11.73.03,1.1.05,2.67-2.57,5.81-4.29,9.09-5.68-.09,1.76.83,2.89,2.67,4.12,1.43.95,3.53,1.04,4.3,2.77.94,2.14-.95,3.61-1.69,5.36-.08.19-.12.35-.18.52-.71-3.21-2.41-5.38-4.82-5.46-5.48-.18-10.92.17-16.3.98,1.86-1.02,3.79-1.92,5.83-2.66ZM364.67,268.28c1.33.58,2.64,1.21,3.97,1.81-1.52,0-2.99-.27-4.32-1.39.11-.14.24-.27.35-.42ZM309.77,78.89c-1.92-1.32-4.27-.64-6.21,1.98-.59.79-.48,2.09-.7,3.16-1.06.1-2.09.17-3.11.17.36-3.23.83-6.46,1.33-9.68,1.56,1.09,2.06,3.01,3.66,3.81,1.81.91,3.3-1.92,5.27-.7-.06.42-.15.84-.23,1.26ZM194.72,357.17c-.06-.07-.12-.15-.18-.21.18-.19.35-.39.53-.58-.14.25-.25.52-.35.79ZM145.77,306.08c.82-.85,1.63-1.7,2.45-2.55.06.81.11,1.63.17,2.44-.84.18-1.73.14-2.61.11ZM360.42,63.91c-.91.94-1.74,1.95-2.5,3.01.76-1.06,1.59-2.07,2.5-3.01ZM360.63,64.13c-.07-.07-.15-.14-.21-.22.06.08.14.15.21.22ZM361.1,133.48c.67-.05.32-.67.27-1.19-.17-1.72-.06-1.76,1.65-1.28.54.15,1.06.34,1.59.52l.16.34-.32.2c-.66,1.47-.82,2.92-.18,4.32-.32.21-.64.43-.96.64-1.22.84-2.44,1.68-3.66,2.52-.19-.06-.39-.12-.58-.18.17-.41.2-.84.06-1.29.7-.13.94-.71.54-1.48.14-.53.53-1.15.37-1.56-.45-1.2-.08-1.47,1.08-1.56ZM369.81,130.25c.7.27,1.38.73,2.09.79.13.01.23,0,.35,0-1.74,1.16-3.48,2.32-5.22,3.49.06-.65.03-1.31-.34-1.98.92-.93,1.81-1.89,3.11-2.3ZM378.67,77.7c-.17-.27-.34-.54-.51-.81.17.27.34.54.51.81ZM476.02,142.76c-2.64-.79-5.1-.01-7.58.78-4.34,1.4-8.7,2.73-13.04,4.12-1.64-1.03-1.97-2.31-1.57-5.12.19-1.39.01-2.54-.53-3.75-.6-1.34-1.52-2.23-3.03-1.71-1.67.58-3.33.97-5.09.91-.36-.18-.75-.26-1.16-.26-1.87-2.08-4.25-3.77-5.14-6.61-.21-.99-.19-2.11-.68-2.94-1.15-1.95-2.99-1.9-4.44.04-.33.44-.27,1.18-.39,1.78-1.82.17-3.54.15-5.16-.53.22-.32.42-.64.65-.95,1.08-1.49,1.38-3.37-.36-4.75-1.3-1.04-2.6-.11-3.79.45-.8.39-1.85.9-2.13,1.6-.06.14-.13.26-.18.4-.7-.14-1.42-.21-2.19-.09-1.4,1.59-3.11,2.54-5.27,2.56-1.88.04-3.64-.18-5.19-1.46-.75-.61-1.81-.84-2.73-1.25q-2.34.36-2.49,2.77c-1.26,3.82-4.01,5.4-7.92,5.55-4.2.16-4.19.27-5.36,4.64-.71,2.65-.97,2.86-4.06,3.27-1.07.14-2.18.16-3.22.41-1.16.28-1.89,1.14-1.99,2.31-.1,1.06-.05,2.15.09,3.21.16,1.22,1.48,2.33.42,3.65-.85,1.05-2.08,1.53-3.36,1.89-.84.23-1.7.45-2.46.84-1.71.88-2.32,2.58-1.65,4.43.22.61.56,1.18.85,1.76,1.92,3.69,1.66,6.97-1.28,10.16-2.19,2.37-2.28,3.61-.17,5.61.02.02.02.04.04.05-2.64,1.16-5.27,2.37-8.09,2.81.95-3.61.93-7.12-1.4-10.28-2.56-3.46-5.79-5.81-10.28-5.51,1.82-2.12,1.65-4.5.34-6.91-1.08-1.98-2.93-2.15-4.48-1.06-.27.19-.44.44-.67.65.49-3.09,2.65-4.88,5.72-5.91,2.53-.85,5.29-1.18,7.66-2.33,1.12-.55,1.94-2.4,2.21-3.8.29-1.47-.58-2.81-2.08-3.41,4.48-3.26,8.92-6.57,13.39-9.86,2.03-1.49,4.03-2.97,5.36-4.73.18-.23.46-.64.38-.66-.36-.06-.82-.19-1.28.04-1.16.58-2.35,1.21-3.51,1.9.21-.9.21-1.93-.06-3.07-.17-.69-.73-1.29-1.1-1.94.11-.42.22-.84.33-1.27,2.31-.09,4.33-.42,5.36-3.05.67-1.68,1.99-3.09,3.03-4.62,2.48-3.7,1.13-6.82-1.48-9.76.36-1.55.05-2.9-.74-4.12.03-.23.08-.45.09-.69.04-.61,0-1.19-.08-1.77.24-.54.48-1.08.72-1.63,1.39-1.49,2.74-3.02,4.17-4.46,1.05-1.05,1.21-2.2.83-3.56-.38-1.31-.99-2.39-2.29-2.97-1.26.69-2.35,0-3.48-.43-.1-.69-.41-.95-1.05-.49l.04-.03c-.49.15-.98.3-1.48.45-1.06-.98-1.27-2.15-.83-3.52.27-.86.38-1.79.56-2.69.3-1.44-.22-2.52-1.47-3.26-1.24-1.62-2.44-3.29-4.28-4.33-.53-.66-1.06-1.32-1.58-1.98-.52,0-1.31.23-1.52-.02-1.6-1.94-3.15-1.54-4.73-.4,1.38-5.18,2.46-10.5,3.21-15.96-2.83,3.78-5.69,7.53-8.54,11.28.17-.67.14-1.36-.3-2.06.71-1.31.46-2.54-.4-3.65-.68-.87-1.27-1.99-2.45-2.16-1.91-.28-3.14.86-4.06,2.37-.19.31-.3.68-.44,1.03-1.21,1.21-2.04,3.11-4.32,2.32-2.55-1.45-5.07-1.74-7.59-.3.07-.09.15-.15.21-.25.2-.34.01-.9,0-1.36-.18-.16-.33-.42-.53-.46-2.4-.53-4.79-1.11-7.21-1.49-.98-.16-1.98.32-2.26,1.43-.04.17-.03.32,0,.46-.31.1-.63.21-.89.39-2.66,1.77-5.89,2.8-7.87,5.53-3.06.93-3.41,1.52-3.13,5.29-.28.45-.56.91-.83,1.36-.2.22-.4.45-.6.68.2-.23.4-.46.6-.68-3.71-1.49-7.14-1.42-10.09,1.7-.77.81-1.64.47-2.46-.07-2.07-1.35-2.62-3.89-4.34-5.51-.08-.04-.16-.07-.24-.11,2.2-14.06,4.45-28.1,6.59-42.17.82-5.39,1.34-10.82,2.03-16.23.27-2.11.52-4.21-.27-6.16-.1-.26-.32-.69-.42-.66-.45.14-1.09.29-1.28.69-.64,1.32-1.28,2.7-1.61,4.14-1.04,4.43-2.01,8.87-2.86,13.34-.97,5.06-1.9,10.14-2.86,15.2-2.45.54-3.72,3.01-5.4,4.8l2.84,5.27.72-.27c-.67,3.58-1.35,7.15-2.02,10.73-.49,2.67-.74,5.38-1.14,8.07-.22,1.51-.54,2.98-1.64,4.04,0,0-.08.1-.08.1-.39,4.86-.66,9.73-1.19,14.57-1.22-.53-2.42-1.26-3.57-2.31-1.74-1.6-3.85-2.79-6.18-3.36.16-.68.18-1.36-.17-2.06-.35.58-.72,1.16-.8,1.81-1.09-.17-2.22-.22-3.41-.05-1.1,1.26-2.33,2.24-3.68,3.01-1.13-.11-2.52.18-4.22.98-.28.13-.46.32-.69.47-.27.02-.51.09-.78.09-3.34.08-6.47-.32-9.24-2.6-1.33-1.09-3.22-1.5-4.86-2.21q-4.17.63-4.44,4.92c-.63,1.89-1.47,3.45-2.49,4.75-.01-.06-.02-.11-.02-.17-.2.23-.34.46-.52.69-.05-.39-.1-.77-.16-1.16-.54-4.04-1.08-8.05-2.15-11.34-.15-.44-.41-1.16-.45-1.06-.2.45-.51.99-.49,1.81.07,2.71.17,5.55.45,8.36.18,1.82.39,3.66.58,5.48-1.71,1.15-3.73,1.86-6.03,2.23-.15-2.49-.3-4.99-.15-7.46.28-4.67-1.34-8.13-4.13-10.95.07-.11.13-.22.19-.34-.11-1.35-1.09-2.1-1.99-2.92l.54-.17s.39-.43.39-.44c-.95-.93-1.14-3.32-3.43-1.53-.59.45-1.2.86-1.83,1.21-.21-.02-.4-.09-.62-.07-.73.09-1.2.39-1.52.79-.9.11-1.85-.02-2.88-.52-.42-.2-1.3.23-1.8.59-.86.61-3.46,6.14-3.97,8.09.73-.05,1.46-.09,2.19-.13.36.47.76.8,1.18,1.04-.35.14-.68.29-1.05.41-.66.2-1.21.5-1.7.86-1.41-4.72-2.95-9.43-4.64-14.15-2.95,2.18-2.58,4.48-2.55,6.57.09,6.11.38,12.19.86,18.25-.15.06-.3.12-.33.21-.1.28-.16.57-.26.85-1.04-.52-2.22-1.43-3.55-2.63-.49-.44-1.09-.72-1.65-1.06-2.18-1.38-4.21-1.36-6.04.77-.88,1.02-1.79,2.01-2.68,3.02-1.66,1.91-3.3,1.58-4.97-.01-2.95-2.8-4.94-6.38-6.93-10.02-1.01-1.83-2.14-2.73-3.39-2.8-1.09-1.61-2.18-3.23-3.27-4.84-2.28-3.38-4.54-6.73-6.96-9.2-.33-.33-.88-.86-.88-.75.02.49-.02,1.11.36,1.83,1.28,2.4,2.62,4.9,4.12,7.29,1.36,2.18,2.77,4.34,4.14,6.51-.39.27-.79.58-1.2.98-1.2,1.15-2.24,2.5-3.3,3.82-.22.28-.5.46-.74.71-.16-.07-.32-.14-.48-.23-.42.44-.97.84-1.25,1.38-.04.07-.05.16-.08.23-.45.24-.88.52-1.4.67-9.8,2.76-16.35,10.37-22.24,18.82-2.96,4.25-6.22,8.18-9.66,11.93-1.22-.76-2.44-1.52-3.64-2.33-2.7-1.84-6.03-3.13-9.56-3.15-.21-.49-.43-.99-.63-1.49-2.1,1.66-1.54,3.68-1.13,5.69.1,1.66.73,3.22,1.81,4.72-.01.31-.01.63-.03.94-.72.11-1.44.22-2.17.34-.1,3.63,1.92,7.06.85,10.78-2.53,1.02-2.65,3.48-2.82,5.9-1.2-.14-2.4-.28-3.59-.41-.27-.36-.55-.72-.91-1.07-.17-.16-.36-.29-.57-.41.08-.57.18-1.13.34-1.67.55-1.82.55-3.44-1.49-3.77-1.84-.29-2.73,1.18-2.94,3-.06.5-.07,1.01-.09,1.52-2.64,0-4.92,1.12-6.55,3.44-1.27-.29-2.52-.68-3.77-1.21-1.55-.65-3.32-.89-4.4.59-1.1,1.52-.53,3.48.64,4.78,3.67,4.07,5.01,9.77,8.16,14.18,1.52,2.13,1.48,4.34,1,6.94-.42,2.26-1.28,4.25-2.26,6.16-.67.36-.89.94-.84,1.59-.47.86-.92,1.74-1.38,2.61-.09-.03-.18-.08-.27-.1-2.29-.61-4.67.79-5.24,3.1-.61,2.43,1.19,5.39,3.6,5.9.89.19,2.1-.17,3.17-.81.41.42.8.84,1.15,1.31,1.05,1.42.28,3.15-1.55,3.76-5.03,1.66-5.17,1.66-5.23,6.49-.15,10.73.02,9.84-8.5,13.65-.29.13-.54.37-.81.56h0c-2.48.42-4.85,1.2-7.16,2.14-.19-.15-.23-.32-.06-.54-1.67-1.4-3.73-2.42-4.49-4.68-.75,2.69-.47,4.97.99,6.8-1.62.77-3.22,1.57-4.83,2.35-.03-.29-.06-.58-.15-.84-.48-1.27-1.11-2.53-2.73-2.54-1.03,0-1.14,1.6-.24,4.02.09.23.23.44.38.65-.44.2-.86.4-1.31.59-.85.36-1.57,1.17-2.28,1.86-1.41,1.37-.78,5.11,1.04,5.18,3.08.11,6.03,1.27,9,2.27-.36,0-.72-.03-1.08-.02-14.8.34-29.6.73-44.41,1.2-5.55.18-11.1.53-16.64.98-1.81.15-3.6.76-5.32,1.39-.52.19-.82,1.1-1.08,1.74-.06.15.42.57.71.79,2.19,1.66,4.77,1.8,7.37,1.92,6.66.32,13.31.87,19.97.97,17.87.28,35.74.38,53.61.58.34,4.06-2.5,6.74-5.03,9.46-2.5,2.68-5.36,4.94-8.05,7.42-1.05.97-1.43,2.27-1.22,3.77-.1,3.85-.11,7.71-.34,11.55-.13,2.29.43,4.11,1.92,5.64.06,1.03.09,2.06.2,3.08.12,1.1.64,1.98,1.7,1.97s1.57-.9,1.69-1.99c.11-1.02.14-2.06.2-3.08.84-.31,1.7-.58,2.53-.95,1.97-.89,2.69-2.24,1.59-4.58-.36-.78-.08-1.93-.1-2.92,2.58-.13,3.23,1.88,3.67,4.1.29.89.58,1.78.88,2.67.45-.83.89-1.65,1.33-2.48,2.74-.28,3.55,2.68,5.35,3.96.79,1.99,1.93,3.36,4.08,3.46,1.52.07,3.02.48,4.53.73,3.27,1.41,7.29,1.64,8.35,6.55-.02.29-.04.58-.06.88-.26-.16-.51-.3-.71-.24-1.17.32-1.82,1.17-1.59,2.4.14.69.81.97,1.46.66.26-.13.49-.27.69-.44-.02.32-.04.64-.06.96-.55-.08-1.1-.08-1.65,0-.93.11-1.88.14-2.79.37-.95.23-1.86.78-1.59,2.08.11.55.68,1.1,1.17,1.41.52.33,1.19.39,1.79.56.52-.13,1.05-.2,1.58-.22h.02-.02c-.53.02-1.06.09-1.58.22-.04.53-.04,1.05-.06,1.58-1.17.84-2.34,1.68-3.51,2.52-3.32,2.38-6.6,4.73-9.01,7.22-.32.33-.83.9-.72.9.49-.03,1.11-.01,1.82-.41,2.36-1.34,4.82-2.76,7.17-4.33,1.45-.97,2.9-1.96,4.35-2.94.21,1.8.72,3.53,1.83,5.11,2.71.73,5.44,1.48,8.26.94,2.98-.58,5.83-3.56,6.36-6.73.47-2.83-1.09-4.43-3.01-5.84-.54-.4-.96-1.02-1.39-1.62,1.74-1.18,3.49-2.34,5.22-3.53.64-.44,1.27-.88,1.91-1.31.11,0,.21-.03.33-.02,3.15.34,6.81-.69,9.18,2.9l.02.11c.81.82,1.6,1.66,2.34,2.53-6.31,5.34-12.42,10.93-17.69,17.43-1.07,1.32-2.19,2.6-3.29,3.9.09-.74.17-1.48.26-2.23-4.2-.46-6.79,2.04-8.29,5.34-1.59,3.53-5.82,5.79-4.95,10.54.07.39.21.69.35,1-1.07,1.11-2.27,2.07-3.89,2.49-1.3,2.11-3.14,3.54-5.48,4.34-1.54,1.11-3.07,2.23-4.61,3.34-4.31,5.13-10.07,9.3-11.09,16.63.49,1.02.97,2.03,1.46,3.05,3.78,2.39,7.48,2.54,11.41.15,5.16-3.13,9.17-7.28,12.73-12.09,2.83-3.83,4.55-8.52,8.58-11.45,2.97.36,5.85.27,8.38-1.64,2.42-1.83,3.26-3.89.94-6.41.25-.72.68-1.32,1.27-1.79,3.73-3.9,7.48-7.77,11.21-11.66.32.22.71.39.96.34,2.43-.44,4.83-1.07,7.24-1.64-.06,1.5-.13,2.99-.19,4.49-.32-.1-.64-.16-.97-.15-1.15.46-2.65.79-2.28,2.57.15.74,1.31,1.23,2.02,1.84.35.04.69.01,1.03-.08-.19,1.8-.13,3.55.98,5.04.07.37.16.73.28,1.09.29,1.5,1.28,2.13,2.49,2.49-.62,1.1-1.24,2.2-1.86,3.3-1.71,1.42-1.95,2.84-1.32,4.26-.66-.22-1.3-.47-1.96-.68-1.14-.34-2.6-.35-3.69.07-3.66,1.41-5.21,7.93-2.81,11.17,2.09,2.82,6.09,3.82,9.55,2.21,1.35-.63,2.51-1.58,3.85-2.23.21,2.7.42,5.39.66,8.08-1.03.14-1.91.66-2.37,1.55-2.21,4.31-4.01,8.84-5.82,13.34-.26.65.13,2.23.49,2.32,1.18.31,2.65.51,3.72.07,2.65-1.09,4.27-3.11,4.31-6.19.02-1.53-.81-3.82,2.24-3.43,1.52-1.6,3.02-3.21,4.53-4.81-1.06-.54-2.11-1.09-3.17-1.63,1.46-1.3,2.42-2.83,1.66-5.36-.57-1.91.61-3.41,1.6-4.71,1.28-1.7,2.07.7,3.11.69.84,0,1.94-.33,2.45-.97,1.64-2.04,3.35-3.98,5.18-5.77,1.43,1.3,2.86,2.6,4.44,3.68.89.61,2.55.68,3.6.3,1.79-.65,2.91-2.48,2.58-4.23-.47-2.54-1.67-4.95-2.55-7.42-.39-1.08-.85-1.92-1.37-2.54,1.86-.74,3.73-1.43,5.56-2.29,1.33.17,2.45-.3,3.47-1.28,1.64,0,2.56,1.55,2.41,4.27-.13,2.18-.08,4.34.03,6.49-5.99,11.5-13.78,22.6-21.68,33.73-.02.65-.1,1.29-.24,1.92.59.61,1.22,1.2,2.15,1.83,1.07-.14,2.17-.23,3.15-.03,1.16-.32,2.32-.56,3.49-.82,3.01-2.48,5.97-4.99,8.85-7.59.52.54,1.13,1.03,1.93,1.46,2.54-1.16,4.47-2.92,5.98-5.09.18,2.92,1.36,3.68,5.04,4.18,1.88.26,3.82.36,5.58,1.03.13.05.23.05.35.08.25.23.54.45.86.66,2.16,1.4,4.47.42,5.91-2.56,1.58-1.09,3.26-2.02,4.86-3.07,2.55-1.68,5.19-2.56,8.17-1.71,1.08.31,2.1.47,3.07.55-.11.8-.22,1.58-.27,2.34-.03.46-.06,1.23.03,1.15.35-.34.84-.72,1.13-1.49.24-.65.48-1.32.71-1.98,4.84-.25,8.18-3.59,10.25-9.55.83-2.69,1.67-5.38,2.51-8.07,1.44-.72,2.43-1.83,3.14-3.49.07-.18.1-.36.17-.54.48.06.96.13,1.44.19,1.13-.98,2.43-1.81,3.32-2.97,1.71-2.23.7-4.99-1.94-6.1-.34-.15-.68-.2-1.01-.27.03-.56.02-1.13.04-1.69.44-.3.85-.53,1.16-.43,6.94,2.14,9.68-1.83,11.49-7.41,0,0,0,0,0,0,.51-.22,1.03-.43,1.54-.65.32,5.02.57,10.03-.32,15.15-.05.27-.27.52-.41.77.83,4.69.05,9.43-.86,14.05-1.07,5.46-2.65,10.81-4.01,16.2,0,0,.05.12.05.13.7,1.35.53,2.85.26,4.35-.48,2.68-1.11,5.33-1.5,8.02-1.73,11.99-3.42,23.99-5.07,36-.61,4.51-1.12,9.03-1.55,13.55-.14,1.47.02,2.99.2,4.44.05.44.61.78.99,1.06.08.07.43-.28.61-.49,1.38-1.59,1.8-3.66,2.22-5.75,1.08-5.34,2.32-10.66,3.27-16.03.87-4.93,1.7-9.86,2.55-14.79.34-.09.7-.23,1.09-.43,1.48-2.53,1.65-4.83.15-6.84,1.35-7.89,2.71-15.78,4.07-23.67.83-4.78,1.61-9.58,2.7-14.31,1.13-4.89.51-10.34,3.76-14.62.34-.45.24-1.71.03-2.44-1.42-4.8-1.77-9.74-1.66-14.76,2.44.58,4.93.79,7.49.27,0,0,.95.19,1.15.23-.8.96-1.66,1.84-3.17,1.84.04.42-.08.95.14,1.24.7.94,1.66,1.81,2.86,1.14.35-.19.66-.45.98-.69.52,2.2,1.63,4.05,4.02,5.15.33,3.9,2.66,6.24,6.16,7.42,2.74.93,5.66,2.54,8.51,1.21,4.59-2.14,5.65-6.42,5.5-11.08-.03-.97-.34-1.93-.52-2.89.35-1.71.43-3.57.76-5.3.08.07.16.13.24.2.67-.63,1.32-1.27,1.99-1.89,4.5-.85,8.9-2.2,13.11-4.17,1.36-.64,2.7-.96,4.03-1.07-1.93,3.02-2.94,6.47-3.68,10.04-.06.29.41.71.65,1.05.65.9,1.56,1.16,2.41.45,1.71-1.43,3.3-3,3.36-3.06,1.9-2.19,3.22-3.63,4.29-4.88.45.3.93.56,1.44.77.83.34,2.19.74,2.62.29.99-1.04.77-2.76.12-3.93-.66-1.21-1.43-2.34-2.19-3.48-.11-.2-.17-.41-.32-.6-.04-.05-.09-.08-.14-.12-.59-.88-1.18-1.76-1.69-2.69-.5-.9-.59-1.96-.51-3.01,5.64,8.57,11.27,17.15,16.93,25.7,3.16,4.77,6.43,9.46,9.66,14.18-.3.3-.6.6-.9.91-.09,1.41-.18,2.83-.28,4.24.69-.57,1.4-1.13,2.07-1.73.32-.28.57-.61.81-.94,1.26,1.83,2.53,3.6,4.04,4.83.22.19.62.48.64.4.07-.36.22-.82,0-1.28-.7-1.53-1.45-3.13-2.35-4.62-2.78-4.59-5.6-9.17-8.47-13.71-6.33-10-12.69-19.98-19.06-29.96.31-.58.34-1.17.15-1.47.36-.28.71-.61,1.02-1.09.17-.27.34-.44.51-.68.6-.17,1.2-.32,1.81-.46.1.18.24.35.5.49.24.14.66.09.98-.02,1.31,1.98,2.61,3.98,3.92,5.96,3.56,5.37,7.26,10.63,10.88,15.95,1.42,2.08,2.83,4.15,4.54,5.54.23.18.63.48.64.4.07-.36.22-.81,0-1.28-.7-1.53-1.44-3.13-2.35-4.63-2.78-4.59-5.59-9.17-8.47-13.71-1.43-2.27-2.89-4.53-4.32-6.8,1.11-.93,2.29-1.83,3.45-2.76,5.67,5.53,12.57,9.3,19.52,12.96,3.21,1.69,4.63-.99,6.15-3.09-5.67-3.8-9.21-9.94-14.48-14.18,1.45-.58,2.77-1.43,3.78-2.71,4.21-5.32,9.71-8.9,14.41-13.55.4-.4.72-.82.89-1.31.38.18.77.34,1.16.53-.39.03-.78.04-1.17.15-.42,1.52-1.11,2.96-.82,4.62.41,2.35,1.9,4.52,2.9,4.04,1.86-.91,2.36-2.74,2.32-4.54-.03-1.06-.53-2.11-.95-3.16,9.91,4.76,19.73,9.71,29.96,13.8,3.43,1.36,6.96,2.62,10.56,3.35,2.71.55,5.74,2.03,8.36-.52,1.46-1.43-.9-4-6.3-6.2-5.8-2.36-11.42-4.81-16.85-8.16-10.71-6.6-21.88-12.51-33.78-16.81.28-.86.25-1.76-.28-2.57.69-.26,1.4-.45,2.17-.48,2.69,1.77,3.09,1.7,3.7-.87.17-.72.19-1.49.22-2.26.08-.34.2-.67.32-.99,1.13-.9,2.04-1.89,2.65-2.97.27-.13.48-.31.8-.4.44-.14.79-1.05.92-1.66.21-1.04-1.62-6.86-2.57-8.64-.51.53-1.02,1.05-1.52,1.58-2.15-.36-3.46.71-4.18,2.59-.15.39-.25.79-.36,1.19-4.08,1.73-7.95,4.08-11.95,6.04-.42-.57-.82-1.14-1.33-1.79-.05-1.4-.09-2.8-.14-4.19.13-.78.22-1.57.33-2.36-.11.79-.2,1.58-.33,2.36,4.53-.92,8.45-2.47,11.65-4.8,0,0,.01.02.01.02.05-.03.04-.05.07-.08,4.05-2.98,6.89-7.27,7.99-13.47.51-2.9,2.91-3.4,5.52-3.4,1.63,0,3.15.29,4.62.75-.3.55-.78,1.01-1.17,1.51q1.06,2.21,2.72.73c-.11-.63-.01-1.14.24-1.56,1.23.5,2.45,1.07,3.66,1.65-.17.28-.33.57-.52.83.66.91,1.25,1.89,2.56,1.93.54-.36.97-.79,1.32-1.24,1.31.53,2.65.98,4.05,1.23.41-.04.79-.1,1.19-.16-1.42.56-2.62,1.6-3.52,3.3.42.48.85.97,1.28,1.46.49-.27.86-.21.97.23.04.16-.15.37-.23.56-.11,2.08-.96,3.76-2.73,4.92-.85,1.84-2.36,1.5-3.88,1.19-1.38,1.54-2.4,3.26-2.59,5.35-.1,1.14.07,2.3,1.32,2.79.92.36,1.84-.05,2.43-.72,1.03-1.17,1.85-2.51,2.83-3.72.83-1.03,1.92-.95,3.03-.45l4.25-3.25c.61-.68,1.21-1.36,1.82-2.04.66-2.42,1.31-4.83,1.97-7.26-.81-.92-1.62-1.83-2.43-2.74-1.08-.16-2.06-.12-3,.02,1.41-.44,2.63-1.21,3.39-2.81-.11-.71-.21-1.37-.31-2.01,1.3-.8,2.24-1.92,2.83-3.36-.59-1.96.64-3.54,1.21-5.25,2.11.43,3.94,1.46,4.96,4.09.55,1.41,1.32,2.67,2.62,3.55,1.01.68,1.91.58,2.76-.21,0,0,0,0,0,.01l.08-.08s-.01,0-.02,0c1.63-1.97,3.35-3.88,4.18-6.38.36-.03.72-.08,1.08-.17-.02-.41-.04-.81-.05-1.22.02.41.03.81.05,1.22,2.31-.01,4.63.03,6.94-.05,1.26-.04,2.56-.16,3.37-1.38,6.7,1.82,6.67,1.81,9.27-4.82.49-1.24.91-2.36.58-3.77-.25-1.06.61-1.68,1.56-1.26,2.73,1.24,4.04-.5,5.38-2.31.62-.83.14-2.54,1.4-2.68,1.83-.21,2.76-1.17,3.32-2.69.97-2.6,2.58-4.16,5.39-5.14,3.15-1.1,4.67-5.01,3.07-7.61-1.88-3.05-3.77-6.36-7.46-7.78v-.58c.04-1.3.13-2.61.08-3.91-.08-2.35,1.26-3.6,3.28-4.29,1.43-.48,2.97-.67,4.31-1.31.63-.31,1.09-1.35,1.24-2.13.18-.88-.36-1.68-1.3-1.98-1.63-.53-3.27-1.02-4.91-1.51v-.06s-.03,0-.04,0c-.01-1.09-.33-2.03-1.33-2.62.03-.22.07-.43.09-.65.13-1.41,1.02-2.69,1.14-4.09,3.31-1.44,6.61-2.92,9.89-4.46,1.64-.77,3.1-1.97,4.49-3.16.42-.36.38-1.32.4-2.02,0-.16-.6-.39-.95-.49"/>
  </g>
  <path class="cls-7" d="M423.1,103.86c3.64-.11,5.65-2.18,6.59-7.16.2-1.08-.35-2.82-1.18-3.46-1.95-1.5-6.02,0-8.16,2.89-.76,1.03-1.36,2.43-1.39,3.68-.02,1.18.81,2.37,1.18,3.36,1.23.3,2.1.71,2.96.69"/>
  <path class="cls-7" d="M286.8,47.24s.03.02.05.04c.02-.03.03-.05.05-.08l-.1.04"/>
  <path class="cls-7" d="M282.8,59.96c.61.43,1.74.64,2.4.36,2.7-1.15,3.81-3.51,4.31-6.27.51-2.84.11-5.27-2.66-6.78-2.14,3.33-4.71,6.46-5.2,10.57-.08.67.55,1.7,1.16,2.12"/>
  <path class="cls-7" d="M308.95,56.25c-.16.64.26,1.73.78,2.14.57.45,1.76.69,2.35.39,1.52-.79,2.86-1.93,3.66-2.49.91-1.43,1.49-2.13,1.82-2.93.48-1.18.97-2.46-.41-3.46-1.24-.91-2.49-.64-3.6.13-2.24,1.54-3.92,3.57-4.59,6.23"/>
  <path class="cls-7" d="M258.93,30.22c.11-.42.33-.84.33-1.26,0-1.22.35-2.79-.26-3.58-.9-1.18-2.42-.46-3.44.38-3.35,2.73-3.36,3.51-.41,8.52,1.26-1.35,2.52-2.7,3.77-4.05"/>
  <path class="cls-7" d="M468.81,113.04c.65.37,1.69.47,2.38.22.77-.28,1.33-1.09,1.7-1.43.53-.61.96-.91,1.08-1.29.33-1.1.54-2.24.79-3.36-1.26,0-2.64-.34-3.73.07-1.12.42-2.17,1.43-2.87,2.45-.76,1.12-.73,2.57.65,3.34"/>
  <path class="cls-7" d="M274.94,78.06c.46.31,1.84-.05,2.29-.56,1.3-1.48,1.16-3.22-.23-4.56-.28-.27-1.52.47-2.32.74-1.19,1.54-1.58,3.15.26,4.37"/>
  <path class="cls-7" d="M353.46,3.44c-.73-.64-1.47-1.28-2.2-1.92-1.3,1.28-2.6,2.56-3.89,3.84-.53.89-1.05,1.78-1.58,2.67,1.49,1.03,2.98,2.05,4.47,3.09,1.06-2.56,2.13-5.11,3.19-7.67"/>
  <path class="cls-7" d="M247.43,48.38c2.53.86,3.56-1.33,4.82-2.89-1.78-2.16-4.01-2.15-6.41-1.32-.2,1.69-.37,3.55,1.59,4.21"/>
  <path class="cls-7" d="M289.13,75.52c-.38,1.23.15,2.6,1.47,3.01.55.16,1.65-.52,2.06-1.11.75-1.09.97-2.37-.52-3.22-1.4-.43-2.61,0-3.02,1.33"/>
  <path class="cls-7" d="M366.81,165.63c-1.17.67-1.32,1.85-.52,3.05.72.15,1.68.66,2.16.38,1.11-.67,1.5-1.93.52-2.97-.43-.46-1.66-.74-2.16-.45"/>
  <path class="cls-7" d="M375.79,19.42c.24-.58-.01-1.97-.27-2.04-1.44-.33-2.52.5-3.01,1.78-.22.59.16,1.42.27,2.13,1.55.26,2.5-.65,3.01-1.87"/>
  <path class="cls-7" d="M288.92,26.04c.24-.44-.44-1.39-.69-2.08-1.32-.61-2.47-.23-3.08.93-.23.45.2,1.67.68,1.98,1.17.74,2.46.33,3.09-.83"/>
  <path class="cls-7" d="M246.46,370.53c-3.19-.65-4.74,2.09-6.58,4.02-.63.66-1.15,1.41-1.72,2.11.67.64,1.19,1.37,1.56,2.2,1.89,1.95,2.04,4.24,1.34,6.71,3.37,1.57,5.96,1.31,7.28-2.76.54-1.66,1.53-3.16,2.32-4.73-.25-3.17-.11-6.72-4.2-7.55"/>
  <path class="cls-7" d="M248.61,358.18c1.29,1.02,3.26,1.16,4.92,1.7,1.18-.78,2.35-1.55,3.53-2.32.47-.79.94-1.58,1.41-2.38-.02-.89-.03-1.77-.04-2.65-1.31-1.18-2.49-2.58-3.97-3.48-2.49-1.53-5.03-1.63-6.99,1.04-2.07,2.8-1.81,5.77,1.15,8.09"/>
  <path class="cls-7" d="M288.84,358.13c-.46-4.81-5-2.03-7.59-3.02-1.22-.46-2.54-.65-4.81-1.2,1.07,4.07,1.69,7.11,2.7,10.02.7,2.02,2.66,2.55,4.33,1.43,2.61-1.73,5.69-3.93,5.38-7.23"/>
  <path class="cls-7" d="M211.55,390.16c1.52,6.17,1.93,6.33,7.69,3.01-1.87-6.21-2.28-6.37-7.69-3.01"/>
  <path class="cls-7" d="M225.3,415.4c-1.84-.06-3.73.47-4.03,2.54-.16,1.07.46,2.57,1.23,3.39,1.31,1.39,3.27,1.61,4.78.42,1.34-1.06,2.27-2.64,3.38-3.98-.57-.45-1.06-.98-1.46-1.59-1.3-.27-2.59-.73-3.9-.78"/>
  <path class="cls-7" d="M411.64,240.06c-1.12.42-2.17,1.43-2.87,2.45-.76,1.12-.73,2.57.65,3.34.65.36,1.69.46,2.39.21.76-.28,1.33-1.09,1.69-1.42.54-.62.96-.91,1.08-1.29.33-1.1.54-2.24.8-3.36-1.26,0-2.64-.34-3.73.07"/>
  <path class="cls-7" d="M385.58,288.83c-1.48-1.38-3.23-.93-4.74.1-1.13.77-1.65,1.97-1.07,3.31.78,1.79,3.53,1.74,7.45-1.56-.59.47-.58-.85-1.65-1.84"/>
  <path class="cls-7" d="M174.54,350.96c.19-3.31-2.63-3.13-4.59-3.95-1.11,1.28-2.22,2.56-3.33,3.84,1.27,1.21,2.54,2.41,3.81,3.62,1.37-1.17,2.74-2.34,4.11-3.51"/>
  <path class="cls-7" d="M233.15,401.52c-.52,2.93.44,4.15,3.46,2.99.04-2.38-1.3-3.16-3.46-2.99"/>
  <path class="cls-7" d="M268.04,371.82c-.22.23-.04.84-.03,1.29.45-.02,1.07.14,1.29-.09s.04-.84.03-1.29c-.44.01-1.06-.14-1.28.09"/>
  <path class="cls-7" d="M44.04,290.49c-2.97,1.32-3.14,2.02-1.28,5.54,1.73-.32,2.86-1.02,2.04-3.07-.32-.8-.51-1.64-.76-2.47"/>
  <path class="cls-7" d="M47.19,264.21c-.34,1.37-.68,2.74-1.02,4.11,3.49-.35,4.13-.95,3.46-3.91-.43-1.88-1.55-.9-2.44-.2"/>
  <path class="cls-7" d="M45.54,280.3c-1.46,2.02-1.35,2.27,1.21,2.92.22-1.23.07-2.31-1.21-2.92"/>
  <path class="cls-7" d="M313.32,323.79c.5.98,1.22,1.86,1.95,2.71.11.13,1.09-.2,1.09-.31-.06-1.98-.2-3.96-.38-6.83-2.85,3.65-3.02,3.73-2.66,4.43"/>
  <path class="cls-7" d="M308.86,344.17s.07,0,.1,0c.02-.03.02-.05.03-.08-.05-.02-.09-.02-.14-.03,0,.04,0,.07.01.1"/>
  <path class="cls-7" d="M308.99,344.1c1.29.35,2.56.28,3.84-.07.06-.88.12-1.77.18-2.65-2.99.13-3.07.17-4.02,2.72"/>
  <path class="cls-7" d="M307.02,344.27c-.83.36-1.26,1.14-1.06,2.13.14.69.49,1.21,1.22,1.26,1.1.06,1.53-.77,1.73-1.62.13-.58,0-1.23-.04-1.86-.63,0-1.32-.13-1.85.1"/>
  <path class="cls-7" d="M324.08,340.02c0-.87-.05-1.97-.97-2.11-1.41-.21-1.63,1.04-1.8,2.13.93,0,1.85-.01,2.77-.01"/>
  <path class="cls-7" d="M121.7,68.92c1.19.2,1.75-2.07.92-3.96-.27-.6-.68-1.16-1.1-1.67-.45-.54-1.11-.88-1.77-.47-.3.18-.39.72-.58,1.14.1.64.19,1.31.33,1.96.28,1.33.55,2.72,2.2,3"/>
  <path class="cls-7" d="M54,118.2c1.56-1.99,2.17-4.38,2.44-6.85-2.7,1.5-4.41,3.85-5.65,6.6.97,1.38,2.1,1.66,3.2.25"/>
  <path class="cls-7" d="M99.66,138.17c.1-.66.06-1.34.08-2.02-.89-1.1-1.78-2.21-2.67-3.31-.12.89-.27,1.78-.35,2.67-.11,1.14,0,2.27.73,3.21.26.32.65.69,1.02.74.88.11,1.1-.64,1.2-1.3"/>
  <path class="cls-7" d="M199.42,80.23c1.28-.94,2.48-1.97,2.16-3.79-.06-.34-.51-.82-.82-.85-1.49-.16-2.66,1.89-2.31,3.96.03.19.23.35.35.53.21.06.52.23.63.16"/>
  <path class="cls-7" d="M74.46,152.44h0c-2.28-.06-3.56,1.63-5.05,2.94-.15,1.04.11,1.93.93,2.63,2.29-1.17,3.7-3.01,4.13-5.56"/>
  <path class="cls-7" d="M135.39,108.66c.45-.11.93-1.02.96-1.58.09-1.61-.31-3.11-2.42-4.63-.13,2.02-.31,3.35-.25,4.68.04.94.64,1.81,1.7,1.53"/>
  <path class="cls-7" d="M100.82,103.37c.44-.09.91-.86,1.01-1.39.11-.57-.05-1.29-.32-1.83-.35-.71-1.11-.71-1.57-.18-.38.44-.46,1.14-.63,1.59.3.95.28,2.08,1.51,1.81"/>
  <path class="cls-7" d="M312.75,16.22c.41-.13.98-.14,1.15-.4.64-1.03.55-2.09-.46-2.84-.57-.42-1.26-.17-1.53.51-.43,1.09-.31,2.09.84,2.73"/>
  <path class="cls-7" d="M59.31,144.5c1.51-.93,2.15-2.38,2.45-4.04-1.4-.39-2.72-.46-3.46,1.11-.59,1.26.11,2.14,1.01,2.92"/>
  <path class="cls-7" d="M111.81,108.3c-1.06-2.33-1.11-2.36-3.1-1.4.87,2.71.9,2.72,3.1,1.4"/>
  <path class="cls-7" d="M209.19,64.95c.77.01.99-.66.97-1.06-.16-1.02-.58-1.56-1.33-1.45-.24.04-.5.71-.53,1.11-.05.64.1,1.39.89,1.4"/>
  <path class="cls-7" d="M291.18,41.82c.31-.13.45-.68.63-.98-.13-.88-.72-1.19-1.42-1-.29.08-.6.73-.58,1.09.05.79.64,1.18,1.38.89"/>
  <path class="cls-7" d="M104.4,186.46c-.24-.61-.96-.86-1.58-.55-.28.14-.52.7-.48,1.03.08.68.51,1.13.92,1.06,1.1-.32,1.39-.94,1.14-1.55"/>
  <path class="cls-7" d="M138.75,95.89c.03.27.49.5.76.75.29-.23.76-.42.8-.69.06-.32-.18-.96-.4-1.02-.68-.16-1.23.2-1.17.96"/>
  <path class="cls-7" d="M95.12,187.2c.94-.07,1.88-.15,2.82-.22-.45-1.04-.9-2.09-1.35-3.13-1.48.68-1.65,1.94-1.47,3.35"/>
  <path class="cls-7" d="M376.86,343.04c-1.11-.2-3.01,1.59-3.04,2.79,0,.16.17.41.32.48.89.43,1.66-.03,2.4-.42.81-.42,1.4-1.01,1.19-2.01-.3-.31-.54-.79-.86-.84"/>
  <path class="cls-7" d="M65.22,171.08c.78-.05,1.11-1.8.95-2.91-.3-2.14-2.64-2.96-3.03-4.99-.19.13-.38.26-.57.39-.14,1.32-.33,2.64-.38,3.96-.03.63.07,1.34.36,1.88.55,1.01,1.43,1.75,2.66,1.67"/>
  <path class="cls-7" d="M75.08,205.72c.44-.2.84-1.09.79-1.63-.19-1.9-1.7-3-2.9-4.28-.32.17-.65.29-1.01.34.46,1.69.83,3.41,1.45,5.03.14.37,1.26.73,1.67.54"/>
  <path class="cls-7" d="M83.6,176.73c.52.8,1.3,1.51,2.24,1.19.99-.33,1.12-1.36.78-2.28-.31-.84-.78-1.63-1.18-2.43-2.55.74-3.04,1.67-1.84,3.52"/>
  <path class="cls-7" d="M85.42,173.18s.01.02.02.04h0s-.02-.04-.02-.04"/>
  <path class="cls-7" d="M70.18,257.93c-.47-.28-1.3-.29-1.83-.09-.72.27-.73,1.08-.56,1.75.3,1.19,1.08,1.93,2.89,2.32.29.08.7-.49.87-1.16.33-1.27-.38-2.22-1.36-2.82"/>
  <path class="cls-7" d="M57.83,174.76c-.48.31-.96.62-1.44.93-2.45.4-3.79,1.82-3.96,4.3,2.49-.17,3.99-1.4,4.25-3.97.36-.09.73-.16,1.11-.22,0-.34.02-.69.05-1.04"/>
  <path class="cls-7" d="M76.31,277.76c-.62,1.34.76,2.46,2.24,2.84.43.11.91.04,1.37.06-.09-.86-.19-1.72-.29-2.58-1.12-.38-2.41-2.32-3.32-.32"/>
  <path class="cls-7" d="M94,315.55c.15.28.21.58.17.9,1.21,1.14,2.55,1.95,4.32,1.54.04-.48.08-.96.11-1.45-1.32-1.33-2.8-1.9-4.6-.99"/>
  <path class="cls-7" d="M99.73,281.47c.74-.31.93-.92.63-1.52-.13-.27-.75-.5-1.07-.43-.71.18-.98.8-.6,1.43.17.29.71.36,1.04.52"/>
  <path class="cls-7" d="M93.57,301.77c-1.12,0-.9,1.19-.95,2,.87.24,1.74.48,2.6.72.25-1.4.05-2.72-1.66-2.72"/>
  <path class="cls-7" d="M85.54,244.55c.13-.38.01-.83,0-1.26-.92.07-1.84.13-2.76.19.2.58.26,1.3.64,1.73.88,1.02,1.66.76,2.12-.67"/>
  <path class="cls-7" d="M108.92,287.65c-1.73-.23-3.62-1-4.56,1.37,1.79.43,3.47.52,4.56-1.37"/>
  <path class="cls-7" d="M89.4,298.44c-.18-.47-.79-.84-1.29-1.1-.33-.17-.81-.07-1.22-.1.4.94.8,1.87,1.2,2.8.8-.24,1.71-.52,1.31-1.6"/>
  <path class="cls-7" d="M52.15,180.43c.09-.14.18-.27.28-.4,0-.02,0-.02,0-.04-.02,0-.02.01-.04.01-.08.14-.16.28-.24.43"/>
  <path class="cls-7" d="M374.64,309.98c.03,1.23.06,2.47.09,3.71,1.82-.09,3.65-.14,5.46-.3.29-.03.69-.6.73-.97.05-.36-.17-.92-.46-1.15-1.71-1.39-3.68-1.77-5.82-1.29"/>
  <path class="cls-7" d="M368.22,311.04c2.29-.38,4.58-.76,6.86-1.13-3.63-2.55-4.97-2.33-6.86,1.13"/>
  <path class="cls-7" d="M376.57,235.18c.45.46.9.92,1.34,1.38.21.04.42.07.63.13.54.16,1.24.69,1.56-.01.3-.65-.28-1.16-.99-1.26-.84-.11-1.69-.17-2.54-.24"/>
  <g class="cls-2">
    <path class="cls-7" d="M500.56,264.04c-.31.8-.74,1.55-1.12,2.33,3.08,1.05,3.68.64,4.7-3.2-1.49-.94-2.8-1.19-3.58.88"/>
  </g>
  <path class="cls-7" d="M477.65,281.76c-.96,1.67.53,1.71,1.66,1.8,1.17-.78,2.35-1.55,3.53-2.33-2.8-2.11-3.67-2.11-5.19.53"/>
  <path class="cls-7" d="M491.42,272.85c2.44-.49,2.53-.75,1.08-2.97-.99.76-1.62,1.65-1.08,2.97"/>
  <path class="cls-7" d="M401.45,118.33c-.76-.26-1.5-.51-2.25-.77h0c.75.26,1.49.51,2.25.77,1.29-.18,2.59-.37,3.88-.55,1.26-1.88,2.45-3.81,4.57-4.86-2.18-.88-1.71-3.35-2.9-4.82-.62.49-1.27.57-1.97.17-3.1.26-5.24,1.98-6.88,4.49-.14.52-.29,1.04-.43,1.55.33.34.47.76.43,1.22-.91.91-1.81,1.81-2.72,2.72,2.1,2.54,2.8,2.55,6.01.08"/>
  <path class="cls-7" d="M409.96,112.88s-.04.03-.06.04c.02,0,.03.02.05.03l.02-.07"/>
  <path class="cls-7" d="M324.05,59.34c.3-1.06.36-2.2.41-3.31,0-.17-.94-.59-1.01-.51-1.3,1.49-2.54,3.05-4.35,5.28,4.57-.75,4.74-.7,4.95-1.45"/>
  <path class="cls-7" d="M341.15,47.38l-.07-.07s-.05.02-.08.04c.03.04.06.07.08.12.02-.03.04-.06.07-.08"/>
  <path class="cls-7" d="M341,47.34c-.7-1.14-1.69-1.94-2.87-2.55-.65.6-1.29,1.21-1.93,1.82,2.29,1.93,2.38,1.96,4.8.73"/>
  <path class="cls-7" d="M344.8,47.72c.36-.6.46-1.22-.05-1.76-.77-.79-1.65-.47-2.37.02-.49.34-.83.91-1.22,1.4.46.42.88.98,1.42,1.18.86.3,1.7.02,2.22-.84"/>
  <path class="cls-7" d="M388.12,110.65c-.49.57-.44,1.24.18,1.68.58.41,1.19.23,1.7-.25.45-.62.43-1.25-.19-1.69-.57-.41-1.24-.28-1.69.26"/>
  <path class="cls-7" d="M329.18,41.98c-.68-.62-1.36-1.24-2.04-1.86-.59.64-1.3,1.48-.71,2.21.89,1.1,1.9.34,2.76-.35"/>
  <path class="cls-7" d="M331.83,37.04c-2.27-1.36-2.47-1.29-2.92,1.14,1.2.19,2.14-.27,2.92-1.14"/>
  <path class="cls-7" d="M396.08,105.61c-.33,1.26.22,2.18,1.13,2.97,1.58-2.4,1.56-2.44-1.13-2.97"/>
  <path class="cls-7" d="M379.05,293.73c-3.2,2.36-3.2,6.3-4.69,9.49,3.65.11,6.2-1.52,7.53-4.83.43-1.06.55-2.16-.02-3.21-.6-1.1-1.74-1.24-2.83-1.45"/>
  <path class="cls-7" d="M326.38,345.52c-.07-.9-.29-1.74.52-2.43-.31-.3-.53-.66-.66-1.07-.53-.69-1.06-1.39-1.58-2.08-1.19,1.27-2.46,2.47-3.56,3.82-.93,1.15-.79,2.43.14,3.59.9.07.9.72,1.02,1.41.15.85.49,1.67.76,2.49,1.07-.82,2.14-1.63,3.2-2.45.07-1.1.25-2.2.17-3.29"/>
  <path class="cls-7" d="M292.13,376.61c-.74-.95-2.69.34-3.36,2.29-.21.6-.28,1.27-.31,1.92-.64.62-1.27,1.24-1.91,1.86.21,1.34.42,2.69.63,4.03,3.9.83,6.07-1.29,7.6-4.48-.97-.71-1.95-1.42-2.93-2.14.65-1.1,1.24-2.23.29-3.47"/>
  <path class="cls-7" d="M352.11,379.98c-.28.21-.46.85-.34,1.17.13.33.68.72,1.03.69,2.45-.16,4.9-.43,7.03-1.81.24-.16.2-.78.29-1.18-.36-.25-.69-.65-1.08-.71-2.57-.41-4.88.32-6.93,1.84"/>
  <path class="cls-7" d="M333.1,320.65c-1.42,1.6-2.55,3.48-4.67,4.35-.11.05-.08.87.12,1.16.22.31.75.61,1.1.57,1.92-.23,2.83-1.97,4.3-2.99.37-.51.92-1,1.09-1.6.16-.55-.09-1.22-.16-1.83-.61.1-1.47-.02-1.8.34"/>
  <path class="cls-7" d="M375.31,386.28c-2.49.41-4.56,1.75-6.44,3.38,3,.72,5.85.16,8.62-1.02.22-1.67-.42-2.65-2.18-2.36"/>
  <path class="cls-7" d="M349.95,354.23c-.72-.29-1.41.09-1.7.67-.72,1.41-1.29,2.9-1.91,4.35,1.73.78,2.56-.73,3.69-1.47.25-.64.55-1.26.73-1.91.22-.76-.1-1.36-.81-1.65"/>
  <path class="cls-7" d="M383.48,347.23h0c1.65,1.6,3.72,1.22,5.7,1.28.82-.66,1.22-1.49,1.1-2.56-2.48-.69-4.76-.3-6.81,1.29"/>
  <path class="cls-7" d="M309.23,340.39c.61-.72.76-1.76-.22-2.28-.41-.22-1.38.11-1.79.51-1.16,1.12-1.88,2.49-1.35,5.04,1.46-1.4,2.51-2.26,3.36-3.28"/>
  <path class="cls-7" d="M319.28,337.51c-1.44,1.24-1.77,3.01-2.41,4.64,3.13.24,3.91-2.36,5.24-4.3-.86-.77-1.7-1.34-2.84-.34"/>
  <path class="cls-7" d="M329.16,365.78c-.48.34-.84.98-1.01,1.56-.22.76.33,1.28,1.03,1.19.58-.07,1.11-.52,1.55-.74.42-.9,1.2-1.72.11-2.35-.39-.22-1.24.02-1.68.34"/>
  <path class="cls-7" d="M384.69,364.64c.77,1.23,1.7,2.19,3.3,1.54,1.29-.53,1.38-1.65,1.24-2.84-1.73-.34-3.19.29-4.54,1.3"/>
  <path class="cls-7" d="M326.1,354.36c-.8,2.44-.78,2.49,1.34,3.14,1.19-2.58,1.18-2.61-1.34-3.14"/>
  <path class="cls-7" d="M262.03,391.72c-.34.47-.58,1.23-.47,1.78.17.81,1.7.91,2.24.18.43-.58.41-1.23-.06-1.89-.43-.52-1.29-.67-1.71-.07"/>
  <path class="cls-7" d="M384.53,301.93c-.23.62.13,1.28.79,1.47.3.09.86-.16,1.06-.43.4-.55.39-1.18.04-1.4-1.03-.52-1.66-.24-1.89.36"/>
  <path class="cls-7" d="M315.49,346.4c-.19-.62-.38-1.24-.57-1.86-.22.75-.79,1.6.57,1.86"/>
  <path class="cls-7" d="M296.77,344.12c-.27.2-.52.83-.4,1.02.39.59,1.04.69,1.51.09.16-.21-.03-.7-.05-1.07-.36-.03-.84-.2-1.06-.04"/>
  <path class="cls-7" d="M391.86,307.67c-.74-.58-1.48-1.16-2.22-1.74-.38,1.07-.76,2.15-1.14,3.22,1.55.5,2.53-.31,3.35-1.47"/>
  <g class="cls-5">
    <path class="cls-7" d="M294.52,2.13c.11-.12.16-.42.09-.57-.36-.92-1.23-1.09-2.05-1.32-.88-.23-1.71-.21-2.23.67.01.43-.14.95.06,1.21.68.89,3.29.87,4.13.01"/>
  </g>
  <path class="cls-7" d="M408.71,253.59c-1.01.43-2.13.6-3.2.89.51.45,1.44.89,1.46,1.36.11,2.74,2.22,3.05,4.13,3.67,1.42.47,2.1-.36,2.67-1.44.32-.6.61-1.23.92-1.84-.38-2.57-2.63-3.51-4.29-4.95.1,1.22-.72,1.89-1.69,2.31"/>
  <path class="cls-7" d="M425.96,231.14c-1.14.69-2.28,1.38-3.42,2.07-.61,1.12-1.58,2.11-1.42,3.53.16,1.29.26,2.66,2.09,2.65.5-.69,1.05-.81,1.68-.16,1.23.11,2.39,0,3.35-.9.19-.41.38-.81.57-1.22,1.03-2.93-.09-4.84-2.84-5.97"/>
  <path class="cls-7" d="M389.33,263.58c1.66,1.05,3.04.53,4.26-.79.62-.67,1.19-1.39,1.79-2.08-.14-1.61.9-2.71,1.69-3.92-1.25-1.74-2.46-1.37-3.69.04-1.7,1.95-3.47,2.59-5.51.36-.67-.73-1.61-.43-2.45-.12-.23.42-.46.84-.7,1.26,1.9,1.43,4.27,2.45,4.63,5.24"/>
  <path class="cls-7" d="M416.71,297.21c.09.29-.02.46-.32.52.28,2.16,1.1,4.3.14,6.49,3.35-2.07,4.69-4.93,3.48-8.8-1.46-.06-2.38.85-3.29,1.8"/>
  <path class="cls-7" d="M400.24,341.28c-1.23,1.78-.07,3.96-1.16,5.72.23.03.45.07.68.1.99-.88,2.03-1.72,2.96-2.65.44-.44.86-1.03,1.01-1.63.29-1.11.14-2.25-.82-3.03-.6-.48-2.04.57-2.67,1.49"/>
  <path class="cls-7" d="M385.73,241.97c.35.11.96,0,1.2-.24.77-.82,1.41-1.76,2.1-2.65-.02-1.19-.05-2.39-.07-3.58-3.6,1.05-4.56,2.32-4.08,5.56.05.35.49.79.85.91"/>
  <path class="cls-7" d="M423.67,265.03c.93.27,1.79.14,2.61-.36.06-.47.25-.88.57-1.22-.13-1.05-.22-2.11-.4-3.16-.11-.65-.55-1.29-1.22-1.17-.52.09-1.13.58-1.39,1.06-.28.52-.2,1.23-.28,1.86-.83.22-1.74.31-2.48.7-1.59.86-1.75,2.14-.66,4.04l3.11-3.69c.11-.17.17-.34.17-.52,0,.18-.06.35-.17.52.04.65.08,1.3.13,1.95"/>
  <path class="cls-7" d="M406.49,243.04c-1.09.74-2.18,1.47-3.27,2.2q1.41,2.78,3.81,1.98c.24-.47.49-.94.73-1.41l-1.27-2.78"/>
  <path class="cls-7" d="M425.09,300.81c-.51,1.26-.9,2.61.28,3.72.76.71,1.93-.4,2.91-2.79.17-.4.16-.88.23-1.32-.75-.41-1.5-.82-2.25-1.22-.4.54-.93,1.02-1.17,1.61"/>
  <path class="cls-7" d="M419.15,307.64c-.46-.15-1.35.23-1.68.67-1.15,1.52-.79,3.36-.77,5.11.35.09.68.23.97.43.81-1.55,1.7-3.07,2.35-4.68.15-.36-.43-1.39-.87-1.53"/>
  <path class="cls-7" d="M422.66,247.85c-.05-1.38-1.23-1.58-2.34-1.7-1.26,1.51-1.54,3.17-.77,4.99,2.16-.03,3.18-1.26,3.11-3.3"/>
  <path class="cls-7" d="M413.14,250.26c1.43.06,1.54-1.07,1.68-2.11-.99-.8-1.96-1.43-3.31-.53-.42.29-1.17.09-1.77.13-.66.61-1.3,1.23-1.96,1.85v.08c.88.47,1.76.94,2.63,1.41l-.02.02-.09.09h0s.07.06.1.09c0-.07.02-.11,0-.18.77-.71,1.68-.9,2.73-.85"/>
  <path class="cls-7" d="M425.44,228.38c.14-.18.28-.36.39-.56.45-.84.77-1.89.11-2.55-1.15-1.16-2,.06-2.88.7q-.53,2.72,1.55,3.5c.28-.36.56-.73.83-1.09"/>
  <path class="cls-7" d="M392.39,320.79c-.95-.43-1.74.24-2.11,1.15-.34.83-.53,1.72-.78,2.58,2.39,1.18,3.38.83,3.74-1.34.16-.94.07-1.98-.84-2.39"/>
  <path class="cls-7" d="M389.48,324.56s0-.03.01-.04v.04"/>
  <path class="cls-7" d="M459.05,269.59c-1.1.71-1.23,1.89-.91,2.99.16.53.76,1.09,1.29,1.31.72.29,1.27-.3,1.6-.91.58-1.08.51-2.15-.56-3.66-.15-.26-.84-.11-1.42.27"/>
  <path class="cls-7" d="M431.42,245.31c-.85.51-1.24,1.4-1.04,2.25.39,1.7,1.69,1.79,3.11,1.38.41-.82.82-1.64,1.22-2.45-.88-1.03-1.73-2.11-3.29-1.18"/>
  <path class="cls-7" d="M412.54,341.96c-.33-.19-.65-.39-.96-.59-.24.25-.49.49-.74.73.56.1,1.13.2,1.69.3,2.07,1.36,4.02,1.22,5.83-.48-1.95-1.56-3.89-1.67-5.82.05"/>
  <path class="cls-7" d="M418.36,341.92s.02.01.03.02c.15-.05.31-.1.47-.15-.16.04-.32.07-.47.11-.01,0-.02.01-.03.02"/>
  <path class="cls-7" d="M466.39,249.28c-.52.69-1.03,1.39-1.54,2.08.57,1.04.2,3.34,2.23,2.49,1.36-.57,1.11-2.33.28-3.6-.24-.38-.64-.65-.96-.97"/>
  <path class="cls-7" d="M361.08,155.83c1.3-.06,2.59-.11,3.9-.17.36-1.69-.38-2.46-2.04-2.4-1.68.06-2.33.92-1.85,2.57"/>
  <path class="cls-7" d="M479.69,214.08c.08-.31.25-.57.49-.78-.13-1.66-.56-3.17-2.14-4.06-.36.33-.71.66-1.07.99.07,1.87.78,3.3,2.71,3.85"/>
  <path class="cls-7" d="M450.88,235.94c-.08.29.21.88.5,1.04.65.36,1.27.08,1.42-.64.07-.33-.28-.76-.42-1.08-.76-.28-1.3.04-1.5.69"/>
  <path class="cls-7" d="M472.72,223.68c-.47-.77-.95-1.54-1.42-2.3-1.13.87-1.88,1.96-.63,3.13.82.77,1.47-.27,2.05-.83"/>
  <path class="cls-7" d="M437.78,272.01c-.34.2-.57.61-.84.92.72.58,1.43,1.16,2.15,1.73.25-.57.69-1.13.71-1.71.04-1.35-.71-1.68-2.02-.94"/>
  <path class="cls-7" d="M398.6,257.94l.98,2.45c.39-.68,1.21-1.47,1.07-2.01-.22-.83-1.23-.85-2.05-.45"/>
  <path class="cls-7" d="M449.82,224.48c1.11,1.34,1.98,3.19,4.29,2.09-1.03-1.53-2.21-2.73-4.29-2.09"/>
  <path class="cls-7" d="M471.48,229.78c-.19.46.02,1.16.2,1.68.13.35.55.6.83.9.34-.96.67-1.92,1.01-2.88-.76-.36-1.61-.78-2.05.29"/>
  <path class="cls-7" d="M440.26,232.61c-.56,1.36.05,2.34,1.05,3.19.78-1.44.15-2.41-1.05-3.19"/>
  <path class="cls-7" d="M269.62,27.92c.81-.93,1.63-1.85,2.44-2.78-1.4-1.17-2.77-2.38-4.21-3.48-.23-.17-.92-.03-1.2.21-.28.24-.49.79-.44,1.17.32,2.18,1.51,3.79,3.41,4.89"/>
  <path class="cls-7" d="M275.05,31.49c-1.94-1.28-3.88-2.55-5.81-3.82.94,4.33,2.08,5.08,5.81,3.82"/>
  <path class="cls-7" d="M246.07,69.78c.92.17,1.67-.28,2.2-1.07.57-.85.56-1.68-.24-2.29-.86-.65-1.6-.09-2.27.49-.66.83-.49,2.72.31,2.87"/>
  <path class="cls-7" d="M260.58,67.95c.45-.1,1.29-.04,1.58-.42.59-.72.52-1.76-.33-2.26-.42-.24-1.46-.07-1.74.3-.54.68-.61,1.61.49,2.38"/>
  <g class="cls-3">
    <path class="cls-7" d="M3.26,233.59c-.9-.17-1.82-.21-2.73-.31-.09.24-.26.34-.52.29-.02.79.19,1.56,1.04,1.67.93.12,1.83-.21,2.53-.88.08-.07-.17-.74-.33-.77"/>
  </g>
  <g class="cls-4">
    <path class="cls-6" d="M260.58,487.14c-1.45-.84-2.08-2-2.41-4.43-.27-2.03-.61-2.81-1.76-4.09-1.34-1.49-1.6-4.02-.69-6.43.33-.86,1.35-2.41,2.49-3.76,1.06-1.27,1.99-2.57,2.06-2.91.08-.34.27-1.32.44-2.19.42-2.17,1.11-2.99,2.52-2.99,2.38,0,3.61,1.83,3.65,5.4.03,2.05-.05,2.41-.86,3.83-1.21,2.15-1.18,3.46.21,7.75,1.98,6.11,2.01,7.27.17,9.27-.86.94-1.04,1.01-2.82,1.1-1.58.07-2.08-.02-2.99-.55ZM211.64,469.6c-1.02-.56-2.05-2.41-2.46-4.46-.55-2.69-.05-4.69,2.36-9.5,2.8-5.55,3.31-7.19,4.57-14.32.3-1.71.85-4.02,1.22-5.14,1.25-3.71,4.99-11.35,7.45-15.2,3.01-4.71,4.13-6.95,5.02-10.09,1.24-4.38,1.46-7.42.54-7.78-.77-.3-4.77,2.7-7.42,5.57-2.81,3.03-4.69,4.35-7.61,5.34-2.92.99-5.7.73-7.31-.69-.84-.74-2.26-3.11-2.77-4.61-.71-2.13-.6-3.92.36-5.59.97-1.7,2.44-2.81,6.38-4.83,2.29-1.18,3.34-1.94,4.99-3.57,3.17-3.15,4.15-5.58,4.14-10.35,0-3.4-.48-4.08-4.15-5.92-3.76-1.88-6.1-2.4-9.83-2.17-3.55.21-4.58.46-8.12,1.98-4.49,1.92-7.64,4.15-12.01,8.51-2.09,2.08-4.82,4.54-6.08,5.47-5.72,4.24-15.42,7.52-18.89,6.37-2.44-.81-3.76-2.85-3.77-5.87-.02-3.37,1.37-6.59,3.8-8.87,1.56-1.45,2.95-2.23,5.71-3.16,3.78-1.29,5.21-2.59,5.6-5.1.41-2.67,1.8-4.28,5.11-5.95,2.33-1.18,4.4-1.68,8.48-2.06,7.02-.67,12.86-3.71,14.81-7.72.52-1.06.63-1.74.62-3.92-.02-4.25-1.07-6.26-4.1-7.81-1.95-.99-2.9-1.88-3.67-3.46-1.03-2.1-1-3.91.11-7.31.93-2.84.92-3.57-.04-4.64-.76-.84-6.33-4.79-7.84-5.54-.64-.32-2.52-.96-4.18-1.41-3.54-.96-4.03-1.16-6.43-2.61-2.19-1.33-3.36-1.48-6.98-.89-3.61.58-5.26.54-7.43-.2-3.81-1.3-7.23-4.02-8.48-6.73-1.8-3.94.03-8.21,4.18-9.77,3.01-1.13,5.1-.74,9.41,1.73,2.99,1.72,7.24,3.55,8.59,3.7l1.12.13v-1.53c0-1.82.65-2.68,2.54-3.4,2.51-.96,4.35-.11,7.26,3.35,2.7,3.2,4.61,4.3,9.21,5.27,2.07.44,4.41.55,4.39.2,0-.11-.8-.79-1.77-1.51-1.78-1.32-2.93-3.02-2.93-4.34,0-1.55,1.55-3.21,3.28-3.53.55-.1,1.18-.27,1.39-.38.59-.32-3.17-4.1-6.01-6.05-4.22-2.89-6.03-5.35-6.34-8.65-.17-1.84.35-3.08,1.57-3.72,1.71-.88,3.12-.42,6.63,2.18,1.31.97,3.5,2.45,4.87,3.3,1.37.84,3.93,2.79,5.68,4.33,3.58,3.15,5.81,4.44,7.68,4.44,1.41,0,2.04-.28,3.44-1.53,2.17-1.94,4.16-1.48,7.97,1.82,3.66,3.18,5.44,3.95,6.47,2.81.25-.28.49-.79.53-1.14.07-.56-.18-.73-1.91-1.41-4.3-1.67-6.33-3.32-8.2-6.67-1.19-2.13-1.85-4.51-1.86-6.62,0-3.15-.94-7.07-2.06-8.61-.38-.53-.93-1.4-1.23-1.95s-1.63-2.04-2.94-3.32c-2.6-2.53-3.81-4.16-5.65-7.59-1.54-2.88-2.39-3.9-7.25-8.72-6.66-6.6-12.03-14.19-13.41-18.95-.71-2.45-.47-5.94.54-8.02,1.3-2.67,4.23-4.25,7.35-3.97,3.97.36,6.34,3.08,7.66,8.75.22.98.58,2.11.79,2.51.2.39,1.66,1.92,3.24,3.39,4.4,4.08,6.02,6.49,7.95,11.81.45,1.27,1.55,3.39,2.42,4.71,1.93,2.93,6.16,7.22,8.96,9.11,2.83,1.91,4.43,3.36,6.07,5.56,1.54,2.06,2.11,3.36,3.2,7.26,1.48,5.33,3.28,7.74,6.62,8.85,5.42,1.81,9.64.44,11.7-3.79.68-1.38.72-1.65.45-2.81-.16-.71-.65-2.09-1.07-3.08-.42-.99-.78-2.27-.78-2.83-.03-1.88,1.87-3.63,4.27-3.96,1.69-.23,2.34-.95,2.73-2.99.16-.83.24-5.57.2-11.27-.08-11.29.11-10.3-2.97-15.02-3.02-4.64-3.43-5.78-3.41-9.62.01-2.65.12-3.45.65-4.8,1.1-2.8,2.92-4.34,5.1-4.34,1.72,0,2.67-.95,4.34-4.35,1.69-3.45,2.8-4.78,4.84-5.82,4.67-2.38,9.21.17,10.38,5.83.52,2.49-.12,4.8-2.73,9.94-4.1,8.06-4.51,10.63-3.27,20.57.24,1.98.56,5.54.7,7.92.3,5.09.54,5.8,3.17,9.18,3.05,3.93,3.73,5.47,4.65,10.44.3,1.58.79,3.41,1.09,4.04.32.67,1.55,2.05,2.91,3.29,1.94,1.77,2.45,2.1,2.97,1.94.9-.28,4.47-3.82,8.09-8.01,5.33-6.17,7.57-7.99,10.73-8.71,1.79-.41,3.28-.33,4.54.23,3.33,1.52,3.34,5.11.03,7.3-.79.53-2.17,1.38-3.06,1.9-2.19,1.27-5.03,4.32-6.05,6.5-.89,1.9-1.42,4.71-1.15,6.15.21,1.17.8,1.54,4.06,2.56,3.02.95,4.19,1.78,4.96,3.54.41.92.49,1.53.35,2.55-.17,1.21-.12,1.38.48,1.78,1.85,1.21,5.2.63,10.66-1.87,6.48-2.97,10.07-3.68,14.36-2.87,3.2.61,4.41.29,7.99-2.1,4.51-3.01,6.74-5.34,10.52-10.99,3.73-5.56,7.2-8.16,12.78-9.57,3.49-.89,6.05-.9,7.31-.05,2.03,1.39,2.66,3.43,1.81,5.97-.77,2.31-2.07,3.71-5.63,6.03-9.68,6.32-10.07,6.66-13.38,11.46-2.76,4.02-2.97,4.48-2.38,5.38.26.39.95.95,1.53,1.25,3.31,1.69,4.78,4.81,3.37,7.14-.67,1.09-1.88,1.74-3.23,1.74-.57,0-2.54-.51-4.36-1.14-2.85-.98-3.75-1.17-6.33-1.29-3.85-.18-5.71.3-9.1,2.35-3.3,2-5.2,2.74-9.47,3.71-4.1.92-4.82,1.24-5.98,2.66-1.46,1.77-1.43,2.55.19,5.75,2.18,4.28,2.19,4.76.23,7.06-.67.78-1.28,1.76-1.36,2.17-.08.41-.04,2.42.08,4.48.3,4.95.8,6.3,3.28,8.81,1.02,1.03,2.61,2.33,3.54,2.9,3.44,2.08,8.9,3.96,15.47,5.32,5.77,1.2,7.06,1.88,16.54,8.62,6.85,4.89,8.61,6.45,9.71,8.67,2.17,4.38-.64,9.55-4.91,9.05-1.97-.23-5.38-2.01-8.32-4.34-3.32-2.63-4.28-3.16-8.7-4.86-2.07-.8-5.32-2.19-7.22-3.1-7.12-3.39-12.06-4.77-17.07-4.76-3.06,0-4.96.35-5.74,1.05-.29.26-.97,1.15-1.51,1.99s-1.58,2.21-2.33,3.05c-1.69,1.9-2.09,2.65-2.46,4.64-.41,2.19-1.14,3.5-3.23,5.75-.99,1.06-2.13,2.63-2.53,3.46-.71,1.51-.72,1.62-.72,7.77v6.24l1.04,2.09c1.25,2.52,2.97,4.3,8.23,8.48,2.05,1.63,4.2,3.58,4.78,4.34,1.21,1.6,2.46,4.68,3.31,8.11.7,2.83.84,7.82.29,9.67-.81,2.67-2.94,4.08-6.15,4.08-2.41,0-3.81-.59-5.22-2.2-1.13-1.28-1.54-2.31-2.24-5.56-.69-3.19-1.56-4.99-3.29-6.84-1.64-1.75-2.67-2.45-7.06-4.79-4.96-2.64-5.55-3.34-9.2-10.81-3.06-6.26-3.64-7.03-5.77-7.62-2.26-.62-2.88.91-2.27,5.56.51,3.85.19,5.45-1.31,6.83-1.89,1.73-3.7,1.74-6.19.05-.64-.43-1.36-.78-1.61-.78-.71,0-1.98.76-2.61,1.55-.87,1.1-1.08,2.27-1.4,7.72-.16,2.74-.43,6.29-.61,7.88-.26,2.31-.24,3.66.07,6.78.21,2.15.38,5.52.36,7.49-.03,4.24-.52,5.92-2.4,8.04-3.41,3.87-7.95,2.85-9.58-2.13-1.58-4.86-1.6-8.32-.08-14.63,1.33-5.55,1.9-8.9,2.14-12.74.21-3.33-.23-8.24-.94-10.36-.45-1.36-.49-1.4-1.43-1.31-1.39.14-3.64,1.04-4.79,1.92-.55.42-2.05,2.07-3.33,3.67-2.49,3.11-5.1,5.72-7.83,7.84-1.62,1.26-5.72,5.66-7.68,8.24-1.91,2.53-4.45,6.5-5.19,8.14-.99,2.19-1.55,4.34-2.35,9.15-.35,2.13-.9,4.63-1.2,5.54-1.78,5.36-3.43,9.77-4.08,10.88-2.22,3.79-5.56,5.61-7.92,4.33ZM191.49,427.22c-2.1-1.77-2.16-3.59-.18-6.25,1.17-1.57,1.27-1.84,1.27-3.32,0-1.23.13-1.74.55-2.16.81-.81,1.86-.98,2.92-.47.9.42,1.18.95,1.65,3.06.1.44.78,1.44,1.51,2.22.74.78,1.42,1.69,1.53,2.03.47,1.55-1.69,3.83-4.78,5.05-2.02.8-3.39.75-4.46-.15ZM160.58,374.09c-1.96-.98-3.17-2.31-3.35-3.71-.14-1.04-.07-1.23.82-2.07,1.98-1.86,5.59-2.07,8.71-.49.95.47,1.92.87,2.16.87.68,0,1.8,1.28,1.8,2.06,0,.93-.88,1.45-2.86,1.69-1.39.17-1.77.35-2.68,1.27-1.3,1.32-2.52,1.42-4.59.39ZM331.97,334.74c-1.66-.85-3.23-1.8-3.5-2.11-.96-1.09-.37-3.4,1.03-4.04.4-.19,1.35-.33,2.12-.33.98,0,1.61-.17,2.1-.55.84-.66,1.23-.69,2.29-.14.59.31.96.85,1.42,2.1.34.93.79,1.76,1.02,1.84.55.21,1.11,1.64.95,2.46-.07.38-.49,1.05-.95,1.5-1.33,1.33-2.78,1.17-6.48-.73ZM143.72,313.29c-.46-.14-2.33-.18-4.16-.09-2.77.14-3.78.07-6.09-.43-1.52-.32-3.95-.66-5.4-.74-2.33-.14-2.89-.07-4.85.56-3.7,1.2-6.37.86-7.44-.95-.6-1.02-1.27-1.46-3.45-2.32-2.48-.97-3.37-1.68-3.37-2.69,0-.67.16-.9.83-1.15.46-.17.83-.4.83-.51,0-.33-2.52-.53-6.23-.48-5.81.07-8.3-.65-10.34-2.96-3.72-4.22-.81-9.61,4.98-9.2,2.26.16,5.15,1.45,7.43,3.3,2.35,1.91,4.11,3.04,5.64,3.61,1.2.45,1.81.51,4.32.35,3.55-.22,4.41.04,9.15,2.84,6.72,3.97,10.05,5.16,13.71,4.88,3.57-.28,6.55.65,7.29,2.26.36.79.42,2.32.11,2.79-.19.28-1.86,1.25-2.06,1.19-.04-.02-.45-.14-.91-.28ZM175.49,292.44c-.57-.51-2.18-1.5-3.57-2.2-1.39-.7-2.8-1.6-3.11-2.01-1.95-2.47-1.03-5.37,1.71-5.37,1.29,0,1.73.21,4.22,2.08,1.06.8,2.52,1.67,3.23,1.93,1.81.67,2.49,1.49,2.66,3.17.13,1.3.07,1.45-.84,2.36-1.35,1.36-2.8,1.37-4.28.04ZM319.55,268.84c-.34-.33-.44-.91-.4-2.28.03-1.02-.11-2.36-.32-3-.48-1.49-.1-2.41,1.27-3.05.85-.41,1.1-.42,1.87-.11,2.01.83,2.36.76,3.74-.72,2.13-2.25,2.95-2.49,4.22-1.21.97.97,1.07,2.22.28,3.52-.7,1.16-1.99,2.11-4.22,3.1-1.57.71-1.95,1.03-2.6,2.17-.42.73-.95,1.49-1.18,1.68-.6.49-2.14.43-2.66-.1ZM369.05,266.33c-.98-.2-2.3-1.9-2.3-2.97,0-1.48.75-2.16,2.55-2.31,3.17-.27,4.69,1.05,3.65,3.16-.8,1.61-2.33,2.44-3.89,2.13ZM357.95,234.8c-1.05-.74-.82-1.96.76-3.86.96-1.15,1.46-2.06,1.66-2.98.4-1.77.92-2.74,1.99-3.65.78-.66,1.05-.73,2.15-.58.7.09,1.99.2,2.88.23,1.26.04,1.71.18,2.02.61.83,1.13.78,1.81-.27,3.85-.56,1.08-1.02,2.09-1.02,2.26,0,.49-1.45,1.68-2.46,2.02-.52.17-1.46.32-2.11.32-.95,0-1.47.22-2.65,1.1-1.63,1.22-2.04,1.32-2.96.68ZM181.14,229.89c-1.94-.76-3.53-2.04-4.52-3.61-.4-.63-1.64-2.12-2.75-3.31-1.55-1.65-2.13-2.51-2.49-3.64-.46-1.46-.46-1.5.2-2.83,1.21-2.44,3.47-3.36,5.66-2.3,2.22,1.07,3.22,2.86,4.7,8.39.35,1.29.77,1.97,2.08,3.39,1.72,1.85,2.04,2.8,1.29,3.82-.57.78-2.32.82-4.18.09ZM184.94,218.22c-.62-.27-1.27-1.04-2.3-2.74-1.13-1.87-2.18-3.08-4.96-5.7-3.82-3.6-5.03-5.3-6.67-9.29-1.21-2.97-1.94-4.19-4.55-7.61-2.53-3.32-4.63-7.41-4.82-9.36-.32-3.3,2.54-5.53,5.58-4.37,3.25,1.24,5.45,4.65,8.31,12.86,1.26,3.61,1.54,4.12,3.39,6.19,2.01,2.24,2.62,3.15,5.29,7.82,4.1,7.18,5.07,9.56,4.49,10.96-.65,1.56-2,2.01-3.76,1.23Z"/>
  </g>
</svg>