<?xml version="1.0" encoding="UTF-8"?>
<svg id="_レイヤー_1" data-name="レイヤー 1" xmlns="http://www.w3.org/2000/svg" xmlns:xlink="http://www.w3.org/1999/xlink" viewBox="0 0 1026.67 641.33">
  <defs>
    <style>
      .cls-1 {
        fill: none;
      }

      .cls-2 {
        clip-path: url(#clippath-1);
      }

      .cls-3 {
        clip-path: url(#clippath-2);
      }

      .cls-4 {
        fill: #fff;
      }

      .cls-5 {
        clip-path: url(#clippath);
      }
    </style>
    <clipPath id="clippath">
      <rect class="cls-1" y="129.33" width="1026.67" height="512"/>
    </clipPath>
    <clipPath id="clippath-1">
      <rect class="cls-1" x="18.67" y="65.33" width="494.67" height="245.33"/>
    </clipPath>
    <clipPath id="clippath-2">
      <rect class="cls-1" x="12" width="310.67" height="142.67"/>
    </clipPath>
  </defs>
  <g class="cls-5">
    <g>
      <path d="M348.07,420.11l-182.82,32.24-23.51-133.29,16.81-2.96.67,3.79-3.39,1.83-1.62-2.99c-1.01-1.87-2.32-3.95-3.91-6.25l-3.31-4.78,78.65-16.32,1.38,2.45c1.9,3.37,3.35,6.3,4.35,8.79l1.4,3.51-3.57,1.42-.67-3.79,10.91-1.92.67,3.79-3.8-.56.57-3.85c.35-2.38.53-5.24.53-8.59v-3.33s79.66-11.61,79.66-11.61l-.42,4.83c-.31,3.51-.9,6.48-1.79,8.92l-1.16,3.17-3.61-1.32-.67-3.79,18.93-3.34,23.51,133.29-3.79.67ZM346.73,412.53l.67,3.79-3.79.67-22.17-125.72,3.79-.67.67,3.79-21.72,3.83,3.45-9.44c.66-1.8,1.11-4.11,1.35-6.94l3.83.33.56,3.8-71.57,10.43-.55-3.8h3.84c0,3.73-.2,6.97-.61,9.72l-.97,6.59-16.71,2.95-2.56-6.41c-.86-2.18-2.17-4.8-3.9-7.87l3.35-1.89.78,3.76-70.21,14.57-.78-3.77,3.16-2.19c1.76,2.53,3.21,4.85,4.36,6.97l4.16,7.69-18.28,3.22-.67-3.79,3.79-.67,22.17,125.72-3.79.67-.67-3.79,179.04-31.57ZM97.37,598.85l-17.98-92.77,6.95-1.55c1.93-.43,3.82-1.09,5.68-1.96l1.64,3.48-3.79.67-9.61-54.53,3.79-.67.67,3.79-12.57,2.22-15.81-89.67,12.57-2.21.67,3.79-3.79.67-8.63-48.92,78.77-13.89,8.63,48.93-3.79.67-.67-3.79,11.96-2.11,15.81,89.67-11.96,2.11-.67-3.79,3.79-.67,7.69,43.63-3.79.67-1.33-3.61c1.94-.71,3.71-1.54,5.32-2.47l7.45-4.34,16.82,95.4-7.57,1.34c.25,1.43,1.06,2.4,2.42,2.92.44.16.88.24,1.34.24.24,0,.46-.03.66-.07h.04s-.11.03-.18.05c-.41.14-1.04.37-1.91.7-1.82.71-4.56,1.82-8.22,3.34-7.43,3.09-17.66,6.94-30.66,11.54-13.01,4.6-27.97,9.33-44.9,14.2l-4.04,1.16-.8-4.13ZM104.92,597.39l-3.78.73-1.06-3.69c16.77-4.83,31.59-9.51,44.46-14.06,12.87-4.55,22.96-8.34,30.27-11.39,3.71-1.55,6.52-2.69,8.4-3.42.98-.38,1.74-.66,2.28-.83.36-.12.67-.2.92-.26.32-.07.63-.1.93-.1.49,0,.96.08,1.41.25,1.38.52,2.19,1.5,2.45,2.94l-3.79.67-3.79.67-15.86-89.97,3.79-.67,1.94,3.32-2.69,1.57c-1.98,1.16-4.16,2.17-6.52,3.04l-4.32,1.6-9.16-51.95,11.97-2.11.67,3.79-3.79.67-14.47-82.1,3.79-.67.67,3.79-11.97,2.11-8.63-48.92,3.79-.67.67,3.79-71.19,12.56-.67-3.79,3.79-.67,8.62,48.93-12.57,2.21-.67-3.79,3.79-.67,14.47,82.1-3.79.67-.67-3.79,12.57-2.22,10.79,61.21-2.66,1.26c-2.37,1.11-4.8,1.95-7.28,2.51l-3.3.73-.84-3.75,3.77-.73,17.28,89.1ZM367.83,555.31l-72.9,12.53-1.73-9.83,3.79-.67.67,3.79-34.84,6.14-.67-3.79,3.79-.67,1.73,9.84-76.34,13.46-24.47-138.74,180.25-31.78,24.52,139.07-3.81.65ZM366.52,547.73l.65,3.79-3.79.67-23.18-131.47,3.79-.67.67,3.79-172.67,30.45-.67-3.79,3.79-.67,23.13,131.17-3.79.67-.67-3.79,68.77-12.12.67,3.79-3.79.67-1.74-9.84,42.41-7.48,1.74,9.85-3.79.67-.65-3.79,69.12-11.87ZM273.06,346.35l-.96-5.45,3.79-.67.67,3.79-11.82,2.08-.67-3.79,3.79-.67.96,5.45-3.79.67-.67-3.79,11.81-2.08.67,3.79-3.79.67ZM281.3,348.8l-19.39,3.42-2.3-13.03,19.39-3.42,1.63,9.24.67,3.79ZM217.92,356.07l-.96-5.45,3.79-.67.67,3.79-10.91,1.92-.67-3.79,3.79-.67.96,5.45-3.79.67-.67-3.79,10.91-1.92.67,3.79-3.79.67ZM226.17,358.52l-18.48,3.26-2.3-13.03,18.48-3.26,1.63,9.24.67,3.79ZM280.27,387.24l-1.07-6.06,3.79-.67.67,3.79-11.82,2.08-.67-3.79,3.79-.67,1.07,6.06-3.79.67-.67-3.79,11.81-2.08.67,3.79-3.79.67ZM288.51,389.69l-19.39,3.42-2.4-13.64,19.39-3.42,1.74,9.84.67,3.79ZM225.13,396.96l-1.07-6.06,3.79-.67.67,3.79-10.91,1.92-.67-3.79,3.79-.67,1.07,6.06-3.79.67-.67-3.79,10.91-1.92.67,3.79-3.79.67ZM233.37,399.41l-18.48,3.26-2.4-13.64,18.48-3.26,1.73,9.84.67,3.79ZM279.1,478.03l-.7-3.94,3.79-.67.67,3.79-34.84,6.15-.67-3.79,3.79-.67.69,3.94-3.79.67-.67-3.79,34.84-6.15.67,3.79-3.79.67ZM287.34,480.48l-42.41,7.48-2.03-11.51,42.41-7.48,1.36,7.72.67,3.79ZM285.56,514.69l-.8-4.54,3.79-.67.67,3.79-34.84,6.14-.67-3.79,3.79-.67.8,4.54-3.79.67-.67-3.79,34.84-6.14.67,3.79-3.79.67ZM293.8,517.14l-42.41,7.48-2.14-12.12,42.41-7.48,1.47,8.33.67,3.79Z"/>
      <path d="M652.35,397.38l-171.01,30.15-19.93-112.99,51.95-9.16.67,3.79-3.79.67-.69-3.94,3.79-.67.67,3.79-50.89,8.97-.67-3.79,3.7-1.02,2.76,9.99-17.47,4.67-.99-3.71,3.79-.67,1.97,11.21-3.79.67-.67-3.79,17.11-3.02,13.14,74.53-15.3,2.7-.67-3.79,2.67-2.76,3.96,3.83c2.33,2.26,5.23,4.2,8.71,5.84l1.9.89,10.88,81.78-10.72-6.08c-2.97-1.68-5.98-4.07-9.03-7.17l2.74-2.69,3.79-.67,10.28,58.32-74.22,13.09-8.47-48.02,3.79-.67,3.66,1.18c-2.68,8.33-6.98,16.6-12.91,24.81l-5.19,7.18-17.52-89.33.85-1.31c2.33-3.56,4.42-7.64,6.29-12.23,1.86-4.58,3.25-9.33,4.17-14.24l3.78.7.67,3.79-17.42,3.07-13.14-74.52,19.54-3.45.67,3.79-3.79.67-1.28-7.27,3.79-.67.96,3.72c-2.69.69-5.14,1.23-7.35,1.62l-11.04,1.95-16.09-71.46,3.92-.73c17.26-3.25,32.72-6.6,46.41-10.05,13.71-3.46,24.49-6.34,32.36-8.66l15.64-4.61,13.34,48.78-3.71,1.01-3.79.67-7.61-43.17,55.9-9.85.67,3.79-3.79.67-1.79-10.15,78.46-13.84,1.79,10.15-3.79.67-.67-3.79,57.1-10.07,10.58,59.98-57.1,10.07-.67-3.79,3.79-.67.69,3.94-3.79.67-.67-3.79,51.95-9.16,19.92,112.99-3.79.67ZM651.02,389.81l.67,3.79-3.79.67-18.59-105.42,3.79-.67.67,3.79-51.95,9.16-2.03-11.51,57.1-10.07.67,3.79-3.79.67-9.24-52.41,3.79-.67.67,3.79-57.1,10.07-1.79-10.15,3.79-.67.67,3.79-70.89,12.5-.67-3.79,3.79-.67,1.79,10.15-55.89,9.85-.67-3.79,3.79-.67,6.94,39.38-7.49,1.68-12.31-44.99,3.71-1.02,1.09,3.69-11.88,3.5c-7.96,2.35-18.85,5.26-32.66,8.74-13.83,3.49-29.46,6.87-46.86,10.15l-.71-3.78,3.75-.84,14.41,63.99-3.76.85-.67-3.79,7.42-1.31c2.03-.35,4.28-.85,6.78-1.49l4.03-1.03,2.67,15.15-19.54,3.44-.67-3.79,3.79-.67,11.8,66.95-3.79.67-.67-3.79,19.09-3.37-1.02,5.45c-1.01,5.43-2.54,10.67-4.6,15.73-2.05,5.05-4.37,9.57-6.97,13.54l-3.22-2.1,3.78-.74,15.51,79.1-3.78.74-3.11-2.25c5.45-7.55,9.4-15.1,11.82-22.66l7.45.51,7.8,44.23-3.79.67-.67-3.79,66.65-11.75.67,3.79-3.79.67-11.77-66.72,8.68,8.83c2.54,2.58,4.98,4.54,7.33,5.88l3.99,2.27-1.9,3.34-3.81.51-9.57-72.03,3.81-.51-1.64,3.48c-4.24-2-7.84-4.42-10.79-7.28l-9.36-9.07,18.93-3.34.67,3.79-3.79.67-11.81-66.95,3.79-.67.67,3.79-17.12,3.02-3.26-18.47,17.13-4.58.99,3.71-3.7,1.03-2.85-10.33,58.84-10.38,2.03,11.51-51.95,9.16-.67-3.79,3.79-.67,18.59,105.42-3.79.67-.67-3.79,167.22-29.48ZM674.54,489.62l-41.66,14.31-.78-4.43c-.78-4.42-1.62-8.87-2.52-13.37-.9-4.49-1.83-8.93-2.81-13.31l3.76-.84,3.84-.09c.3,12.98-1.2,22.19-4.49,27.61-3.51,5.78-9.47,9.4-17.89,10.89l-46.05,8.12c-10.16,1.79-18.49.95-25.02-2.51-6.85-3.64-11.47-12.23-13.85-25.78l-3.74-21.2,3.79-.67,3.83-.3c.66,8.47,1.15,16.92,1.48,25.34.33,8.41.55,16.47.66,24.19l.05,3.86-47.14.44.1-3.98c.27-10.18.23-20.66-.12-31.45-.35-10.84-.82-21.45-1.41-31.83-.58-10.35-1.3-19.7-2.15-28.03l-.4-3.94,36.95-2.67.28,3.83-3.79.67-1.31-7.42,89.17-15.72,3.07,9.37-3.66,1.2.17-3.84,14.17.63-.17,3.84-3.79.67c-.16-.89-.35-1.76-.6-2.63-.31-1.11-.57-2.24-.77-3.38l-.6-3.41,43.41-12.51,11.9,47.22c3.9,15.62,7.43,31.19,10.59,46.73l.67,3.31-3.19,1.09ZM672.04,482.35l1.25,3.64-3.77.77c-3.14-15.42-6.64-30.89-10.51-46.38l-10.93-43.36,3.73-.94,1.06,3.69-36.26,10.45-1.07-3.69,3.79-.67c.16.88.36,1.76.6,2.63.32,1.11.57,2.24.77,3.38l.83,4.72-21.61-.95-2.86-8.73,3.66-1.2.67,3.79-82.1,14.48-.67-3.79,3.79-.67,1.38,7.83-37.25,2.69-.28-3.83,3.82-.39c.86,8.45,1.59,17.9,2.18,28.38.59,10.44,1.06,21.11,1.42,32.02.35,10.94.4,21.58.12,31.91l-3.84-.1-.04-3.84,39.29-.37.04,3.84-3.84.05c-.1-7.65-.32-15.65-.66-23.99-.33-8.33-.82-16.68-1.46-25.05l7.62-.97,3.74,21.21c1.95,11.09,5.25,17.86,9.89,20.32,4.96,2.64,11.66,3.21,20.08,1.72l46.05-8.12c6.13-1.08,10.34-3.52,12.65-7.31,2.52-4.14,3.64-11.95,3.38-23.44l7.59-.93c.99,4.43,1.94,8.93,2.85,13.48.91,4.56,1.76,9.07,2.55,13.54l-3.79.67-1.25-3.64,37.41-12.84ZM596.34,448.18l-24.69,4.35-3.26-12.38c-1.56-5.91-3.53-12.69-5.91-20.33l3.67-1.15,3.79-.67,5.02,28.47c.14.81.29,1.29.45,1.42-.07-.06-.13-.09-.2-.1.08.02.23,0,.44-.03l15.15-2.67c.61-.11,1.05-.26,1.3-.44-.23.17-.38.33-.43.46.08-.2.14-.53.17-.99l3.83.27.67,3.79ZM595,440.6l4.85-.86-.34,4.92c-.2,2.86-1.15,4.92-2.83,6.17-1.22.91-2.74,1.52-4.55,1.84l-15.15,2.67c-2.6.46-4.8-.07-6.57-1.59-1.56-1.33-2.57-3.31-3.03-5.93l-5.02-28.48,7.46-1.81c2.42,7.76,4.42,14.64,6.01,20.67l2.36,8.95-3.72.98-.67-3.79,21.2-3.74ZM595.26,368.56l-1.07-6.06,3.79-.67.67,3.79-10.3,1.82-.67-3.79,3.79-.67,1.07,6.06-3.79.67-.67-3.79,10.3-1.82.67,3.79-3.79.67ZM603.5,371.01l-17.87,3.15-2.41-13.63,17.88-3.15,1.73,9.84.67,3.79ZM530.74,379.94l-1.07-6.06,3.79-.67.67,3.79-9.69,1.71-.67-3.79,3.79-.67,1.07,6.06-3.79.67-.67-3.79,9.69-1.71.67,3.79-3.79.67ZM538.98,382.38l-17.27,3.05-2.41-13.63,17.27-3.05,1.73,9.84.67,3.79ZM589.6,336.45l-.96-5.45,3.79-.67.67,3.79-10.3,1.81-.67-3.79,3.79-.67.96,5.45-3.79.67-.67-3.79,10.3-1.81.67,3.79-3.79.67ZM597.84,338.89l-17.88,3.16-2.3-13.03,17.88-3.16,1.63,9.24.67,3.79ZM525.08,347.82l-.96-5.45,3.79-.67.67,3.79-9.7,1.71-.67-3.79,3.79-.67.96,5.45-3.79.67-.67-3.79,9.7-1.71.67,3.79-3.79.67ZM533.32,350.27l-17.27,3.05-2.3-13.03,17.27-3.05,1.63,9.24.67,3.79Z"/>
      <path d="M889.63,325.87l-143.74,25.34-1.73-9.84,3.79-.67,2.1,3.21c-4.13,2.7-9.77,5.49-16.9,8.37-7.04,2.83-14.8,5.42-23.28,7.76-8.46,2.34-16.89,4.24-25.29,5.72l-3.71.66-13.43-68.22,3.86-.68c1.54-.27,3.07-.59,4.59-.95,1.67-.41,3.36-.76,5.05-1.06l.67,3.79-2.97,2.44-3.58-4.36,2.97-2.44,1.5,3.54-8.01,3.4-15.35-67.08,3-1.24c6.76-2.81,12.84-5.99,18.23-9.55,5.17-3.41,9.58-7.85,13.26-13.33l.91-1.36,87.35-15.41-5.64,13.28-3.54-1.51-.67-3.79,53.09-9.36,1.39,2.12c3.27,4.99,7.32,9.87,12.16,14.62l-2.69,2.74-3.79.67-3.77-21.36,105.42-18.59,7.94,45.02v7.37c-.02,4.79-.31,10.92-.89,18.41l-3.83-.3-.67-3.79,12.33-2.18,12.77,80.21-3.72.66c-13.51,2.39-26.06,3.75-37.64,4.1-11.73.35-21.79-.47-30.16-2.46l.89-3.74,3.79-.67,1.73,9.84-3.79.67ZM888.3,318.3l.67,3.79-3.79.67-2.08-11.82,5.69,1.35c7.71,1.83,17.09,2.59,28.15,2.26,11.2-.34,23.38-1.67,36.53-3.98l.67,3.79-3.8.6-11.56-72.61,3.8-.6.67,3.79-13.36,2.35.39-4.94c.56-7.29.85-13.23.85-17.82v-7.03s3.85.01,3.85.01l-3.79.67-7.21-40.9,3.79-.67.67,3.79-97.85,17.26-.67-3.79,3.79-.67,5.18,29.39-8.56-8.41c-5.23-5.14-9.64-10.43-13.21-15.89l3.22-2.1.67,3.79-57.57,10.15,5.64-13.28,3.54,1.51.67,3.79-78.77,13.89-.67-3.79,3.19,2.14c-4.24,6.33-9.38,11.49-15.41,15.46-5.8,3.83-12.3,7.24-19.52,10.23l-1.47-3.55,3.75-.86,13.6,59.45-3.75.86-1.5-3.54,6.43-2.73,9.58,11.68-6.47,1.14c-1.54.27-3.07.59-4.59.96-1.67.41-3.36.76-5.05,1.05l-.67-3.79,3.78-.74,11.95,60.68-3.77.74-.67-3.79c8.16-1.44,16.35-3.29,24.58-5.56,8.2-2.27,15.68-4.76,22.45-7.48,6.67-2.69,11.86-5.24,15.57-7.67l4.88-3.19,2.08,11.8-3.79.67-.67-3.79,139.96-24.68ZM965.23,373.76l-91.79,16.18-.67-3.79,3.79-.67,3.15,17.88c2.28,12.93,3.46,23.29,3.55,31.08.1,8.43-1.69,15.19-5.36,20.29-3.66,5.08-9.58,8.98-17.74,11.69-7.55,2.51-17.68,4.88-30.39,7.12l-36.25,6.39-12.69-51.06,3.73-.93,3.84-.07c.26,13.38.14,24.59-.38,33.63l-.95,16.72-88.11,7.96,1.57-10.6c.57-3.83,1.27-8.97,2.09-15.45.83-6.45,1.6-13.52,2.31-21.21.71-7.66,1.24-15.24,1.57-22.73l.15-3.23,80.96-10.49.37,8.84-3.84.16-.67-3.79c2.83-.5,4.57-1.09,5.23-1.76-.06.06-.1.11-.13.16v-.02c.07-.18.12-.45.15-.79.09-1.04-.02-2.45-.33-4.23l3.79-.67.67,3.79-103.45,18.24-10.9-61.8,279.61-49.3,10.9,61.8-3.79.67ZM963.9,366.19l.67,3.79-3.79.67-9.56-54.22,3.79-.67.67,3.79-272.04,47.97-.67-3.79,3.79-.67,9.56,54.22-3.79.67-.67-3.79,103.45-18.24.67,3.79c.98,5.54.39,9.41-1.78,11.61-1.81,1.85-4.94,3.16-9.38,3.95l-4.33.76-.38-9.04,3.84-.16.49,3.81-73.59,9.54-.49-3.82,3.84.17c-.33,7.62-.86,15.32-1.59,23.11-.72,7.78-1.51,14.93-2.34,21.47-.84,6.52-1.54,11.72-2.12,15.59l-.85,5.78-3.8-.57-.35-3.83,79.94-7.22.34,3.83-3.84-.21.76-13.41c.5-8.84.62-19.85.36-33.04l7.57-1.01,11.83,47.58-3.73.93-.67-3.79,32.72-5.77c12.34-2.18,22.1-4.46,29.31-6.84,6.59-2.19,11.23-5.15,13.92-8.89,2.69-3.73,3.99-8.96,3.91-15.71-.09-7.38-1.23-17.32-3.44-29.84l-3.82-21.66,95.58-16.85ZM977.16,437.86l-80.84,21.08-5.29-12.33c-2.68-6.26-5.83-14.31-9.45-24.15-3.61-9.83-7.08-20.01-10.41-30.52l-1.26-3.99,79.69-17.83,1.22,3.03c2.56,6.34,5.47,12.93,8.74,19.78,3.29,6.89,6.45,13.33,9.47,19.33,3.03,5.99,5.53,10.82,7.52,14.49l5.34,9.88-4.74,1.24ZM975.22,430.42l.97,3.72-3.39,1.83-3.01-5.56c-2.02-3.74-4.56-8.64-7.62-14.69-3.05-6.05-6.24-12.54-9.55-19.48-3.33-6.98-6.31-13.72-8.93-20.21l3.57-1.44.84,3.76-72.42,16.2-.84-3.75,3.67-1.16c3.29,10.4,6.71,20.45,10.29,30.18,3.58,9.71,6.68,17.64,9.31,23.77l3.98,9.29-3.54,1.52-.97-3.72,77.64-20.25ZM808.59,286.12l14.54-2.56.67,3.79-2.84,2.59c-1.84-2.02-3.58-4-5.2-5.95-1.69-2.03-3.3-4.23-4.82-6.61l3.24-2.07,3.75.84c-.61,2.76-1.37,5.38-2.26,7.86-.86,2.39-1.81,4.85-2.86,7.38l-3.55-1.47-.67-3.79ZM809.93,293.69l-6.9,1.22,2.68-6.47c1-2.42,1.91-4.76,2.72-7.04.78-2.19,1.45-4.5,1.99-6.95l2.02-9.01,4.98,7.78c1.35,2.11,2.77,4.06,4.25,5.84,1.55,1.86,3.2,3.76,4.96,5.68l4.73,5.17-21.44,3.78ZM719.14,284.47l5.84-2.28,1.4,3.58-2.84,2.6c-1.77-1.93-3.52-3.76-5.24-5.49-1.72-1.73-3.43-3.35-5.11-4.88l2.58-2.85,2.42,2.98-1.23,1c-1.05.85-2.38,1.67-3.98,2.45l-1.68-3.46,2.69-2.74c1.28,1.26,2.75,2.73,4.42,4.44,1.74,1.78,3.45,3.72,5.14,5.83l-3.01,2.4-1.4-3.58ZM721.94,291.64l-2.64,1.03-1.77-2.21c-1.52-1.91-3.06-3.66-4.63-5.26-1.63-1.67-3.07-3.11-4.31-4.33l-3.89-3.82,4.9-2.39c1.08-.52,1.91-1.03,2.51-1.51l3.79-3.07,2.44,2.21c1.78,1.61,3.58,3.33,5.4,5.15s3.64,3.72,5.48,5.73l3.79,4.14-11.07,4.32ZM878.77,235.95l-12.11,2.14-.67-3.79,1.44-3.57c1.78.72,3.68,1.47,5.68,2.26,1.96.77,3.92,1.49,5.86,2.16l-1.26,3.64-3.84-.09c.05-2.18.13-3.9.24-5.15l.16-1.74,3.83.35.67,3.79ZM877.44,228.37l4.96-.88-.62,6.76c-.1,1.08-.17,2.61-.22,4.62l-.12,5.27-4.98-1.72c-2.05-.71-4.1-1.46-6.17-2.28-2.03-.8-3.94-1.56-5.74-2.29l-12.43-5.03,25.32-4.46ZM764.32,261.75l-9.7,1.71-.67-3.79,3.69,1.09-.2.66-3.69-1.1,2.71-2.73,4.55,4.51-2.71,2.73-2.84-2.59c2.1-2.3,3.74-4.4,4.91-6.3l3.27,2.02.67,3.79ZM762.98,254.18l8.43-1.49-4.49,7.29c-1.42,2.31-3.35,4.79-5.78,7.45l-2.7,2.96-9.02-8.95,1.53-5.14,12.03-2.12Z"/>
    </g>
  </g>
  <g class="cls-2">
    <g>
      <path class="cls-4" d="M201.59,276.12l-46.67,8.23c-6.64,1.17-12.69,1.91-18.15,2.23-5.46.31-10.62-.02-15.48-.98-4.86-.97-9.83-2.73-14.9-5.27.33,2.61.52,4.99.56,7.13.05,2.14.09,4.47.13,7l-48.6,4.94c.53-10.69.57-21.04.15-31.04-.43-10.01-1.43-19.4-2.98-28.17l47.23-6.04.85,4.81c2.14,1.5,4.45,2.43,6.94,2.77,3.22-2.33,6.02-4.56,8.4-6.69,2.39-2.14,4.85-4.76,7.4-7.88l-76.69,13.54-5.88-33.35,46.52-8.21-.33-1.94-30.96,5.46-.79-4.48-17.17,3.02-6.6-37.38,17.17-3.02-.9-5.15,42.52-7.5.9,5.15,25-4.42-.9-5.15,42.52-7.48.9,5.15,17.17-3.04,6.6,37.38-17.17,3.04.79,4.48-30.96,5.46.33,1.94,46.52-8.21,5.67,32.08c-2.41,3.83-4.68,7.18-6.83,10.04-2.14,2.86-4.34,5.57-6.6,8.13-2.25,2.54-4.93,5.35-8.02,8.44,5.03-.89,9.67-1.9,13.94-3.04,4.26-1.14,8.49-2.35,12.69-3.65l5.69,41.67ZM126.19,188.18l-.38-2.06-25,4.42.38,2.06,25-4.42Z"/>
      <path class="cls-4" d="M337.42,253.85l-22.46,3.96-1.69-3.02-21.5,3.79-4.73-26.81-3.54.63,5.31,30.02-31.75,5.6-13.5-76.52-1.48,14.15c-4.92-1-9.83-1.84-14.75-2.52-4.92-.68-9.42-1.18-13.5-1.5-4.08-.33-7.39-.55-9.9-.67-2.5-.11-3.75-.17-3.75-.17l4.88-34.25s1.61.05,4.83.15c3.22.08,7.46.35,12.71.79,5.25.45,10.96,1.23,17.13,2.35l-1.4-8.02,25.17-4.44-.4-2.23-25.33,4.46-1.02,7.44c-5.24-.94-10.39-1.66-15.44-2.15-5.04-.48-9.6-.84-13.67-1.06-4.07-.22-7.29-.38-9.67-.46-2.39-.08-3.58-.13-3.58-.13l4.19-33.46s1.52-.04,4.54-.13c3.01-.09,7.06-.09,12.15,0,5.08.08,10.65.37,16.71.85l-.31-1.77,25.98-4.58-.85-4.81,43.81-7.73.85,4.81,4-.71c-.22-.63-.64-1.41-1.25-2.35-.6-.94-.9-1.42-.9-1.42l23.58-4.98s.35.47,1.06,1.4c.72.93,1.35,1.95,1.9,3.06l3.35-.6,5.46,30.98-31.75,5.6.4,2.23,29.52-5.21,15.06,85.52c1,5.66,1.25,10.07.75,13.25-.49,3.18-1.95,5.54-4.38,7.06-2.42,1.53-6.04,2.72-10.85,3.58ZM251.27,269.04l-38.4-1.02c-.28-7.78-.69-15.39-1.23-22.83-.53-7.46-1.08-14.19-1.65-20.21-.56-6.03-1.04-10.82-1.46-14.4-.42-3.57-.63-5.35-.63-5.35l37.35,1.69s.24,1.85.73,5.56c.48,3.71,1.05,8.63,1.69,14.75.65,6.13,1.32,12.85,2,20.17.68,7.32,1.21,14.54,1.58,21.65ZM308.15,180.75l-.67-3.83-5.29.94.67,3.83,5.29-.94ZM279.92,185.72l-.67-3.83-4.5.79.67,3.83,4.5-.79ZM312.56,205.79l-.73-4.17-5.29.94.73,4.17,5.29-.94ZM284.34,210.77l-.73-4.17-4.5.79.73,4.17,4.5-.79ZM316.5,228.08l-.27-1.46-4.5.79.83,4.67c1.82-.32,2.98-.74,3.5-1.27.51-.53.66-1.44.44-2.73Z"/>
      <path class="cls-4" d="M510.52,223.47l-38.52,6.65-.77-4.35-8.5,1.5.77,4.35-38.5,6.77-23.54-133.48,17.65-3.1c.86-3.25,1.46-7.05,1.79-11.4l43-7.58c-.03,2.42-.18,4.45-.44,6.1-.25,1.66-.6,3.4-1.04,5.23l24.54-4.31,23.56,133.63ZM416.98,239.81l-39.46,6.96-6.15-34.81c-.95,2.82-1.92,5.31-2.92,7.48-1,2.16-2.25,4.3-3.75,6.44l-9.94-50.83c1.43-2.47,2.66-5.04,3.67-7.71,1.03-2.67,1.76-5.3,2.19-7.92l-7.4,1.31-7.06-40.08,8.83-1.56-2.92-16.54,39.46-6.96,2.92,16.54,6.42-1.13,7.06,40.08-6.27,1.1s.73.87,2.19,2.6c1.47,1.72,3.31,3.22,5.52,4.48l7.67,43.48s-.91-.61-2.73-1.83c-1.82-1.23-3.58-3.25-5.27-6.04l7.94,44.94ZM456.62,143.02l-1.02-5.79-8.5,1.5,1.02,5.79,8.5-1.5ZM464.04,185.04l-1.1-6.25-8.5,1.5,1.1,6.25,8.5-1.5Z"/>
      <path d="M197.59,273.32l-46.67,8.23c-6.64,1.17-12.69,1.91-18.15,2.23-5.46.31-10.62-.02-15.48-.98-4.86-.97-9.83-2.73-14.9-5.27.33,2.61.52,4.99.56,7.13.05,2.14.09,4.47.13,7l-48.6,4.94c.53-10.69.57-21.04.15-31.04-.43-10.01-1.43-19.4-2.98-28.17l47.23-6.04.85,4.81c2.14,1.5,4.45,2.43,6.94,2.77,3.22-2.33,6.02-4.56,8.4-6.69,2.39-2.14,4.85-4.76,7.4-7.88l-76.69,13.54-5.88-33.35,46.52-8.21-.33-1.94-30.96,5.46-.79-4.48-17.17,3.02-6.6-37.38,17.17-3.02-.9-5.15,42.52-7.5.9,5.15,25-4.42-.9-5.15,42.52-7.48.9,5.15,17.17-3.04,6.6,37.38-17.17,3.04.79,4.48-30.96,5.46.33,1.94,46.52-8.21,5.67,32.08c-2.41,3.83-4.68,7.18-6.83,10.04-2.14,2.86-4.34,5.57-6.6,8.13-2.25,2.54-4.93,5.35-8.02,8.44,5.03-.89,9.67-1.9,13.94-3.04,4.26-1.14,8.49-2.35,12.69-3.65l5.69,41.67ZM122.19,185.38l-.38-2.06-25,4.42.38,2.06,25-4.42Z"/>
      <path d="M333.42,251.05l-22.46,3.96-1.69-3.02-21.5,3.79-4.73-26.81-3.54.63,5.31,30.02-31.75,5.6-13.5-76.52-1.48,14.15c-4.92-1-9.83-1.84-14.75-2.52-4.92-.68-9.42-1.18-13.5-1.5-4.08-.33-7.39-.55-9.9-.67-2.5-.11-3.75-.17-3.75-.17l4.88-34.25s1.61.05,4.83.15c3.22.08,7.46.35,12.71.79,5.25.45,10.96,1.23,17.13,2.35l-1.4-8.02,25.17-4.44-.4-2.23-25.33,4.46-1.02,7.44c-5.24-.94-10.39-1.66-15.44-2.15-5.04-.48-9.6-.84-13.67-1.06-4.07-.22-7.29-.38-9.67-.46-2.39-.08-3.58-.13-3.58-.13l4.19-33.46s1.52-.04,4.54-.13c3.01-.09,7.06-.09,12.15,0,5.08.08,10.65.37,16.71.85l-.31-1.77,25.98-4.58-.85-4.81,43.81-7.73.85,4.81,4-.71c-.22-.63-.64-1.41-1.25-2.35-.6-.94-.9-1.42-.9-1.42l23.58-4.98s.35.47,1.06,1.4c.72.93,1.35,1.95,1.9,3.06l3.35-.6,5.46,30.98-31.75,5.6.4,2.23,29.52-5.21,15.06,85.52c1,5.66,1.25,10.07.75,13.25-.49,3.18-1.95,5.54-4.38,7.06-2.42,1.53-6.04,2.72-10.85,3.58ZM247.27,266.23l-38.4-1.02c-.28-7.78-.69-15.39-1.23-22.83-.53-7.46-1.08-14.19-1.65-20.21-.56-6.03-1.04-10.82-1.46-14.4-.42-3.57-.63-5.35-.63-5.35l37.35,1.69s.24,1.85.73,5.56c.48,3.71,1.05,8.63,1.69,14.75.65,6.13,1.32,12.85,2,20.17.68,7.32,1.21,14.54,1.58,21.65ZM304.14,177.94l-.67-3.83-5.29.94.67,3.83,5.29-.94ZM275.92,182.92l-.67-3.83-4.5.79.67,3.83,4.5-.79ZM308.56,202.98l-.73-4.17-5.29.94.73,4.17,5.29-.94ZM280.33,207.96l-.73-4.17-4.5.79.73,4.17,4.5-.79ZM312.5,225.28l-.27-1.46-4.5.79.83,4.67c1.82-.32,2.98-.74,3.5-1.27.51-.53.66-1.44.44-2.73Z"/>
      <path d="M506.52,220.67l-38.52,6.65-.77-4.35-8.5,1.5.77,4.35-38.5,6.77-23.54-133.48,17.65-3.1c.86-3.25,1.46-7.05,1.79-11.4l43-7.58c-.03,2.42-.18,4.45-.44,6.1-.25,1.66-.6,3.4-1.04,5.23l24.54-4.31,23.56,133.63ZM412.97,237l-39.46,6.96-6.15-34.81c-.95,2.82-1.92,5.31-2.92,7.48-1,2.16-2.25,4.3-3.75,6.44l-9.94-50.83c1.43-2.47,2.66-5.04,3.67-7.71,1.03-2.67,1.76-5.3,2.19-7.92l-7.4,1.31-7.06-40.08,8.83-1.56-2.92-16.54,39.46-6.96,2.92,16.54,6.42-1.13,7.06,40.08-6.27,1.1s.73.87,2.19,2.6c1.47,1.72,3.31,3.22,5.52,4.48l7.67,43.48s-.91-.61-2.73-1.83c-1.82-1.23-3.58-3.25-5.27-6.04l7.94,44.94ZM452.62,140.21l-1.02-5.79-8.5,1.5,1.02,5.79,8.5-1.5ZM460.04,182.23l-1.1-6.25-8.5,1.5,1.1,6.25,8.5-1.5Z"/>
    </g>
  </g>
  <g class="cls-3">
    <g>
      <path class="cls-4" d="M103.87,61.65l-4.31.75c.44.36.83.81,1.17,1.33.33.52.5.77.5.77l-18.04,3.19c-.31-.8-.73-1.49-1.27-2.06l-.9.15c0,.38-.05.83-.15,1.38-.08.53-.2,1.06-.35,1.58l-17.44,1.31c.22.27.4.51.52.73.14.22.21.33.21.33l-17.13,3.02c-.11-.33-.3-.68-.56-1.04-.25-.36-.49-.7-.73-1.02l-.9.15c0,.38-.06.89-.17,1.52-.11.63-.27,1.21-.46,1.75l-20.42,2.21s.14-.64.42-1.92c.27-1.29.59-3,.98-5.13.39-2.14.78-4.48,1.17-7.02.38-2.54.65-5.05.81-7.54l21.19-3.73c-.02.25-.06.52-.15.81-.07.28-.14.58-.21.92l13.83-2.44,1.44,8.17c.32-1.68.59-3.4.83-5.17.25-1.76.44-3.49.58-5.19l20.19-3.56c-.02.27-.05.54-.1.83-.04.28-.13.58-.25.92l16.69-2.94,3,16.94ZM102.2,124.11l-12.1,2.13-3.88-9.75,2.1,11.94-27,4.75-1.04-5.94c-3.36,2.52-7.06,4.57-11.1,6.17-4.03,1.61-8.48,2.97-13.35,4.08l-4.75-16.54c2.54-.58,4.98-1.21,7.33-1.9,2.34-.69,4.78-1.57,7.31-2.65l-14.38,2.54c-.11-4.48-.35-8.63-.71-12.42-.35-3.79-.66-6.83-.94-9.13-.28-2.29-.42-3.44-.42-3.44l24.38-4.31-.21-1.17-26.27,4.65-2.5-14.17,78.23-13.79,4.75,26.92-24.96,4.4.23,1.33,26.02-4.6,2.81,15.98c.64,3.58.83,6.35.58,8.31-.24,1.96-1.16,3.41-2.75,4.33-1.58.92-4.05,1.68-7.4,2.27ZM85.18,84.19l-.25-1.35-4.5.79.25,1.35,4.5-.79ZM55.95,102.67l-.27-1.54-4.1.73s.03.18.08.54c.07.36.07.71,0,1.04l4.29-.77ZM90.39,108.52l-5.4.96.29,1.71c2.58-.46,4.1-.86,4.56-1.23.47-.36.65-.84.54-1.44Z"/>
      <path class="cls-4" d="M170.07,107.16l-25.67,4.52-1.94-11.04-27.27,4.81-4.17-23.58,12.98-38.75,33.73-5.94,6.13,34.81,5.83-1.04,4.27,24.13-5.83,1.04,1.94,11.04ZM139.09,76.35l-2.23-12.75-4.5,13.94,6.73-1.19Z"/>
      <path class="cls-4" d="M226.05,49l-22.96,4.04c-.27-.82-.85-1.53-1.77-2.15-.92-.61-2.24-.76-3.96-.46-1.5.27-2.7,1.08-3.6,2.44-.91,1.36-1.2,2.91-.9,4.65.96-.54,2.23-1.04,3.81-1.5,1.59-.46,3.23-.83,4.9-1.13,2.93-.51,5.94-.66,9.04-.44,3.09.22,6.05.97,8.85,2.23,2.8,1.25,5.21,3.15,7.23,5.69,2.03,2.54,3.41,5.91,4.15,10.08.88,4.97.61,9.54-.77,13.71-1.39,4.17-4.04,7.69-7.94,10.56-3.91,2.88-9.15,4.9-15.73,6.06-5.99,1.06-11.47.57-16.46-1.46-4.97-2.03-9.19-5.51-12.65-10.44-3.46-4.94-5.86-11.25-7.23-18.92-2.3-13.08-1.33-23.16,2.92-30.23,4.23-7.08,11.22-11.48,20.96-13.21,8.92-1.57,16.14-.55,21.67,3.04,5.54,3.6,9.02,9.41,10.44,17.42ZM207.01,76.29c-.2-1.13-.97-2-2.31-2.63-1.35-.63-2.59-.84-3.73-.65-1.13.21-2.23.84-3.31,1.9-1.08,1.06-1.53,2.15-1.33,3.27.21,1.14,1,2.02,2.38,2.65,1.38.61,2.63.81,3.75.6,1.14-.19,2.23-.81,3.29-1.85,1.05-1.05,1.48-2.15,1.27-3.29Z"/>
      <path class="cls-4" d="M318.95,87.84l-23.71,4.08-.46-2.6-31.58,5.58.46,2.6-23.69,4.17-14.02-79.5,78.96-13.92,14.04,79.58ZM291.05,67.69l-5.92-33.56-31.75,5.6,5.92,33.56,31.75-5.6ZM289.45,66.4l-29.06,5.13-5.4-30.69,29.06-5.13,5.4,30.69ZM273.8,56.3l-1.02-5.73-2.15.38,1.02,5.73,2.15-.38Z"/>
      <path d="M101.63,60.08l-4.31.75c.44.36.83.81,1.17,1.33.33.52.5.77.5.77l-18.04,3.19c-.31-.8-.73-1.49-1.27-2.06l-.9.15c0,.38-.05.83-.15,1.38-.08.53-.2,1.06-.35,1.58l-17.44,1.31c.22.27.4.51.52.73.14.22.21.33.21.33l-17.13,3.02c-.11-.33-.3-.68-.56-1.04-.25-.36-.49-.7-.73-1.02l-.9.15c0,.38-.06.89-.17,1.52-.11.63-.27,1.21-.46,1.75l-20.42,2.21s.14-.64.42-1.92c.27-1.29.59-3,.98-5.13.39-2.14.78-4.48,1.17-7.02.38-2.54.65-5.05.81-7.54l21.19-3.73c-.02.25-.06.52-.15.81-.07.28-.14.58-.21.92l13.83-2.44,1.44,8.17c.32-1.68.59-3.4.83-5.17.25-1.76.44-3.49.58-5.19l20.19-3.56c-.02.27-.05.54-.1.83-.04.28-.13.58-.25.92l16.69-2.94,3,16.94ZM99.96,122.54l-12.1,2.13-3.88-9.75,2.1,11.94-27,4.75-1.04-5.94c-3.36,2.52-7.06,4.57-11.1,6.17-4.03,1.61-8.48,2.97-13.35,4.08l-4.75-16.54c2.54-.58,4.98-1.21,7.33-1.9,2.34-.69,4.78-1.57,7.31-2.65l-14.38,2.54c-.11-4.48-.35-8.63-.71-12.42-.35-3.79-.66-6.83-.94-9.13-.28-2.29-.42-3.44-.42-3.44l24.38-4.31-.21-1.17-26.27,4.65-2.5-14.17,78.23-13.79,4.75,26.92-24.96,4.4.23,1.33,26.02-4.6,2.81,15.98c.64,3.58.83,6.35.58,8.31-.24,1.96-1.16,3.41-2.75,4.33-1.58.92-4.05,1.68-7.4,2.27ZM82.94,82.62l-.25-1.35-4.5.79.25,1.35,4.5-.79ZM53.71,101.1l-.27-1.54-4.1.73s.03.18.08.54c.07.36.07.71,0,1.04l4.29-.77ZM88.15,106.96l-5.4.96.29,1.71c2.58-.46,4.1-.86,4.56-1.23.47-.36.65-.84.54-1.44Z"/>
      <path d="M167.84,105.59l-25.67,4.52-1.94-11.04-27.27,4.81-4.17-23.58,12.98-38.75,33.73-5.94,6.13,34.81,5.83-1.04,4.27,24.13-5.83,1.04,1.94,11.04ZM136.86,74.78l-2.23-12.75-4.5,13.94,6.73-1.19Z"/>
      <path d="M223.81,47.43l-22.96,4.04c-.27-.82-.85-1.53-1.77-2.15-.92-.61-2.24-.76-3.96-.46-1.5.27-2.7,1.08-3.6,2.44-.91,1.36-1.2,2.91-.9,4.65.96-.54,2.23-1.04,3.81-1.5,1.59-.46,3.23-.83,4.9-1.13,2.93-.51,5.94-.66,9.04-.44,3.09.22,6.05.97,8.85,2.23,2.8,1.25,5.21,3.15,7.23,5.69,2.03,2.54,3.41,5.91,4.15,10.08.88,4.97.61,9.54-.77,13.71-1.39,4.17-4.04,7.69-7.94,10.56-3.91,2.88-9.15,4.9-15.73,6.06-5.99,1.06-11.47.57-16.46-1.46-4.97-2.03-9.19-5.51-12.65-10.44-3.46-4.94-5.86-11.25-7.23-18.92-2.3-13.08-1.33-23.16,2.92-30.23,4.23-7.08,11.22-11.48,20.96-13.21,8.92-1.57,16.14-.55,21.67,3.04,5.54,3.6,9.02,9.41,10.44,17.42ZM204.77,74.72c-.2-1.13-.97-2-2.31-2.63-1.35-.63-2.59-.84-3.73-.65-1.13.21-2.23.84-3.31,1.9-1.08,1.06-1.53,2.15-1.33,3.27.21,1.14,1,2.02,2.38,2.65,1.38.61,2.63.81,3.75.6,1.14-.19,2.23-.81,3.29-1.85,1.05-1.05,1.48-2.15,1.27-3.29Z"/>
      <path d="M316.71,86.27l-23.71,4.08-.46-2.6-31.58,5.58.46,2.6-23.69,4.17-14.02-79.5,78.96-13.92,14.04,79.58ZM288.81,66.12l-5.92-33.56-31.75,5.6,5.92,33.56,31.75-5.6ZM287.21,64.83l-29.06,5.13-5.4-30.69,29.06-5.13,5.4,30.69ZM271.56,54.73l-1.02-5.73-2.15.38,1.02,5.73,2.15-.38Z"/>
    </g>
  </g>
</svg>